<?xml version="1.0" encoding="utf-8"?>
<!-- Generator: Adobe Illustrator 21.1.0, SVG Export Plug-In . SVG Version: 6.00 Build 0)  -->
<svg version="1.1" xmlns="http://www.w3.org/2000/svg" xmlns:xlink="http://www.w3.org/1999/xlink" x="0px" y="0px"
	 viewBox="0 0 300 300" style="enable-background:new 0 0 300 300;" xml:space="preserve">

<g fill="white" fill-opacity="0.90">
	<path d="M150,0L20.1,75v150L150,300l129.9-75V75L150,0L150,0z"/>
</g>
<g fill="currentColor">
	<path d="M150,5.1l125.5,72.4v144.9L150,294.9L24.5,222.4V77.6L150,5.1 M150,0L20.1,75v150L150,300l129.9-75V75L150,0L150,0z"/>
</g>
<g fill="currentColor">
	<path d="M47.9,89.4h5l11.3,33.1h-4.8l-2.9-8.6H44.2l-2.9,8.6h-4.8L47.9,89.4z M45.7,109.3h9.2l-4.6-13.6L45.7,109.3z"/>
	<path d="M87.5,122.5h-4.1l-0.5-1.8l-0.2-0.2l-0.2,0.2c-1.4,1.4-3.6,2.3-5.9,2.3c-5.9,0-10.9-4.5-10.9-11.1s5-11.1,10.9-11.1
		c2.2,0,4.5,0.9,5.9,2.3l0.2,0.2L83,103V88h4.5V122.5z M76.9,104.8c-4.3,0-6.6,3.2-6.6,7s2.3,7,6.6,7c3.9,0,6.6-3.2,6.6-7
		S80.7,104.8,76.9,104.8z"/>
	<path d="M105.7,101.2h4.5l-7.7,21.3h-4.1l-7.7-21.3h4.5l5.2,15.2L105.7,101.2z"/>
	<path d="M133.4,122.5h-4.1l-0.5-1.8l-0.2-0.2l-0.2,0.2c-1.4,1.4-3.6,2.3-5.9,2.3c-5.9,0-10.9-4.5-10.9-11.1s5-11.1,10.9-11.1
		c2.3,0,4.5,0.9,5.9,2.3l0.2,0.2l0.2-0.2l0.5-1.8h4.1V122.5z M122.7,104.8c-4.3,0-6.6,3.2-6.6,7s2.3,7,6.6,7c3.9,0,6.6-3.2,6.6-7
		S126.6,104.8,122.7,104.8z"/>
	<path d="M138.8,101.2h4.1l0.5,1.8l0.2,0.2l0.2-0.2c0.9-1.4,3.2-2.3,5-2.3c5.4,0,8.6,3.6,8.6,8.6v13.2h-4.5v-13.2
		c-0.1-2.9-1.5-4.5-4.5-4.5c-2.7,0-4.9,2.2-5,4.8v12.9h-4.5v-21.3H138.8z"/>
	<path d="M172.1,118.9c2.7,0,4.8-1.8,5.5-3.6l3.5,2.3c-1.8,3.2-5,5.4-9.3,5.4c-5.7,0-10.9-4.5-10.9-11.1s5.2-11.1,10.9-11.1
		c4.3,0,7.5,2.3,9.3,5.4l-3.5,2.3c-0.7-1.8-2.8-3.6-5.5-3.6c-4.3,0-6.7,3.2-6.7,7S167.8,118.9,172.1,118.9z"/>
	<path d="M187.8,113c0,3.2,2.3,5.9,6.1,5.9c2.7,0,4.6-1.4,5.3-3.2l3.8,1.8c-1.8,3.2-5,5.4-9.3,5.4c-5.7,0-10.4-4.5-10.4-11.1
		s4.5-11.1,10.4-11.1c5.4,0,10,4.3,10,10.9l-0.5,1.4L187.8,113L187.8,113z M188,109h10.9c-0.2-2.4-2.5-4.2-5.2-4.2
		C190.5,104.8,188.7,106.6,188,109z"/>
	<path d="M227.9,122.5h-4.1l-0.5-1.8l-0.2-0.2l-0.2,0.2c-1.4,1.4-3.6,2.3-5.9,2.3c-5.9,0-10.9-4.5-10.9-11.1s5-11.1,10.9-11.1
		c2.2,0,4.5,0.9,5.9,2.3l0.2,0.2l0.2-0.2V88h4.5v34.5H227.9z M217.3,104.8c-4.3,0-6.6,3.2-6.6,7s2.3,7,6.6,7c3.9,0,6.6-3.2,6.6-7
		S221.1,104.8,217.3,104.8z"/>
</g>
<g fill="currentColor">
	<path d="M75.1,148.2l-9.7,7.8c5.9,0.3,10.2,4.7,10.2,10.6c0,5.2-4.3,10.7-10.9,10.7c-6.4,0-10.9-4.8-10.9-10.2h4.5
		c0,3.4,2.7,5.9,6.4,5.9c3.6,0,6.4-2.9,6.4-6.4c0-4.1-2.9-6.6-6.8-6.6h-4.6v-4.1l9.3-7.8H55.1v-4.5h17.2L75.1,148.2z"/>
	<path d="M81,143.7h7.5c9.8,0,17,6.8,17,16.6s-7.3,16.6-17,16.6H81V143.7z M85.7,148.2v24h2.9c7.5,0,12-4.5,12-12s-4.5-12-12-12
		H85.7z"/>
	<path d="M120.9,155.5h4.1l0.4,1.8l0.3,0.2l0.2-0.2c1.4-1.4,3.6-2.3,5.9-2.3c5.9,0,10.9,4.5,10.9,11.1s-5,11.1-10.9,11.1
		c-2.2,0-4.5-0.9-5.9-2.3l-0.2-0.2l-0.3,0.2v11.4h-4.5V155.5z M131.6,173.2c4.3,0,6.6-3.2,6.6-7c0-3.9-2.3-7-6.6-7
		c-3.9,0-6.6,3.2-6.6,7C125,170,127.7,173.2,131.6,173.2z"/>
	<path d="M146.7,155.5h4.1l0.5,2.3l0.2,0.2l0.2-0.2c1.4-1.8,3.2-2.7,5-2.7c0.9,0,1.4,0,2.3,0.5v4.1h-2.7c-2.7,0-4.9,2.2-5,4.8v12.4
		h-4.5v-21.4L146.7,155.5L146.7,155.5z"/>
	<path d="M162.2,146.4h4.5v5h-4.5V146.4z M162.2,155.5h4.4v21.3h-4.4V155.5z"/>
	<path d="M172.1,155.5h4.1l0.5,1.8l0.2,0.2l0.2-0.2c0.9-1.4,3.2-2.3,5-2.3c5.4,0,8.6,3.6,8.6,8.6v13.2h-4.5v-13.2
		c-0.1-2.9-1.5-4.5-4.5-4.5c-2.7,0-4.9,2.2-5,4.8v12.9h-4.5v-21.3H172.1z"/>
	<path d="M193.2,155.5h4.2V151l3.6-4.5h0.9v9.1h4.6v4.1h-4.6v10.9c0,1.4,1,2.3,2.3,2.3l2.7-0.5v4.1l-2.5,0.5c-4.5,0-7-2.3-7-6.4
		v-10.9h-4.2V155.5z"/>
	<path d="M210.9,146.4h4.5v5h-4.5V146.4z M211,155.5h4.4v21.3H211V155.5z"/>
	<path d="M220.9,155.5h4.1l0.5,1.8l0.2,0.2l0.2-0.2c0.9-1.4,3.2-2.3,5-2.3c5.4,0,8.6,3.6,8.6,8.6v13.2H235v-13.2
		c-0.1-2.9-1.5-4.5-4.5-4.5c-2.7,0-4.9,2.2-5,4.8v12.9H221v-21.3H220.9z"/>
	<path d="M264.9,177.3c0,6-4.8,9.3-10.4,9.3c-5.4,0-9.8-3-10.4-7.6l4.3-1.4c0.2,3,2.7,4.9,5.9,4.9c3.4,0,6.2-1.8,6.2-5v-3.2
		l-0.3-0.2l-0.2,0.2c-1.4,1.4-3.7,2.3-5.9,2.3c-5.9,0-10.6-4.2-10.6-10.8s4.7-10.8,10.6-10.8c2.3,0,4.5,0.9,5.9,2.3l0.2,0.2l0.3-0.2
		l0.4-1.8h4.1v21.8H264.9z M254.5,159.1c-4.1,0-6.6,2.9-6.6,6.7c0,3.9,2.5,6.7,6.6,6.7c3.6,0,6.4-2.7,6.4-6.7
		C260.8,161.8,258.1,159.1,254.5,159.1z"/>
</g>
<g fill="currentColor">
	<path d="M152.6,209.8h5.9L148.2,220l10.7,11.1H153l-9-9.1v9.1h-4.5v-34.5h4.5v21.8L152.6,209.8z"/>
	<path d="M161.2,200.7h4.5v5h-4.5V200.7z M161.2,209.8h4.4v21.3h-4.4V209.8z"/>
	<path d="M168.9,209.8h4.2v-4.5l3.6-4.5h0.9v9.1h4.6v4.1h-4.6v10.9c0,1.4,1,2.3,2.3,2.3l2.7-0.5v4.1l-2.5,0.5c-4.5,0-7-2.3-7-6.4
		V214h-4.2V209.8z"/>
</g>
</svg>
