<?xml version="1.0" encoding="utf-8"?>
<!-- Generator: Adobe Illustrator 21.1.0, SVG Export Plug-In . SVG Version: 6.00 Build 0)  -->
<svg version="1.1" id="Laag_1" xmlns="http://www.w3.org/2000/svg" xmlns:xlink="http://www.w3.org/1999/xlink" x="0px" y="0px"
	 viewBox="0 0 120 120" style="enable-background:new 0 0 120 120;" xml:space="preserve">
<path fill="currentColor" d="M60,64.7c-16.5,0-29.8-13.4-29.8-29.8C30.2,18.4,43.5,5.1,60,5.1s29.8,13.4,29.8,29.8C89.8,51.4,76.5,64.7,60,64.7z
	 M60,15.1c-11,0-19.8,8.9-19.8,19.8c0,11,8.9,19.8,19.8,19.8s19.8-8.9,19.8-19.8C79.8,24,70.9,15.1,60,15.1z"/>
<path fill="currentColor" d="M115,114.9H5v-5c0-16.6,13.4-30,30-30l0,0h50c16.6,0,30,13.4,30,30l0,0V114.9z M15.6,104.9h88.7c-2.3-8.8-10.2-15-19.4-15
	H35C25.9,89.9,17.9,96.1,15.6,104.9z"/>
</svg>
