<?xml version="1.0" encoding="utf-8"?>
<!-- Generator: Adobe Illustrator 21.1.0, SVG Export Plug-In . SVG Version: 6.00 Build 0)  -->
<svg version="1.1" id="Laag_1" xmlns="http://www.w3.org/2000/svg" xmlns:xlink="http://www.w3.org/1999/xlink" x="0px" y="0px"
	 viewBox="0 0 120 120" style="enable-background:new 0 0 120 120;" xml:space="preserve">
<path fill="currentColor" d="M60.1,20c22.1,0,40,17.9,40,40s-17.9,40-40,40H34.2l4.7-4.7l-7.1-6.9c-15.6-15.6-15.7-40.9-0.1-56.6
	C39.2,24.2,49.5,20,60.1,20 M60.1,10c-27.6,0-50,22.3-50.1,49.9c0,13.3,5.3,26.1,14.7,35.5L10,110h50c27.6,0,50-22.4,50-50
	C110.2,32.4,87.7,10,60.1,10L60.1,10z"/>
</svg>
