<?xml version="1.0" encoding="utf-8"?>
<!-- Generator: Adobe Illustrator 21.1.0, SVG Export Plug-In . SVG Version: 6.00 Build 0)  -->
<svg version="1.1" id="Laag_1" xmlns="http://www.w3.org/2000/svg" xmlns:xlink="http://www.w3.org/1999/xlink" x="0px" y="0px"
	 viewBox="0 0 120 120" style="enable-background:new 0 0 120 120;" xml:space="preserve">
<g>
	<path fill="currentColor" d="M114.8,94.8H5.1V70.1c0-3.7,0.8-7.2,2.5-10.3c4.7-9.1,14.8-13.6,24.4-11.7C35.7,37,44.9,28.6,56.6,26
		c8.8-2,17.8-0.4,25.4,4.4c6.5,4.1,11.3,10.2,13.8,17.4c10.8,1.6,19.1,11,19.1,22.3v24.7H114.8z M15.1,84.8h89.7V70.1
		c0-6.9-5.6-12.5-12.5-12.5h-4.5l-0.9-3.9c-1.4-6.2-5-11.4-10.4-14.8c-5.3-3.4-11.7-4.5-17.8-3.1c-9.6,2.2-16.8,9.8-18.3,19.6
		l-1.1,6.8L33.1,59c-6-3.1-13.5-0.7-16.7,5.4c-0.9,1.7-1.3,3.6-1.3,5.7C15.1,70.1,15.1,84.8,15.1,84.8z"/>
</g>
</svg>
