<svg xmlns="http://www.w3.org/2000/svg" viewBox="0 0 120 120">
    <path fill="currentColor" d="M104.8 43.9c-5 0-9 4-9 9v-.7l-24 3.6c-.9-3.4-3-6.3-5.7-8.4l8.2-14.1a9 9 0 0 0 11.3-5.9 9 9 0 0 0-8.5-11.7A9 9 0 0 0 71 31.3l-8.2 14.1c-1.9-.8-4-1.3-6.3-1.3-3.6 0-7 1.2-9.6 3.3L22.7 22.5a9 9 0 0 0-7.6-13.9c-5 0-9 4-9 9s4 9 9 9c1.7 0 3.3-.5 4.7-1.3L44 50.1a16.2 16.2 0 0 0 2.1 22.2L32 93.9a9 9 0 0 0-11.5 5.4c-1.7 4.7.7 9.8 5.4 11.5s9.8-.7 11.5-5.4c1.2-3.2.4-6.9-2-9.3l14.2-21.6c5.4 2.7 11.9 2 16.7-1.7l10.4 10.6a9 9 0 0 0 7.6 13.9c5 0 9-4 9-9s-4-9-9-9c-1.7 0-3.3.5-4.7 1.3L69.1 70c2.2-2.7 3.5-6.2 3.5-9.9v-.4l23.8-3.6a9 9 0 0 0 8.4 5.8c5 0 9-4 9-9s-4-9-9-9zM77.2 19.7c2.8 0 5 2.2 5 5s-2.2 5-5 5-5-2.2-5-5 2.2-5 5-5zm-62.1 2.9a5 5 0 0 1-5-5 5 5 0 0 1 5-5 5 5 0 0 1 5 5 5 5 0 0 1-5 5zm13.8 84.7c-2.8 0-5-2.2-5-5s2.2-5 5-5 5 2.2 5 5-2.2 5-5 5zm55.3-24c2.8 0 5 2.2 5 5s-2.2 5-5 5-5-2.2-5-5 2.2-5 5-5zM56.5 72.1a12 12 0 0 1-12-12c0-6.6 5.4-12 12-12s12 5.4 12 12a12 12 0 0 1-12 12zm48.3-14.2a5 5 0 0 1-5-5 5 5 0 0 1 5-5 5 5 0 0 1 5 5 5 5 0 0 1-5 5z"/>
</svg>
