<svg xmlns="http://www.w3.org/2000/svg" viewBox="0 0 120 120">
    <g fill="currentColor">
        <path
            d="M114.3 87.1a12 12 0 0 1-8.6 4H14.3a12 12 0 0 1-8.6-4h108.6m5.7-4H0v.8c0 4.6 6.3 11.2 14.3 11.2h91.4c8 0 14.3-6.7 14.3-11.2v-.8z"/>
        <path d="M106 28.9v54.2H14V28.9h92m4-4H10v62.2h100V24.9z"/>
        <path
            d="M60.5 60.5h11.8v6.6H60.5c-7.7 0-12.5-5.3-12.5-12.8s4.7-12.7 12.5-12.7h11.8v6.6H60.5c-3.9 0-5.9 2.8-5.9 6.1 0 3.4 2 6.2 5.9 6.2m-8.2-27.6L36.9 48.5v30.6h30.7l15.6-15.6V32.9H52.3z"/>
    </g>
</svg>
