<svg xmlns="http://www.w3.org/2000/svg" viewBox="0 0 120 120">
    <g fill="currentColor">
        <path
            d="M84 17.3c.5 0 .9.4.9.8v42.1c0 .5-.3.8-.8.8H36c-.5 0-.8-.3-.8-.8V18.1c0-.5.3-.8.8-.8h48m0-4H36c-2.6-.1-4.7 2-4.8 4.6v42.3c0 2.7 2.1 4.8 4.8 4.8h48.1c2.7 0 4.8-2.1 4.8-4.8V18.1a5.1 5.1 0 0 0-4.9-4.8z"/>
        <path
            d="M80.4 4v6.2c0 5.4 4.2 9.6 9.6 9.6h18.6l.1.1v.3l-.1.2L92.5 62l-.1.2c-.1.3-.6.6-1 .6h-3.5L86 61.6a4 4 0 0 0-2.1-.6h-48c-.8 0-1.5.2-2.2.6l-1.8 1.1h-3.6c-.4 0-.9-.3-1-.8l-16-41.8v-.3l.2-.1H30c5.4 0 9.6-4.2 9.6-9.6V4h40.8m4-4H35.5v10.2c0 3.1-2.4 5.6-5.6 5.6H11c-2.4.3-4 2.5-3.7 4.8 0 .4.1.7.3 1.1l16 41.8c.8 2 2.7 3.3 4.8 3.3h4.8L36 65h47.9l2.9 1.8h4.7a5 5 0 0 0 4.8-3.3l16.2-41.7c1-2.2 0-4.7-2.2-5.7-.4-.2-.7-.3-1.1-.3H90c-3 .1-5.5-2.4-5.6-5.4V0zM49.2 99.2H23.7v-3h22.5V74.4h3v24.8zm-25.5 4h47.9v3H23.7v-3zm0 6.9h47.9v3H23.7v-3zm0 6.9h47.9v3H23.7v-3z"/>
        <path d="M68.1 64.9l3.9 3.8 3.8-3.8h-7.7zm-14.7-.2H42l-.4.3 6 5.9 6.1-5.9z"/>
    </g>
</svg>
