<?xml version="1.0" encoding="utf-8"?>
<!-- Generator: Adobe Illustrator 22.0.1, SVG Export Plug-In . SVG Version: 6.00 Build 0)  -->
<svg version="1.1" id="Laag_1" xmlns="http://www.w3.org/2000/svg" xmlns:xlink="http://www.w3.org/1999/xlink" x="0px" y="0px"
	 viewBox="0 0 120 120" style="enable-background:new 0 0 120 120;" xml:space="preserve">
<title>facebook</title>
<path fill="currentColor" d="M104.5,10h-89c-3,0-5.5,2.5-5.5,5.5v89c0,3,2.5,5.5,5.5,5.5h47.9V71.3h-13V56.2h13V45.1
	c0-12.9,7.9-19.9,19.4-19.9c5.5,0,10.3,0.4,11.6,0.6v13.5l-8,0c-6.3,0-7.5,3-7.5,7.3v9.6h14.9L92,71.3H79V110h25.5
	c3,0,5.5-2.5,5.5-5.5v-89C110,12.5,107.5,10,104.5,10z"/>
</svg>
