<?xml version="1.0" encoding="utf-8"?>
<!-- Generator: Adobe Illustrator 21.1.0, SVG Export Plug-In . SVG Version: 6.00 Build 0)  -->
<svg version="1.1" id="Laag_1" xmlns="http://www.w3.org/2000/svg" xmlns:xlink="http://www.w3.org/1999/xlink" x="0px" y="0px"
	 viewBox="0 0 120 120" style="enable-background:new 0 0 120 120;" xml:space="preserve">
<path fill="currentColor" d="M60,5C29.6,5,5,29.6,5,60s24.6,55,55,55s55-24.6,55-55C115,29.6,90.4,5,60,5z M104.7,55H89.9c-0.6-11.7-3.2-23.2-7.6-34.1
	C94.8,28,103.1,40.7,104.7,55L104.7,55z M69.1,15.9C75.6,29.1,79.2,42,80,55H40.1c0.7-13,4.3-26,10.8-39.1
	C56.9,14.7,63.1,14.7,69.1,15.9z M37.8,20.9c-4.4,10.9-7,22.4-7.6,34.1H15.3C16.9,40.7,25.3,28,37.8,20.9L37.8,20.9z M15.3,65h14.9
	c0.6,11.7,3.2,23.2,7.6,34.1C25.3,92,16.9,79.3,15.3,65L15.3,65z M50.9,104.1C44.4,91,40.8,78,40.1,65H80c-0.7,13-4.4,26-10.9,39.1
	C63.1,105.3,56.9,105.3,50.9,104.1z M82.3,99.1c4.4-10.9,7-22.4,7.6-34.1h14.8C103.1,79.3,94.8,92,82.3,99.1L82.3,99.1z"/>
</svg>
