<?xml version="1.0" encoding="utf-8"?>
<!-- Generator: Adobe Illustrator 22.0.1, SVG Export Plug-In . SVG Version: 6.00 Build 0)  -->
<svg version="1.1" id="Laag_1" xmlns="http://www.w3.org/2000/svg" xmlns:xlink="http://www.w3.org/1999/xlink" x="0px" y="0px"
	 viewBox="0 0 120 120" style="enable-background:new 0 0 120 120;" xml:space="preserve">
	<path fill="currentColor" d="M89.5,21c2.3,0.9,4,2,5.7,3.7s2.8,3.4,3.7,5.7c0.7,1.8,1.5,4.4,1.7,9.3c0.2,5.3,0.3,6.9,0.3,20.2s-0.1,14.9-0.3,20.2
		c-0.2,4.9-1,7.5-1.7,9.3c-0.9,2.3-2,4-3.7,5.7s-3.4,2.8-5.7,3.7c-1.8,0.7-4.4,1.5-9.3,1.7c-5.3,0.2-6.9,0.3-20.2,0.3
		s-14.9-0.1-20.2-0.3c-4.9-0.2-7.5-1-9.3-1.7c-2.3-0.9-4-2-5.7-3.7s-2.8-3.4-3.7-5.7c-0.7-1.8-1.5-4.4-1.7-9.3
		C19.1,74.9,19,73.4,19,60s0.1-14.9,0.3-20.2c0.2-4.9,1-7.5,1.7-9.3c0.9-2.3,2-4,3.7-5.7s3.4-2.8,5.7-3.7c1.8-0.7,4.4-1.5,9.3-1.7
		C45.1,19.1,46.6,19,60,19 M60,19 M60,10c-13.6,0-15.3,0.1-20.6,0.3s-9,1.1-12.1,2.3c-3.3,1.3-6.1,3-8.9,5.8s-4.5,5.6-5.8,8.9
		c-1.2,3.2-2.1,6.8-2.3,12.1c-0.2,5.3-0.3,7-0.3,20.6s0.1,15.3,0.3,20.6c0.2,5.3,1.1,9,2.3,12.1c1.3,3.3,3,6.1,5.8,8.9
		s5.6,4.5,8.9,5.8c3.2,1.2,6.8,2.1,12.1,2.3c5.3,0.2,7,0.3,20.6,0.3s15.3-0.1,20.6-0.3c5.3-0.2,9-1.1,12.1-2.3
		c3.3-1.3,6.1-3,8.9-5.8s4.5-5.6,5.8-8.9c1.2-3.2,2.1-6.8,2.3-12.1c0.2-5.3,0.3-7,0.3-20.6s-0.1-15.3-0.3-20.6
		c-0.2-5.3-1.1-9-2.3-12.1c-1.3-3.3-3-6.1-5.8-8.9s-5.6-4.5-8.9-5.8c-3.2-1.2-6.8-2.1-12.1-2.3S73.6,10,60,10L60,10z"/>
	<path fill="currentColor" d="M60,34.3c-14.2,0-25.7,11.5-25.7,25.7S45.8,85.7,60,85.7S85.7,74.2,85.7,60S74.2,34.3,60,34.3z M60,76.7
		c-9.2,0-16.7-7.5-16.7-16.7S50.8,43.3,60,43.3S76.7,50.8,76.7,60S69.2,76.7,60,76.7z"/>
	<circle fill="currentColor" cx="86.7" cy="33.3" r="6"/>
</svg>
