<svg xmlns="http://www.w3.org/2000/svg" viewBox="0 0 120 120"><g fill="currentColor"><path d="M60 19c13.4 0 14.9.1 20.2.3 4.9.2 7.5 1 9.3 1.7 2.3.9 4 2 5.7 3.7 1.7 1.7 2.8 3.4 3.7 5.7.7 1.8 1.5 4.4 1.7 9.3.2 5.3.3 6.9.3 20.2s-.1 14.9-.3 20.2c-.2 4.9-1 7.5-1.7 9.3-.9 2.3-2 4-3.7 5.7-1.7 1.7-3.4 2.8-5.7 3.7-1.8.7-4.4 1.5-9.3 1.7-5.3.2-6.9.3-20.2.3s-14.9-.1-20.2-.3c-4.9-.2-7.5-1-9.3-1.7-2.3-.9-4-2-5.7-3.7-1.7-1.7-2.8-3.4-3.7-5.7-.7-1.8-1.5-4.4-1.7-9.3-.3-5.2-.4-6.7-.4-20.1s.1-14.9.3-20.2c.2-4.9 1-7.5 1.7-9.3.9-2.3 2-4 3.7-5.7 1.7-1.7 3.4-2.8 5.7-3.7 1.8-.7 4.4-1.5 9.3-1.7 5.4-.3 6.9-.4 20.3-.4m0-9c-13.6 0-15.3.1-20.6.3-5.3.2-9 1.1-12.1 2.3-3.3 1.3-6.1 3-8.9 5.8-2.8 2.8-4.5 5.6-5.8 8.9-1.2 3.2-2.1 6.8-2.3 12.1-.2 5.3-.3 7-.3 20.6 0 13.6.1 15.3.3 20.6.2 5.3 1.1 9 2.3 12.1 1.3 3.3 3 6.1 5.8 8.9 2.8 2.8 5.6 4.5 8.9 5.8 3.2 1.2 6.8 2.1 12.1 2.3 5.3.2 7 .3 20.6.3s15.3-.1 20.6-.3c5.3-.2 9-1.1 12.1-2.3 3.3-1.3 6.1-3 8.9-5.8 2.8-2.8 4.5-5.6 5.8-8.9 1.2-3.2 2.1-6.8 2.3-12.1.2-5.3.3-7 .3-20.6s-.1-15.3-.3-20.6c-.2-5.3-1.1-9-2.3-12.1-1.3-3.3-3-6.1-5.8-8.9-2.8-2.8-5.6-4.5-8.9-5.8-3.2-1.2-6.8-2.1-12.1-2.3-5.3-.2-7-.3-20.6-.3z"/><path d="M60 34.3a25.7 25.7 0 1 0 0 51.4 25.7 25.7 0 1 0 0-51.4zm0 42.4c-9.2 0-16.7-7.5-16.7-16.7S50.8 43.3 60 43.3 76.7 50.8 76.7 60 69.2 76.7 60 76.7z"/><circle cx="86.7" cy="33.3" r="6"/></g></svg>
