<?xml version="1.0" encoding="utf-8"?>
<!-- Generator: Adobe Illustrator 21.1.0, SVG Export Plug-In . SVG Version: 6.00 Build 0)  -->
<svg version="1.1" id="Laag_1" xmlns="http://www.w3.org/2000/svg" xmlns:xlink="http://www.w3.org/1999/xlink" x="0px" y="0px"
	 viewBox="0 0 120 120" style="enable-background:new 0 0 120 120;" xml:space="preserve">
<path fill="currentColor" d="M60.4,110.3L14.1,64C2.3,52.5,2,33.7,13.5,21.9c11.5-11.8,30.4-12,42.1-0.5c0.2,0.2,0.4,0.4,0.5,0.5l4.1,4.1l4.1-4.1
	c11.6-11.6,30.5-11.6,42.1,0l0,0c11.6,11.6,11.6,30.5,0,42.1L60.4,110.3z M35.2,23.2c-10.9,0-19.8,8.8-19.8,19.8
	c0,5.3,2.1,10.3,5.8,14l39.2,39.2L99.6,57c7.8-7.7,7.9-20.2,0.3-28c-7.7-7.8-20.2-7.9-28-0.3c-0.1,0.1-0.2,0.2-0.3,0.3L60.4,40.2
	L49.2,29C45.5,25.2,40.4,23.2,35.2,23.2z"/>
</svg>
