<?xml version="1.0" encoding="utf-8"?>
<!-- Generator: Adobe Illustrator 21.1.0, SVG Export Plug-In . SVG Version: 6.00 Build 0)  -->
<svg version="1.1" id="Laag_1" xmlns="http://www.w3.org/2000/svg" xmlns:xlink="http://www.w3.org/1999/xlink" x="0px" y="0px"
	 viewBox="0 0 120 120" style="enable-background:new 0 0 120 120;" xml:space="preserve">
<path fill="currentColor" d="M59.9,116l-31-31.1C9.9,67.8,8.3,38.4,25.5,19.4C42.7,0.3,72-1.2,91.1,15.9s20.6,46.5,3.4,65.6c-1.1,1.2-2.2,2.4-3.4,3.4
	L59.9,116z M59.9,14c-20.1,0-36.4,16.3-36.4,36.4c0,10.4,4.4,20.2,12.1,27.1l0.2,0.2l24.1,24.1l24.3-24.3
	c15-13.4,16.3-36.4,2.9-51.4C80.2,18.4,70.3,14,59.9,14L59.9,14z"/>
<path fill="currentColor" d="M59.9,71.5c-9.7,0-17.5-7.8-17.5-17.5s7.8-17.5,17.5-17.5S77.4,44.3,77.4,54l0,0C77.4,63.6,69.6,71.5,59.9,71.5z M59.9,46.5
	c-4.1,0-7.5,3.4-7.5,7.5s3.4,7.5,7.5,7.5s7.5-3.4,7.5-7.5C67.4,49.8,64.1,46.5,59.9,46.5z"/>
</svg>
