<?xml version="1.0" encoding="UTF-8" standalone="no"?>
<svg  width="675px" height="100px" viewBox="0 0 675 100" version="1.1" xmlns="http://www.w3.org/2000/svg" xmlns:xlink="http://www.w3.org/1999/xlink">
    <!-- Generator: Sketch 42 (36781) - http://www.bohemiancoding.com/sketch -->
    <title>logo-ultimaker</title>
    <!--<g id="Page-1" stroke="none" stroke-width="1" fill="none" >-->
        <g id="logo-ultimaker"  >
            <path fill="currentColor" d="M344.297378,37.0193919 L361.836173,86.0626351 C363.59039,91.0633108 360.89227,96.4673649 356.034439,98.2241216 C355.090535,98.0876351 354.280896,98.6288514 352.932173,98.6288514 C348.884655,98.6288514 345.241957,96.3315541 343.892559,92.2788514 L331.503065,57.2261486 L316.910005,92.2788514 C316.045716,94.875473 313.947402,96.7153378 311.496896,97.5612838 C310.61439,98.0788514 309.514631,98.0876351 308.410824,98.0876351 C306.34692,98.0876351 304.326872,97.350473 302.717716,96.0714189 C300.821137,94.7322297 299.575643,92.6747973 299.131017,90.404527 L285.391451,57.4011486 L273.063354,92.2788514 C271.714631,95.9261486 268.071933,98.6288514 264.024414,98.6288514 C263.080511,98.6288514 261.731113,98.6288514 260.921475,98.2241216 C255.929378,96.4673649 253.771017,91.0633108 255.120414,86.0626351 L271.209282,41.0727703 L264.024414,41.0727703 C260.381716,41.0727703 257.683595,38.3700676 257.683595,34.7227703 C257.683595,31.0741216 260.381716,28.3720946 264.024414,28.3720946 L281.809475,28.3720946 C282.703451,28.1085811 283.660848,27.9673649 284.666149,27.9673649 C290.06239,27.9673649 295.054487,31.0747973 296.808029,36.0741216 L308.410824,63.8829054 L320.013619,36.0741216 C321.767161,31.0747973 326.759258,27.9673649 332.155499,27.9673649 C334.566872,27.9673649 336.704993,28.7808784 338.337089,30.1579054 C341.06827,31.679527 343.255643,34.1315541 344.297378,37.0193919 Z M137.969629,1.5025 C143.479894,1.67817568 146.920183,4.77817568 146.920183,10.9430405 L146.920183,89.5761486 C146.920183,95.9261486 143.277484,99.0342568 137.476424,99.0342568 C131.674689,99.0342568 128.03199,95.9261486 128.03199,89.5761486 L128.03199,14.0511486 L126.143508,14.0511486 C122.50081,14.0511486 119.802689,11.3491216 119.802689,7.70047297 C119.802689,4.05317568 122.50081,1.35047297 126.143508,1.35047297 L136.531846,1.35047297 C137.031123,1.35047297 137.510159,1.4052027 137.969629,1.5025 Z M229.891402,0.675405405 C235.288318,0.675405405 239.739981,5.13418919 239.739981,10.5382432 C239.739981,15.9422973 235.288318,20.4010811 229.891402,20.4010811 C224.494487,20.4010811 220.042824,15.9422973 220.042824,10.5382432 C220.042824,5.13418919 224.494487,0.675405405 229.891402,0.675405405 Z M229.891402,27.1567568 C237.04186,27.1567568 239.335161,31.6148649 239.335161,36.6141892 L239.335161,89.1709459 C239.335161,94.1695946 237.04186,98.6290541 229.891402,98.6290541 C222.740945,98.6290541 220.447643,94.1695946 220.447643,89.1709459 L220.447643,36.6141892 C220.447643,31.6148649 222.740945,27.1567568 229.891402,27.1567568 Z M471.790352,1.08054054 C477.591412,1.08054054 481.234111,4.18797297 481.234111,10.537973 L481.234111,74.8494595 L481.234111,89.1710811 C481.234111,95.5210811 477.591412,98.6291892 471.790352,98.6291892 C465.988617,98.6291892 462.345918,95.5210811 462.345918,89.1710811 L462.345918,14.0508108 L459.647798,14.0508108 C456.005099,14.0508108 453.306978,11.3487838 453.306978,7.70081081 C453.306978,4.05283784 456.005099,1.35013514 459.647798,1.35013514 L469.071316,1.35013514 C469.914689,1.17581081 470.81946,1.08054054 471.790352,1.08054054 Z M505.518072,56.8798649 L525.215229,83.3609459 C525.620048,84.3068919 526.969446,86.4690541 526.969446,89.7116216 C526.969446,94.7109459 522.921928,99.1683784 517.929831,99.1683784 C513.478169,99.1683784 510.780048,96.8724324 509.430651,94.7109459 L491.487036,69.04 C491.621976,68.9048649 486.225735,63.5008108 486.225735,57.6906757 C486.225735,52.2866216 489.328675,49.1791892 489.328675,49.1791892 L505.923566,30.8041892 C507.677108,28.5075676 510.375229,27.1568919 513.073349,27.1568919 C517.525687,27.1568919 522.112964,30.8041892 522.112964,35.6677027 C522.112964,39.3163514 520.763566,40.1264865 519.414843,42.0183784 L505.518072,56.8798649 Z M103.748096,86.3334459 C107.390795,86.3334459 110.088916,89.0361486 110.088916,92.6834459 C110.088916,96.3314189 107.390795,99.0341216 103.748096,99.0341216 L97.4072771,99.0341216 C93.7645783,99.0341216 91.0664578,96.3314189 91.0664578,92.6834459 L91.0664578,92.5834459 C84.287759,97.2314189 75.2467952,99.4388514 64.4887229,99.4388514 C39.7994699,99.4388514 24.1491566,87.8192568 24.1491566,61.7442568 L24.1491566,14.0510135 L6.34115663,14.0510135 C2.69845783,14.0510135 -0.000337349398,11.3489865 -0.000337349398,7.70101351 C-0.000337349398,4.05304054 2.69845783,1.35033784 6.34115663,1.35033784 L31.1720964,1.35033784 C32.0147952,1.17939189 32.9080964,1.08074324 33.8627952,1.08074324 C40.2042892,1.08074324 44.6559518,5.53885135 44.6559518,11.889527 L44.6559518,63.635473 C44.6559518,76.6057432 51.8064096,82.010473 63.9489639,82.010473 C76.0908434,82.010473 83.2413012,76.2003378 83.2413012,63.635473 L83.2413012,11.889527 C83.2413012,5.53885135 87.2888193,1.08074324 94.0344578,1.08074324 C100.375277,1.08074324 104.827614,5.53885135 104.827614,11.889527 L104.827614,61.7442568 C104.827614,65.7334459 104.457205,69.3807432 103.748096,72.7037162 L103.748096,86.3334459 Z M195.353976,28.5074324 C200.750217,28.5074324 203.853157,30.2641892 203.853157,34.8574324 C203.853157,39.4513514 200.750217,41.2074324 195.353976,41.2074324 L189.552241,41.2074324 L189.552241,82.0108108 L189.552241,89.7121622 C189.552241,96.0621622 185.909542,99.1689189 180.108482,99.1689189 C174.307422,99.1689189 170.664723,96.0621622 170.664723,89.7121622 L170.664723,41.4777027 L170.259904,41.4777027 C166.617205,41.4777027 163.919084,38.7756757 163.919084,35.1277027 C163.919084,31.4797297 166.617205,28.7777027 170.259904,28.7777027 L170.664723,28.7777027 L170.664723,16.8885135 C170.664723,10.5378378 174.307422,7.43108108 180.108482,7.43108108 C185.909542,7.43108108 189.552241,10.5378378 189.552241,16.8885135 L189.552241,28.5074324 L195.353976,28.5074324 Z M674.698795,36.0738514 C674.698795,36.1657432 674.689349,36.2549324 674.685976,36.345473 C674.688,36.4360135 674.698795,36.5231757 674.698795,36.6143919 C674.698795,41.4779054 670.651277,43.3697973 665.255036,43.3697973 L655.503614,43.3697973 L645.962699,50.5812838 L645.962699,74.849527 L645.962699,89.170473 C645.962699,95.5211486 642.32,98.6292568 636.518265,98.6292568 C630.717205,98.6292568 627.074506,95.5211486 627.074506,89.170473 L627.074506,39.7211486 L624.376386,39.7211486 C620.734361,39.7211486 618.035566,37.0191216 618.035566,33.3711486 C618.035566,29.7238514 620.734361,27.0218243 624.376386,27.0218243 L634.764723,27.0218243 C635.254554,27.0218243 635.726169,27.074527 636.177542,27.1677703 C636.292241,27.1650676 636.402217,27.1562838 636.518265,27.1562838 C641.209446,27.1562838 644.487133,29.1900676 645.570699,33.3252027 C646.845205,29.649527 650.234217,27.1569595 654.46188,27.1569595 L665.255036,27.1569595 C669.648675,27.1569595 673.146988,29.8441216 674.295325,33.7596622 C674.55306,34.4697973 674.698795,35.245473 674.698795,36.0738514 Z M440.355595,46.882027 L440.355595,78.7678378 C440.355595,86.8745946 442.244077,88.7658108 443.188655,91.8732432 C443.188655,95.9259459 439.141137,99.0340541 434.689475,99.0340541 C426.594439,99.0340541 423.895643,93.63 423.491499,87.8191892 C415.801282,96.3313514 407.302101,99.0340541 397.452848,99.0340541 C386.660366,99.0340541 375.86721,91.8732432 375.86721,79.7137838 C375.86721,64.0414865 388.009089,59.4475676 402.310005,57.6908108 C402.310005,57.6908108 409.460463,56.88 410.809186,62.6901351 C412.158583,68.4995946 406.762342,69.4455405 406.762342,69.4455405 C399.072125,70.7968919 394.619788,73.0935135 394.619788,78.902973 C394.619788,82.9563514 398.667306,86.6043243 405.008125,86.6043243 C415.262198,86.6043243 421.602342,79.8489189 421.602342,72.6874324 L421.602342,49.3144595 C421.602342,43.9104054 415.801282,42.9637838 409.460463,42.9637838 L403.119643,42.9637838 L385.176029,45.6664865 C380.183933,46.6124324 377.485812,42.5590541 377.485812,38.9110811 C377.485812,34.3171622 381.129186,32.1556757 385.176029,31.2097297 L401.77092,28.5077027 C426.458824,28.5077027 440.355595,32.9658108 440.355595,46.882027 Z M574.189118,27.1567568 C595.774757,27.1567568 608.32213,42.9641892 608.32213,58.6364865 C608.32213,64.9864865 606.567913,66.7432432 600.227094,66.7432432 L597.528973,66.7432432 L571.895817,66.7432432 L570.546419,66.7432432 L570.587576,66.5756757 C568.072299,65.95 566.094082,63.5932432 566.094082,60.9331081 C566.094082,57.8263514 568.792202,55.1243243 571.895817,55.1243243 L590.115383,55.1243243 C588.552781,46.5675676 582.334757,40.5324324 574.054178,40.5324324 C553.952202,40.5324324 557.054467,66.6081081 557.054467,66.6081081 C557.054467,77.0114865 563.395961,84.1722973 574.593937,84.1722973 L595.234998,81.0641892 C600.227094,80.1189189 602.925214,83.2256757 603.330034,86.8743243 C603.734853,92.2783784 599.687335,95.3864865 595.234998,96.3310811 L574.593937,99.0337838 C548.150467,99.0337838 538.302564,81.0641892 538.302564,64.4459459 C538.302564,42.0182432 551.793841,27.1567568 574.189118,27.1567568 Z"></path>
        </g>
    <!--</g>-->
</svg>
