<svg xmlns="http://www.w3.org/2000/svg" viewBox="0 0 120 120">
    <g fill="currentColor">
        <path
            d="M73.1 16c13 0 24 20.1 24 44s-11 44-24 44-24-20.1-24-44 11-44 24-44m0-4c-15.5 0-28 21.5-28 48s12.5 48 28 48 28-21.5 28-48-12.5-48-28-48z"/>
        <path
            d="M73.1 44.2c.7 0 3.1.3 5.6 4a23 23 0 0 1 2.7 11.6v.2c.1 4-.8 8-2.8 11.5-1.7 2.9-3.6 4.3-5.6 4.3-2.5 0-4.4-2.3-5.5-4.2A24.3 24.3 0 0 1 64.7 60v-.2c-.1-4 .8-8 2.8-11.6.7-1.2 1.7-2.4 2.7-3.1 1-.6 1.9-.9 2.9-.9m0-4c-1.8 0-3.5.6-5.1 1.6-1.6 1.1-3 2.8-4 4.5A27.2 27.2 0 0 0 60.7 60c-.1 4.8 1 9.5 3.3 13.7 2.3 3.9 5.4 6.2 9 6.2s6.7-2.2 9.1-6.3c2.3-4.2 3.4-8.9 3.3-13.7.1-4.8-1-9.5-3.3-13.7-3.3-5.1-7.1-6-9-6zM26.9 60h4v48h-4z"/>
        <path
            d="M47.1 60c0-17.1 5.3-32.1 13.2-40H46.9c-9.5 0-20 16.4-20 40s10.5 40 20 40h13.5c-7.9-7.9-13.3-22.9-13.3-40z"/>
        <path
            d="M22.9 60c0-23.9 11-44 24-44 4.8 0 9.3 2.7 13.1 7.4.9-1.1 1.8-2.1 2.8-2.9-4.5-5.3-10-8.4-15.9-8.4-15.5 0-28 21.5-28 48 0 9.1 1.5 17.5 4 24.8V60zM60 96.6c-3.8 4.6-8.3 7.4-13.1 7.4-4.3 0-8.4-2.2-12-6.1v5.5c3.6 3 7.7 4.6 12 4.6 5.9 0 11.4-3.1 15.9-8.4-1-.9-1.9-1.9-2.8-3z"/>
    </g>
</svg>
