<?xml version="1.0" encoding="utf-8"?>
<!-- Generator: Adobe Illustrator 21.1.0, SVG Export Plug-In . SVG Version: 6.00 Build 0)  -->
<svg version="1.1" id="Laag_1" xmlns="http://www.w3.org/2000/svg" xmlns:xlink="http://www.w3.org/1999/xlink" x="0px" y="0px"
	 viewBox="0 0 120 120" style="enable-background:new 0 0 120 120;" xml:space="preserve">
<path fill="currentColor" d="M47.5,99.6c0,6.9,5.6,12.5,12.5,12.5s12.5-5.6,12.5-12.5H47.5z"/>
<path fill="currentColor" d="M102.5,93.2h-85v-5c0-10.5,0-21.4,12.5-23.5V44.2C30,34,35.2,24.5,43.8,19c3.6-9,13.7-13.4,22.7-9.8c4.5,1.8,8,5.3,9.8,9.8
	C84.8,24.5,90,34,90,44.2v20.4c12.5,2.2,12.5,13,12.5,23.5V93.2z M27.6,83.2h64.9c-0.1-3-0.4-5.7-1.2-7.1c-0.3-0.6-1-1.9-6.2-1.9h-5
	v-30c0-7.3-3.9-14-10.3-17.5l-1.9-1l-0.5-2.1c-1-4-5.1-6.4-9.1-5.4c-2.6,0.7-4.7,2.7-5.4,5.4l-0.5,2.1l-1.9,1
	C44,30.2,40,36.9,40,44.2v30h-5C29.1,74.2,27.8,74.5,27.6,83.2L27.6,83.2z"/>
</svg>
