<?xml version="1.0" encoding="utf-8"?>
<svg xmlns="http://www.w3.org/2000/svg" viewBox="0 0 120 120">
    <g>
        <path d="M48 98c-21 0-38-17-38-38s17-38 38-38c11.8 0 22.7 5.3 30 14.6l7.9-6.1C76.7 18.7 62.9 12 48 12 21.5 12 0 33.5 0 60s21.5 48 48 48V98z"/>
        <path d="M89 77L60 48l7.1-7.1L89 62.8l21.9-21.9L118 48z"/>
        <path d="M21.1 86.9C6.3 72 6.3 48 21.1 33.1s38.9-14.8 53.7 0c8.3 8.3 12.3 19.8 10.9 31.5l9.9 1.3c1.8-14.8-3.2-29.3-13.7-39.9C63.2 7.3 32.8 7.3 14 26s-18.7 49.1 0 67.9l7.1-7z"/>
    </g>
</svg>
