<?xml version="1.0" encoding="utf-8"?>
<!-- Generator: Adobe Illustrator 21.1.0, SVG Export Plug-In . SVG Version: 6.00 Build 0)  -->
<svg version="1.1" id="Laag_1" xmlns="http://www.w3.org/2000/svg" xmlns:xlink="http://www.w3.org/1999/xlink" x="0px" y="0px"
	 viewBox="0 0 120 120" style="enable-background:new 0 0 120 120;" xml:space="preserve">
<style type="text/css">
	.st0{fill:none;stroke:#000000;stroke-width:10;stroke-miterlimit:10;}
</style>
<g>
	<path class="st0" d="M86.3,46.3"/>
</g>
<path d="M48,98c-21,0-38-17-38-38s17-38,38-38c11.8,0,22.7,5.3,30,14.6l7.9-6.1C76.7,18.7,62.9,12,48,12C21.5,12,0,33.5,0,60
	s21.5,48,48,48V98z"/>
<g>
	<path class="st0" d="M61.7,98.3"/>
</g>
<g>
	<polygon points="89,77 60,48 67.1,40.9 89,62.8 110.9,40.9 118,48 	"/>
</g>
<path d="M21.1,86.9C6.3,72,6.3,48,21.1,33.1s38.9-14.8,53.7,0c8.3,8.3,12.3,19.8,10.9,31.5l9.9,1.3c1.8-14.8-3.2-29.3-13.7-39.9
	c-18.7-18.7-49.1-18.7-67.9,0s-18.7,49.1,0,67.9L21.1,86.9z"/>
</svg>
