<svg data-name="Laag 1" xmlns="http://www.w3.org/2000/svg" viewBox="0 0 97.2 108">
    <g fill="currentColor">
        <path
            d="M48.6 4.6l40.6 23.6-40.6 23.7L8 28.3 48.6 4.6m0-4.6L0 28.3l48.6 28.2 48.6-28.3L48.6 0zM84 72.1l-4 2.3 9.2 5.3-40.6 23.7L8 79.7l9.2-5.3-4-2.3L0 79.7 48.6 108l48.6-28.3L84 72.1z"/>
        <path d="M84.4 61.6l-3.9 2.3 8.7 5.1-40.6 23.7L8 69l8.7-5.1-3.9-2.3L0 69l48.6 28.3L97.2 69l-12.8-7.4z"/>
        <path d="M84.4 51.4l-3.9 2.4 8.7 5-40.6 23.7L8 58.8l8.7-5-3.9-2.4L0 58.8l48.6 28.3 48.6-28.3-12.8-7.4z"/>
        <path d="M84.4 41.2l-3.9 2.4 8.7 5.1-40.6 23.6L8 48.7l8.7-5.1-3.9-2.4L0 48.7l48.6 28.2 48.6-28.2-12.8-7.5z"/>
        <path d="M84.4 31.1l-3.9 2.3 8.7 5.1-40.6 23.6L8 38.5l8.7-5.1-3.9-2.3L0 38.5l48.6 28.2 48.6-28.2-12.8-7.4z"/>
    </g>
</svg>
