
<svg width="49px" height="69px" viewBox="0 0 49 69" version="1.1" xmlns="http://www.w3.org/2000/svg" xmlns:xlink="http://www.w3.org/1999/xlink">
    <!-- Generator: Sketch 46.2 (44496) - http://www.bohemiancoding.com/sketch -->
    <g id="Symbols" stroke="none" stroke-width="1" fill="none" fill-rule="evenodd">
        <g id="footer" transform="translate(-30.000000, -15.000000)" fill="#000000">
            <g id="Robot">
                <g fill="currentColor" transform="translate(30.000000, 15.000000)">
                    <path d="M32.883619,7.68262592 C32.5717746,7.66675316 32.2711477,7.70983638 32.0019296,7.79940412 C31.7411245,7.88443679 31.5089238,8.01482022 31.3098146,8.17411475 C31.2997189,8.18375179 31.2856971,8.18942063 31.2756014,8.19735702 C31.2677492,8.2052934 31.2604579,8.21549732 31.251484,8.22286682 C31.1639881,8.29939622 31.0809791,8.38216135 31.0063833,8.47286287 C30.9962876,8.48533433 30.9867528,8.50120709 30.9777788,8.51481232 C30.9110352,8.60041187 30.8527046,8.69338092 30.8033479,8.78861751 C30.7983001,8.79825455 30.7904479,8.80619093 30.7837174,8.81752862 C30.7825957,8.82319747 30.7814739,8.83000008 30.7781087,8.83736958 C30.7259477,8.94564451 30.6861259,9.06015517 30.6547171,9.17920091 C30.6524736,9.19223925 30.6513518,9.20527759 30.6491084,9.21774905 C30.6227474,9.3401961 30.6064821,9.46717822 30.6064821,9.59642788 C30.6064821,9.87590192 30.6687388,10.1429045 30.7837174,10.3877986 C30.9009395,10.6343933 31.0697617,10.8583127 31.2756014,11.0476521 C31.4836846,11.2381253 31.7282244,11.3945854 32.0019296,11.5073954 C32.2711477,11.6168041 32.5717746,11.6836965 32.883619,11.6944673 C32.9727975,11.6973017 33.0614152,11.6944673 33.1489111,11.6870978 C33.175272,11.685964 33.2027547,11.6814289 33.23192,11.6802952 C33.2936158,11.6717919 33.3525073,11.6644224 33.4108379,11.6542185 C33.4394423,11.6479828 33.4663641,11.6428808 33.4949685,11.6383457 C33.5555426,11.6253074 33.6166776,11.607734 33.6755691,11.5907274 C33.6968822,11.5850586 33.7187561,11.578256 33.7406301,11.5714533 C33.7451171,11.5691858 33.7524084,11.5669183 33.7580171,11.5657845 C33.7709171,11.5612494 33.7810128,11.5561475 33.7916694,11.5499117 C34.0463049,11.4586433 34.2773838,11.3288268 34.4720061,11.1621628 C34.5651107,11.0822321 34.6475587,10.9932312 34.7243981,10.9002621 C34.8141375,10.7902866 34.8892942,10.6712408 34.95099,10.5442587 C35.0626034,10.3118361 35.1271036,10.052203 35.1271036,9.7778309 C35.1271036,9.50345882 35.0626034,9.23985755 34.95099,8.99666411 C34.8752724,8.83226762 34.7743156,8.68034258 34.6570936,8.53975523 C34.6554109,8.53862146 34.6554109,8.53635393 34.6531675,8.53522016 C34.5959586,8.46719402 34.5370671,8.40256919 34.4720061,8.34191256 C34.3704884,8.24780973 34.2583142,8.15994264 34.1382878,8.08227947 C34.0188222,8.0046163 33.8926262,7.93715705 33.7580171,7.87990172 C33.4904816,7.76652482 33.1949025,7.69849869 32.883619,7.68262592" id="Fill-23"></path>
                    <path d="M34.3177665,14.7488408 C34.2605577,14.6978212 34.1904488,14.6524704 34.115292,14.6218587 C34.0384527,14.5912469 33.9560046,14.5719728 33.867387,14.5708391 L22.7935471,14.2907981 C22.698199,14.286263 22.6095814,14.3021358 22.5260116,14.3293463 C22.4497331,14.355423 22.3818677,14.3962386 22.3224153,14.4438569 C22.3156849,14.4472582 22.3117588,14.4472582 22.3095153,14.4506595 C22.3061501,14.4517933 22.3061501,14.4540609 22.3039066,14.4563284 C22.2472586,14.5062142 22.2001454,14.5640364 22.1648105,14.629795 C22.1648105,14.6320626 22.1625671,14.6320626 22.1625671,14.6354639 C22.1592018,14.6388652 22.1603236,14.644534 22.1580801,14.6502029 C22.1266713,14.7159615 22.1087234,14.7862551 22.1087234,14.8627845 L22.1087234,15.4721853 C22.1087234,15.5538167 22.1255496,15.6297792 22.1625671,15.7023404 C22.1967802,15.7726341 22.2472586,15.8383927 22.3095153,15.8916799 C22.371772,15.9461008 22.4441244,15.9914515 22.5260116,16.0214964 C22.6095814,16.052675 22.698199,16.0708153 22.7935471,16.0719491 L33.867387,16.2953016 C33.9560046,16.2964354 34.0384527,16.2828301 34.115292,16.2550528 C34.1904488,16.229543 34.2605577,16.1875935 34.3177665,16.1382746 C34.376658,16.0889556 34.4226494,16.0288659 34.4546191,15.9619735 C34.4877105,15.8950812 34.5062192,15.8202524 34.5062192,15.7431561 L34.5062192,15.15473 C34.5062192,15.0787675 34.4877105,15.002805 34.4546191,14.9336451 C34.4226494,14.8644852 34.376658,14.8021279 34.3177665,14.7488408" id="Fill-24"></path>
                    <path d="M22.1395713,10.9875624 C22.3785025,11.2018447 22.6623033,11.3753113 22.9752693,11.5022934 C23.2887963,11.6281418 23.6337321,11.7018368 23.991007,11.7143082 C24.112716,11.7165758 24.2310598,11.7120407 24.3471602,11.7018368 C24.374082,11.6995692 24.4004429,11.6973017 24.4290474,11.6927666 C24.5440259,11.6802952 24.656761,11.6632886 24.7644483,11.6394795 C24.770057,11.6360782 24.7717396,11.6360782 24.7773483,11.6360782 C24.8541877,11.6156703 24.9276618,11.5952625 25.0022577,11.5703196 C25.0174012,11.5646507 25.0325447,11.5544468 25.0482491,11.548778 C25.1794929,11.5034272 25.3068107,11.4490063 25.4245936,11.3855152 C25.4290806,11.3832477 25.4369328,11.3798464 25.4425415,11.3764451 C25.5782723,11.3027501 25.706151,11.2154499 25.8228122,11.1179458 C26.0550128,10.9240713 26.2440264,10.6905149 26.3735876,10.4263467 C26.502588,10.1655799 26.5760621,9.8764688 26.5760621,9.56921742 C26.5760621,9.26083227 26.502588,8.96378481 26.3735876,8.6905465 C26.2440264,8.41844196 26.0550128,8.16901279 25.8228122,7.95586424 C25.5900506,7.74271568 25.3118585,7.56698149 25.0022577,7.4388656 C24.6920959,7.31074971 24.3494037,7.23138589 23.991007,7.21437936 C23.6337321,7.19964036 23.2887963,7.24499112 22.9752693,7.34589655 C22.6914685,7.43433053 22.4362722,7.57378411 22.2130455,7.74158191 C22.188928,7.75972221 22.1625671,7.77219367 22.1395713,7.7892002 C22.0935799,7.83001588 22.0576842,7.87536664 22.0128145,7.91618232 C21.9623361,7.96606816 21.9084924,8.01482022 21.8613793,8.06697359 C21.8024878,8.13726726 21.7542529,8.21096224 21.7048962,8.28692476 C21.6650744,8.34588075 21.6202047,8.40143542 21.5865524,8.46606025 C21.5831872,8.47286287 21.5787002,8.47966548 21.5742132,8.48533433 C21.5691654,8.49553825 21.5669219,8.50687593 21.5613132,8.51707986 C21.5029826,8.63612559 21.4558694,8.76084017 21.4244606,8.8912236 C21.4199737,8.9059626 21.4177302,8.91956782 21.4154867,8.93203928 C21.3846388,9.06809155 21.3638865,9.21321398 21.3638865,9.35947017 C21.3638865,9.67012286 21.4396042,9.97057162 21.5742132,10.2460775 C21.7082614,10.5238509 21.9006402,10.7755476 22.1395713,10.9875624" id="Fill-25"></path>
                    <path d="M33.0260803,36.7689009 L33.867387,36.7689009 C34.4450843,36.7689009 35.9039101,37.0013235 35.9039101,37.0013235 C35.9039101,37.0013235 34.4602278,37.2348799 33.867387,37.2348799 L33.0260803,37.2348799 C32.9997193,37.2348799 32.9727975,37.2337462 32.9453148,37.2326124 L32.8179971,37.9826005 L32.6912402,37.2178734 C32.0226818,37.1645863 31.0147963,37.0013235 31.0147963,37.0013235 C31.0147963,37.0013235 31.9492077,36.8488316 32.6188878,36.7904425 L32.3676175,35.2938675 L29.2514175,35.188427 L29.0803518,36.9015519 L30.903183,37.0001898 L29.0607213,37.1010952 L28.8975078,38.7416588 L29.2564653,38.7416588 C30.1112329,38.7416588 32.2728303,38.9746484 32.2728303,38.9746484 C32.2728303,38.9746484 30.1342286,39.207071 29.2564653,39.207071 L28.8515163,39.207071 L28.7836509,39.8765615 L28.718029,39.207071 L28.0124531,39.207071 C27.1565637,39.207071 25.0347882,38.9746484 25.0347882,38.9746484 C25.0347882,38.9746484 27.1346898,38.7416588 28.0124531,38.7416588 L28.6697941,38.7416588 L28.5099458,37.1334076 L24.0908421,37.3743335 L23.699354,39.1101337 L23.3084268,37.3743335 L19.8293431,37.0001898 L23.3084268,36.6283136 L23.6752365,34.9979538 L18.7614444,34.830156 L28.248019,34.5053312 L28.1055577,33.0818843 L25.1828582,32.8795066 L24.8637225,34.2927496 L24.5344911,32.8341558 L18.789488,32.4350692 L24.517665,32.0376832 L24.8637225,30.4991587 L25.1991234,31.9900649 L28.1055577,31.788254 L28.3366366,29.8869235 C27.5054256,29.7928207 26.7701235,29.6913484 26.7701235,29.6913484 C26.7701235,29.6913484 27.5312257,29.5819397 28.3859933,29.4878368 L28.5632286,28.0230074 L27.956366,28.0230074 C26.9148283,28.0230074 24.3269688,27.6647364 24.3269688,27.6647364 C24.3269688,27.6647364 26.8862238,27.3058985 27.956366,27.3058985 L28.6507245,27.3058985 L28.7836509,26.224283 L28.9148948,27.3058985 L29.4757659,27.3058985 C30.5184254,27.3058985 33.153398,27.6647364 33.153398,27.6647364 C33.153398,27.6647364 30.5459081,28.0230074 29.4757659,28.0230074 L29.0023907,28.0230074 L29.1712129,29.4067724 C29.592988,29.3676573 29.9884021,29.3410138 30.2733247,29.3410138 L31.7377592,29.3410138 C32.7456447,29.3410138 35.2875127,29.6913484 35.2875127,29.6913484 C35.2869519,29.6913484 32.7708839,30.0388485 31.7377592,30.0388485 L30.2733247,30.0388485 C30.0080326,30.0388485 29.6389794,30.0150394 29.2413218,29.9793257 L29.4628659,31.788254 L31.9200424,32.4350692 L29.4628659,33.0818843 L29.3237698,34.4696175 L32.3592045,34.3658777 L32.8179971,31.2610515 L33.2835201,34.3981901 L37.3806838,34.830156 L33.2762288,35.2615551 L33.022715,36.7689009 L33.0260803,36.7689009 L33.0260803,36.7689009 Z M22.1922932,29.457792 L23.1384829,29.457792 C23.7879716,29.457792 25.4313241,29.6913484 25.4313241,29.6913484 C25.4313241,29.6913484 23.8059195,29.9226372 23.1384829,29.9226372 L22.1922932,29.9226372 C21.5416827,29.9226372 19.9302999,29.6913484 19.9302999,29.6913484 C19.9302999,29.6913484 21.5248566,29.457792 22.1922932,29.457792 L22.1922932,29.457792 Z M35.3222867,32.2032134 L35.4339001,32.2032134 C35.8029533,32.2032134 36.7334385,32.4356361 36.7334385,32.4356361 C36.7334385,32.4356361 35.8141707,32.6686256 35.4339001,32.6686256 L34.8982682,32.6686256 C34.5303367,32.6686256 33.6166776,32.4356361 33.6166776,32.4356361 C33.6166776,32.4356361 34.5213627,32.2032134 34.8982682,32.2032134 L35.3222867,32.2032134 L35.3222867,32.2032134 Z M40.7307672,24.0689883 C40.7262802,23.9975608 40.7021628,23.9323691 40.6657061,23.868878 C40.6298104,23.8104889 40.5782102,23.7555011 40.5204405,23.7090166 C40.4609882,23.6636659 40.3897575,23.6262515 40.3151617,23.6018755 C40.2377615,23.5757988 40.1553134,23.5604929 40.0689392,23.5616267 L15.8768841,23.6307866 C15.7781708,23.6307866 15.681701,23.64836 15.5930833,23.6744367 C15.5044657,23.702214 15.4237003,23.7441635 15.3530305,23.7951831 C15.2823607,23.8439351 15.2251519,23.903458 15.1825257,23.9686497 C15.1398995,24.0355421 15.1146603,24.1069695 15.1068081,24.182932 C14.9609816,25.8087567 14.8504899,27.4453521 14.7747723,29.0802469 C14.697933,30.7168424 14.6575503,32.3591067 14.6513807,33.9945683 C14.645772,35.635132 14.6743764,37.2751287 14.7377548,38.9071891 C14.8000115,40.5398164 14.8998466,42.1662079 15.0344557,43.784663 C15.0411861,43.8623262 15.0686688,43.9314861 15.1101733,43.9944103 C15.1516777,44.0584682 15.2088866,44.113456 15.2778738,44.1599406 C15.3479826,44.2064251 15.4265046,44.2421388 15.5123179,44.2648142 C15.6744097,44.3112987 22.232676,44.6639008 22.2461369,44.6650346 C22.7105382,44.3861275 23.1889613,44.1361314 23.6853322,43.9167471 C24.1794597,43.6979297 24.687609,43.5074565 25.2114626,43.3475951 C25.4677807,43.2693651 25.7285858,43.1979376 25.9910735,43.1344466 C26.0022909,43.1310452 26.010704,43.1299115 26.0196779,43.1276439 C26.1688696,43.0907965 26.3186222,43.0641529 26.4700575,43.0318405 C26.5783056,43.0119995 26.6865537,42.9819546 26.7976062,42.9643812 C26.8020932,42.9643812 26.8060193,42.9643812 26.8082628,42.9609799 L26.8127497,42.9609799 C26.8346237,42.9581455 26.8564977,42.955878 26.8772499,42.9513429 C26.9310935,42.9439734 26.9838154,42.9354701 27.0376591,42.9286675 C27.0460721,42.9252662 27.0550461,42.9252662 27.0645809,42.9229987 C27.0875766,42.921298 27.1105723,42.9167629 27.1346898,42.9133616 C27.2322813,42.8963551 27.3332381,42.8810492 27.4308297,42.8680109 C27.4919647,42.8595076 27.5542214,42.8498706 27.6159172,42.8402335 C27.8840136,42.8073542 28.1549144,42.7829782 28.4241325,42.7665385 C28.6697941,42.7512327 28.9148948,42.7438632 29.1560694,42.7427294 C29.2239348,42.7404619 29.2929219,42.7427294 29.3607873,42.7427294 C29.5458748,42.7438632 29.7332058,42.7483982 29.9182933,42.7586022 L29.9126845,42.7586022 C29.9536281,42.7597359 29.9962543,42.7597359 30.0366371,42.7597359 C30.0573893,42.7620035 30.0770198,42.764271 30.0960894,42.7665385 L30.0927242,42.7665385 C30.2351855,42.7750418 30.3731598,42.7903477 30.5144993,42.803386 C30.6148952,42.8130231 30.7169738,42.8203926 30.8179306,42.8300296 C32.7075055,43.0239041 34.4534973,43.86346 34.4534973,43.86346 C34.933603,43.7693572 40.2988964,42.7007799 40.3757358,42.6690344 C40.453136,42.6389895 40.5221231,42.5964732 40.5815755,42.5465874 C40.6415887,42.4972684 40.6920671,42.4388793 40.727402,42.3770889 C40.7610542,42.3107634 40.7840499,42.2427373 40.7896587,42.1713099 C40.9035155,40.6633972 40.988207,39.1520832 41.0414898,37.6407692 C41.0986987,36.1294552 41.1216944,34.6181412 41.1172074,33.107961 C41.1127204,31.5977808 41.0779464,30.0893013 41.0128854,28.5825224 C40.9483852,27.0734759 40.8552806,25.5683977 40.7307672,24.0689883 L40.7307672,24.0689883 Z" id="Fill-26"></path>
                    <polyline id="Fill-27" points="23.7234715 34.9996545 24.0908421 36.6288804 28.4835849 36.8692395 28.3125192 35.1561146 23.7234715 34.9996545"></polyline>
                    <path d="M30.5492733,59.3110616 C30.3367031,59.5990389 30.3557727,61.3359729 30.4135425,61.7004796 C30.4814079,62.13528 32.4685744,61.7923149 32.4685744,61.7923149 C32.4685744,61.7923149 31.4281584,59.8354298 33.1618111,59.3110616 C33.5039425,59.2078887 34.7176676,58.9919057 35.9807495,58.759483 C37.8473286,58.4165179 39.9461085,58.141579 39.9461085,58.141579 C39.9461085,58.141579 38.9129838,57.8303594 37.318988,58.0208326 L37.0234089,58.0576801 L36.7485821,58.0905594 L36.7463386,58.0905594 L33.1444241,58.5202578 C31.4511541,58.754948 30.8560698,58.8989366 30.5492733,59.3110616" id="Fill-28"></path>
                    <path d="M44.3562383,44.3481462 L44.3562383,43.0068976 C44.3596035,43.0057638 44.3629687,43.0034962 44.3652122,43.0012287 C44.4375646,42.9513429 44.509917,42.901457 44.5755389,42.852705 C44.7123914,42.7472645 44.8329787,42.6474928 44.9182312,42.5579251 C45.0051662,42.464956 45.0550837,42.3799233 45.0550837,42.3107634 C45.0550837,42.2126924 45.0292836,42.087411 44.9821705,41.9581613 C44.9339356,41.8283448 44.8660701,41.6934262 44.7825003,41.572113 C44.6972479,41.4519335 44.5962911,41.3425248 44.4857995,41.2659954 C44.4454168,41.2359505 44.4022297,41.213842 44.35736,41.1957017 L44.35736,38.3125273 C44.4022297,38.299489 44.4476603,38.2898519 44.49253,38.2768136 C44.7825003,38.1861121 45.0562055,38.0647988 45.2856018,37.9480206 C45.3271062,37.9956389 45.3697324,38.0455247 45.4168456,38.1016463 C45.6238071,38.3527761 45.8672251,38.6861042 46.0775518,39.0806558 C46.2890002,39.4746405 46.4662355,39.9321162 46.5441966,40.4321083 C46.5441966,40.4321083 47.1095547,43.6310373 44.3562383,44.3481462 L44.3562383,44.3481462 Z M44.35736,35.8040635 C44.6905175,35.7451076 45.0848099,35.6640431 45.467324,35.5438636 C45.5733287,35.5115512 45.6765289,35.4758374 45.7774858,35.4367224 L45.7774858,35.7150627 C45.6995247,35.7592797 45.6204418,35.8029298 45.5407981,35.8448792 C45.1319231,36.0546265 44.7039784,36.2235581 44.35736,36.3448713 L44.35736,35.8040635 L44.35736,35.8040635 Z M44.3584818,34.334699 C44.6675218,34.3131574 45.0332097,34.2848132 45.3927281,34.24173 C45.523972,34.2264241 45.6512897,34.2060162 45.7774858,34.1861753 L45.7774858,34.418031 C45.6641898,34.4588467 45.5514547,34.496828 45.4342326,34.5348092 C45.0618142,34.6555556 44.6764957,34.7575948 44.3584818,34.835258 L44.3584818,34.334699 L44.3584818,34.334699 Z M44.3584818,32.7236134 C44.7847438,32.7366517 45.3248627,32.7593271 45.7774858,32.779168 L45.7774858,33.0047881 C45.3226193,33.0971902 44.7813786,33.2043314 44.3584818,33.2853959 L44.3584818,32.7236134 L44.3584818,32.7236134 Z M44.3584818,31.1595791 C44.6686435,31.2145669 45.0292836,31.2882619 45.3837542,31.3846323 C45.5189242,31.4209129 45.6479245,31.4611617 45.7774858,31.5014105 L45.7774858,31.758776 C45.6400723,31.7457377 45.4992937,31.7338331 45.3568324,31.7275974 C45.0124575,31.7100239 44.6607913,31.7122915 44.3584818,31.7185272 L44.3584818,31.1595791 L44.3584818,31.1595791 Z M44.3596035,29.6080164 C44.7006132,29.6913484 45.1027578,29.8041584 45.4869545,29.9560834 C45.5856678,29.9951984 45.6821377,30.036581 45.7774858,30.0796642 L45.7774858,30.3234245 C45.6636289,30.2905452 45.5469677,30.2605004 45.4291848,30.2355575 C45.0618142,30.1556267 44.6849088,30.110276 44.3596035,30.080798 L44.3596035,29.6080164 L44.3596035,29.6080164 Z M44.3607252,23.8785151 C44.3741861,23.8841839 44.3870862,23.8892859 44.4022297,23.8960885 C44.8722397,24.1103708 45.3641237,25.2979938 45.6215636,25.871114 C45.8756382,26.4413997 46.0281952,27.09275 46.0281952,27.8121264 C46.0259517,27.8642797 46.0141734,27.9181338 45.9928603,27.9646183 C45.9709863,28.0122366 45.9423819,28.0570205 45.9064861,28.0944348 C45.8705904,28.1335499 45.8274033,28.162461 45.7825336,28.1857032 C45.7354204,28.2089455 45.6871855,28.2231176 45.6350245,28.2265189 C45.5867896,28.2299202 45.5351894,28.2304871 45.484711,28.2321878 C45.4342326,28.2338884 45.3831933,28.2361559 45.3327149,28.2384235 C45.2917713,28.2384235 45.2491451,28.240691 45.2065189,28.2418248 C44.9249616,28.2338884 44.6422826,28.2219838 44.3596035,28.2049773 L44.3607252,23.8785151 L44.3607252,23.8785151 Z M42.5973464,23.9198976 L42.5973464,44.6327222 C42.5973464,44.9104956 42.5345288,45.1820332 42.4206719,45.4297618 C42.3113021,45.6797578 42.1480886,45.909346 41.9506619,46.1060549 C41.7493092,46.3027638 41.5103781,46.4682941 41.245086,46.5918749 C40.9803548,46.7154557 40.6864584,46.7959533 40.3813445,46.8180618 L38.9298099,46.9291712 C38.9286882,46.9229354 38.9286882,46.9172666 38.9275665,46.9110309 L38.8518489,46.5952762 C38.7665964,46.2489098 38.4081998,45.9807735 38.0554118,46.0023151 L36.5208684,46.0930166 L18.0676468,47.2007088 C17.7137371,47.2222504 17.3043012,47.5068264 17.1584747,47.8339188 L16.8006389,48.6343596 C16.7995172,48.6377609 16.7983954,48.6405954 16.7972737,48.6428629 L15.5168049,48.7426346 C15.1561647,48.769845 14.8123507,48.7352651 14.4999455,48.6496655 C14.1864185,48.5629322 13.9048612,48.4234786 13.666491,48.2403749 C13.4275598,48.0601057 13.2357419,47.837887 13.1022546,47.5827889 C12.9687672,47.3288247 12.8941714,47.0442487 12.8941714,46.7398317 L12.8941714,23.9629809 C12.8941714,23.6591308 12.9687672,23.3677522 13.1022546,23.1052847 C13.2357419,22.8411165 13.4275598,22.603025 13.666491,22.4040486 C13.9048612,22.2062059 14.1864185,22.0435101 14.4999455,21.9335345 C14.7781376,21.8360303 15.0815689,21.7799088 15.398461,21.7680042 C15.437722,21.7668704 15.476983,21.7634691 15.5168049,21.7634691 L16.7181909,21.7668704 C16.7114604,21.7203859 16.708656,21.6716339 16.7125821,21.6228818 L16.7400648,21.2725472 C16.7664258,20.9142762 17.078831,20.625732 17.4333016,20.630834 L28.439276,20.7844597 L29.531853,20.7997655 L32.1225169,20.8354793 L33.7658693,20.8592884 L38.8159531,20.9284483 C39.1199453,20.9329834 39.4138417,21.1501001 39.5299421,21.4335424 C39.5495726,21.4800269 39.5647161,21.528779 39.57369,21.5786648 L39.6011727,21.724921 C39.6067814,21.7600678 39.6079032,21.7940809 39.6079032,21.8275271 L40.3813445,21.8286608 C40.6864584,21.8309284 40.9803548,21.8870499 41.245086,21.9919236 C41.5103781,22.0945297 41.7493092,22.2419196 41.9506619,22.4255902 C42.1480886,22.6086939 42.3113021,22.8269444 42.4206719,23.0661696 C42.5345288,23.3076624 42.5973464,23.5712637 42.5973464,23.8484702 L42.5973464,23.9198976 L42.5973464,23.9198976 Z M35.1489776,55.2963859 L35.1489776,49.4773168 C35.1658037,49.432533 35.173095,49.3990868 35.173095,49.3990868 C35.173095,49.3990868 35.173095,49.3679081 35.177582,49.3191561 C35.308265,49.3072515 35.4350218,49.2953469 35.5612178,49.2834423 L35.6016006,51.2199197 C36.2920329,50.6672073 36.9908784,50.1479411 37.8439634,50.3673254 C38.2264775,50.4648296 38.5439306,50.5969136 38.8103444,50.7363672 L38.8103444,54.9551214 L35.1489776,55.2963859 L35.1489776,55.2963859 Z M31.7534636,57.3201634 L37.1288527,56.737973 L38.750892,56.5628057 C39.0060884,56.5361622 39.2495065,56.5696084 39.4688071,56.6535073 C39.6875469,56.7357055 39.8860952,56.8683565 40.052674,57.0412562 C40.2175701,57.2158567 40.3504966,57.4273046 40.4424794,57.6699311 C40.4565012,57.7067786 40.4688404,57.7453267 40.4817404,57.7827411 C40.5484841,57.9953228 40.5883059,58.2283123 40.5883059,58.4726395 L40.5883059,61.2044557 C40.1827961,61.257176 39.5540595,61.340508 38.8103444,61.4380121 C36.4563682,61.7446966 32.9453148,62.2004717 31.6811113,62.3455942 C29.7113318,62.576883 29.8190191,61.8631755 29.8134104,61.8773476 L29.8134104,59.7118489 C29.8134104,59.4726237 29.8481844,59.2402011 29.9126845,59.0185492 C29.9295107,58.9612939 29.9468977,58.9012042 29.9676499,58.8456495 C30.0663632,58.5735449 30.2088245,58.3235489 30.3860598,58.1064321 C30.5627342,57.8893154 30.7708174,57.7084793 31.0041398,57.5712932 C31.234097,57.4363747 31.4892933,57.351342 31.7534636,57.3201634 L31.7534636,57.3201634 Z M32.2571259,51.7233131 C32.8202406,52.1184315 33.5774166,52.469333 34.4007754,52.0742146 L34.6352196,51.9682072 L34.2499011,55.3802848 L31.1628663,55.6682621 L31.1628663,49.834454 C31.1651098,49.8027085 31.1707185,49.7494214 31.1847403,49.6836628 C31.3019624,49.6740257 31.416941,49.6632549 31.534163,49.6524841 L31.5201412,52.3831666 C31.6710156,52.02773 31.9951991,51.5424769 32.2571259,51.7233131 L32.2571259,51.7233131 Z M40.9209025,61.7702064 C40.9691374,61.7634038 41.0162506,61.7702064 41.0599986,61.7889136 C41.1031856,61.8042195 41.1413249,61.8308631 41.1766597,61.8671437 C41.205825,61.9039912 41.2344295,61.9459406 41.2506947,61.9992278 C41.2703252,62.0491136 41.2804209,62.1041014 41.2804209,62.1675924 L41.2804209,62.5740486 C41.2804209,62.6324377 41.2703252,62.6925275 41.2506947,62.7452477 C41.2344295,62.8019362 41.205825,62.851822 41.1766597,62.8971728 C41.1413249,62.940256 41.1031856,62.9782372 41.0599986,63.0054477 C41.0162506,63.033225 40.9691374,63.0507984 40.9209025,63.0576011 L29.4583789,64.5434052 C29.4034135,64.5513416 29.3529351,64.5434052 29.3069437,64.5280994 C29.2598305,64.5110928 29.2183261,64.4838824 29.1835521,64.4459011 C29.1470954,64.4096205 29.1196127,64.3642697 29.0988605,64.3132501 C29.0803518,64.259963 29.0696952,64.2027077 29.0696952,64.1392166 L29.0696952,63.715187 C29.0696952,63.6533966 29.0803518,63.5910393 29.0988605,63.5360515 C29.1196127,63.4759618 29.1470954,63.4232415 29.1835521,63.3784577 C29.2183261,63.3331069 29.2598305,63.2911575 29.3069437,63.2633801 C29.3529351,63.2356028 29.4034135,63.2168956 29.4583789,63.2106599 L38.5854351,62.0632857 L38.7116311,62.0468461 L38.9023273,62.0258713 L39.7094208,61.9226984 L40.4553795,61.8285955 L40.9209025,61.7702064 L40.9209025,61.7702064 Z M27.7791307,64.30418 C27.7791307,64.3705055 27.7667915,64.4294615 27.7471611,64.4861499 C27.7264088,64.5434052 27.6978044,64.5966924 27.6641521,64.6431769 C27.6265738,64.6896614 27.5850693,64.7270758 27.5390779,64.7559869 C27.4930864,64.7860318 27.4403645,64.8070065 27.3870818,64.8138091 L15.1836474,66.3959837 C14.828616,66.379544 14.6973721,65.9033611 14.9172336,65.4912361 L7.64666095,59.7991492 L15.5470919,64.9600653 C15.5470919,64.9600653 15.6788966,64.9407912 15.829771,64.9220841 L27.3870818,63.4708598 C27.4403645,63.4640572 27.4930864,63.4708598 27.5390779,63.4861657 C27.5850693,63.5048729 27.6265738,63.5315165 27.6641521,63.5700646 C27.6978044,63.6069121 27.7264088,63.6533966 27.7471611,63.7044162 C27.7667915,63.7560027 27.7791307,63.8172262 27.7791307,63.8790166 L27.7791307,64.30418 L27.7791307,64.30418 Z M8.45936324,46.1247621 C8.38925435,46.1395011 8.30736716,46.1582083 8.21874952,46.1740811 C8.12452317,46.1905207 8.02020114,46.2097948 7.90634429,46.2239669 C7.85081805,46.2313364 7.78239177,46.238139 7.7235003,46.2426741 C7.6612436,46.247776 7.60403475,46.2562793 7.53841282,46.2608144 C7.53056063,46.2619481 7.52102582,46.2619481 7.51093014,46.2619481 C7.51878233,46.2619481 7.52607366,46.2619481 7.53280411,46.2608144 C7.5232693,46.2619481 7.50980839,46.2619481 7.4980301,46.2619481 C7.41333856,46.2664832 7.32023395,46.2693176 7.22825108,46.272719 C7.17160309,46.272719 7.12000295,46.277254 7.06055061,46.277254 L7.05550277,46.277254 C6.97529819,46.277254 6.88780229,46.2693176 6.80535424,46.2653495 C6.7088844,46.2608144 6.61690153,46.2608144 6.51930995,46.2523111 C6.51426211,46.2500436 6.50753166,46.2511773 6.50304469,46.2500436 C6.49350988,46.247776 6.48117071,46.247776 6.4716359,46.2455085 C6.28935278,46.2262344 6.1042653,46.199024 5.91356912,46.1570745 C5.86982117,46.1463037 5.82607322,46.134966 5.78008178,46.1224946 C5.7778383,46.120227 5.77222959,46.1190933 5.76830349,46.1179595 C5.72006857,46.1083225 5.67183365,46.0952841 5.62247699,46.081112 C5.57536381,46.0669399 5.52825064,46.0499334 5.48113746,46.0346275 C5.43851126,46.0204554 5.39756766,46.0057164 5.35381971,45.9904105 C5.34652839,45.988143 5.33755445,45.9858754 5.32858051,45.9819072 C5.27641949,45.9603656 5.22481935,45.9393909 5.17209746,45.9167155 C5.16031917,45.9104798 5.14798,45.9059447 5.13620171,45.8991421 C5.130593,45.8985752 5.12610603,45.8963077 5.1227408,45.8940401 C5.09862334,45.8832693 5.07338414,45.8736323 5.04926668,45.8628615 C5.04646232,45.8605939 5.04421884,45.8594602 5.03973187,45.8583264 L5.04421884,45.8583264 C4.99037521,45.8333835 4.93877506,45.8039055 4.88605318,45.7749944 C4.89054015,45.7783957 4.89390537,45.7806632 4.89951408,45.7829308 C4.85464439,45.7579879 4.8097747,45.7336118 4.76490501,45.7092358 C4.76490501,45.7086689 4.76490501,45.708102 4.76378327,45.708102 L4.76490501,45.7092358 C4.7340571,45.6905286 4.70433093,45.668987 4.6757265,45.6497129 C4.65609601,45.6366746 4.63534378,45.6236362 4.61571329,45.6105979 C4.57533056,45.5816868 7.63712614,45.4841827 7.63712614,45.4841827 C7.63712614,45.4841827 6.37404433,44.7580037 6.0498608,44.4411152 C5.58826385,43.991009 6.76160629,41.7552167 6.87097616,41.4831121 L4.54448265,40.5228098 L4.03857688,40.3141963 L4.63646552,40.3810887 L7.20525536,40.6645309 C7.02465485,40.3703179 5.66285971,40.105016 5.00439699,39.8765615 C4.75032236,39.7881276 4.60056976,39.7059293 4.66731343,39.6293999 C4.67067866,39.6259986 4.6718004,39.6248648 4.67460476,39.6214635 C4.81257906,39.6396038 4.98027953,39.6560435 5.18443663,39.6679481 C5.56302465,39.6917572 6.05827387,39.7059293 6.70047133,39.7059293 C8.02468811,39.7070631 8.90637755,39.6379032 9.4807096,39.530762 C9.49921835,39.5704439 9.51772709,39.6072914 9.53735758,39.648674 C9.731419,40.0432256 9.95520659,40.5420839 10.1487071,41.0840254 C10.3416468,41.6242663 10.5082255,42.2081573 10.5839431,42.7688061 C10.6613434,43.3300217 10.6529303,43.8719632 10.4936429,44.3351079 L10.4863516,44.3351079 C10.4184862,44.3362416 10.3371598,44.3266046 10.2440552,44.3124325 C10.1380506,44.2931584 10.0197068,44.2659479 9.90136296,44.2347693 C9.80152789,44.2098264 9.70505806,44.1803484 9.61195345,44.1503035 C9.60241864,44.1457684 9.59007947,44.1457684 9.57830118,44.1406665 C9.57157072,44.1383989 9.56371853,44.1372652 9.55754894,44.1361314 C9.44873994,44.1026852 9.35114836,44.0669715 9.27486989,44.0386273 C9.27038292,44.0017798 9.2591655,43.9433907 9.24626546,43.8787659 C9.23168281,43.8124404 9.21653929,43.7370447 9.1969088,43.657114 C9.17840005,43.578884 9.15764782,43.4944182 9.13128687,43.4156213 C9.10829116,43.3356905 9.08193021,43.2608618 9.05220404,43.1968038 C9.00733435,43.0998666 8.96246466,43.0176684 8.91086451,42.9462409 C8.86038611,42.8748135 8.80710335,42.8152906 8.74877275,42.7688061 C8.68988128,42.7223216 8.62594197,42.6894423 8.56144179,42.6679006 C8.49581987,42.646359 8.42458923,42.6378558 8.35223685,42.6440915 C8.20416687,42.6520279 8.05890125,42.7155189 7.92709653,42.8118893 C7.79697442,42.9093934 7.67526538,43.0403437 7.57430858,43.1826317 C7.4727909,43.3266204 7.39146458,43.4825136 7.33369485,43.6299036 C7.27536426,43.775026 7.24227286,43.9133458 7.24227286,44.0193532 C7.24227286,44.0958826 7.30621217,44.1780809 7.40885159,44.2636804 C7.51429536,44.3515475 7.6612436,44.4399815 7.82445711,44.530683 C7.92709653,44.5851039 8.04095337,44.6400917 8.15424934,44.6922451 C8.22211475,44.7245575 8.28998016,44.7557361 8.35784557,44.7863479 C8.53956782,44.8662786 8.72241181,44.9411073 8.88113834,45.0023309 C8.89572099,45.0782934 8.90862103,45.1746637 8.91647323,45.2829387 C8.92432542,45.3889461 8.92488629,45.5057243 8.91086451,45.615133 C8.90020796,45.7234079 8.8760905,45.826014 8.83009907,45.909346 C8.78635112,45.9904105 8.72129007,46.0533347 8.63155068,46.0788445 C8.58668099,46.090749 8.52891126,46.1083225 8.45936324,46.1247621 L8.45936324,46.1247621 Z M9.61531867,36.7190151 L9.60129689,37.0001898 C9.53623584,37.0421392 9.46837043,37.0812542 9.40050502,37.116968 C8.72465529,37.4763727 7.98991409,37.6708141 7.83511366,37.6968908 C7.75827431,37.7110629 7.20525536,37.7966624 6.65560164,37.8267073 C6.40433137,37.8442807 6.15586545,37.8505165 5.95002574,37.852784 C5.70324244,37.8550515 5.51815496,37.8516502 5.47552875,37.8505165 C5.33531096,37.8397457 4.71554835,37.7813566 4.08456831,37.597686 L4.10083357,37.2326124 C4.72508316,37.2705937 5.35157623,37.1940643 5.48955053,37.2048351 C5.53273761,37.2065357 5.72511641,37.209937 5.98255627,37.2065357 C6.17998291,37.2048351 6.41330531,37.1980324 6.64774944,37.1821597 C7.19123358,37.1515479 7.72910901,37.0682159 7.80482662,37.0534769 C7.95457921,37.0274002 8.6797856,36.9979222 9.35563533,36.8046146 C9.44313123,36.7796717 9.531188,36.7513275 9.61531867,36.7190151 L9.61531867,36.7190151 Z M9.37863105,35.7519102 C8.7381162,35.9712945 8.05441428,36.1079136 7.91083126,36.1203851 C7.83847889,36.1271877 7.32808614,36.1668696 6.8176934,36.1793411 C6.52491866,36.1878443 6.23719177,36.1901119 6.02798683,36.1889781 C5.86982117,36.1878443 5.75596432,36.1867106 5.72399467,36.1855768 C5.58097253,36.1833093 4.90400105,36.0875058 4.26292534,35.9548548 C4.22927307,35.9474853 4.19842515,35.9389821 4.16533376,35.9321794 L4.18103815,35.6198261 C4.21244693,35.6186923 4.24329484,35.6175586 4.27694711,35.6147241 C4.91914457,35.5773098 5.59948127,35.5041817 5.7408208,35.5058823 C5.77166872,35.5058823 5.89618211,35.5081499 6.06388258,35.5092836 C6.27084403,35.5092836 6.5456709,35.5081499 6.82330211,35.4996466 C7.32808614,35.4866082 7.83174843,35.4497608 7.90410081,35.4412575 C8.04544034,35.4293529 8.72016833,35.4627991 9.3601223,35.4151808 C9.46837043,35.4078113 9.57717943,35.394773 9.6809406,35.3817346 L9.66804056,35.644769 C9.57381421,35.6816165 9.47734437,35.7190309 9.37863105,35.7519102 L9.37863105,35.7519102 Z M3.99651154,34.1538629 C4.7009657,34.040486 5.66285971,33.8919622 5.83392541,33.8879941 L5.97189971,33.8845928 L7.92092694,33.8477453 C8.09031003,33.8432102 9.05220404,33.9537527 9.76114517,34.0370847 L9.76114517,34.2576027 C9.06005624,34.3704127 8.11330575,34.516102 7.9450444,34.5195034 L5.97189971,34.5586184 L5.85692113,34.5608859 C5.68473369,34.5637203 4.70769615,34.452611 3.99651154,34.3681452 L3.99651154,34.1538629 L3.99651154,34.1538629 Z M9.76114517,32.6351794 L9.76114517,32.8914112 C9.64280136,32.8783728 9.51997058,32.8653345 9.39489631,32.8590988 C8.71063352,32.8211175 7.98767061,32.8755384 7.83399192,32.8687358 C7.75939605,32.8630669 7.21871627,32.8403916 6.67747561,32.8460604 C6.42564447,32.848328 6.17661768,32.8568312 5.97189971,32.8630669 C5.73409035,32.8710033 5.55909855,32.8806404 5.51703322,32.8840417 C5.3695241,32.8959462 4.66619169,32.8330221 3.99651154,32.8857423 L3.99651154,32.5280382 C4.66619169,32.3103546 5.3560632,32.2111498 5.50525492,32.1981115 C5.5445159,32.1958439 5.72735989,32.1850731 5.97189971,32.1777036 C6.17661768,32.1697672 6.42452273,32.1623977 6.67523213,32.1601302 C7.22152063,32.1533276 7.77061348,32.1777036 7.84745282,32.1816718 C8.00057065,32.1913089 8.73250749,32.3075202 9.41789203,32.5184012 C9.5351141,32.553548 9.64953181,32.5949306 9.76114517,32.6351794 L9.76114517,32.6351794 Z M9.45771388,31.3494854 C8.73250749,31.1822545 7.95009224,31.1703499 7.78687874,31.1516427 C7.70835678,31.1397382 7.12561166,31.0813491 6.54118393,31.0705783 C6.34431815,31.0649094 6.14801325,31.0649094 5.97189971,31.0683107 C5.62247699,31.0728458 5.34652839,31.0858842 5.29268476,31.0887186 L4.66843517,31.0943874 C4.46652156,31.1023238 4.23095568,31.1136615 3.99651154,31.1516427 L3.99651154,30.8052763 C4.2247861,30.7310145 4.44576933,30.6833962 4.63758726,30.6442812 C4.95223597,30.5858921 5.19172795,30.5569809 5.27641949,30.5524459 C5.330824,30.5490446 5.61462479,30.5354393 5.97189971,30.5309043 C6.15137848,30.5286367 6.34992687,30.5286367 6.54903612,30.5343056 C7.14524215,30.5450764 7.73976556,30.6045992 7.82333536,30.6165038 C7.98991409,30.6369117 8.78635112,30.7837347 9.50931403,31.0887186 C9.59456644,31.1261329 9.67869711,31.1635473 9.76114517,31.2060637 L9.76114517,31.4322506 C9.66131011,31.4016388 9.5603533,31.3732946 9.45771388,31.3494854 L9.45771388,31.3494854 Z M3.50406668,28.5609807 C3.49172751,28.5003241 3.49733622,28.2242514 3.49733622,28.2242514 C3.67120628,26.7758616 7.45708651,22.7147013 7.45708651,22.7147013 C7.45708651,22.7147013 9.09370851,22.2181105 9.77965392,22.2181105 C10.2726597,22.2181105 10.7393044,22.5457697 10.6288128,23.6806724 C10.6091823,23.8892859 10.2143291,28.2429586 10.2143291,28.2429586 C10.2092812,28.2860418 10.1924551,28.3313925 10.1644115,28.3744758 C10.1380506,28.4169921 10.0993505,28.4589415 10.053359,28.4935215 C9.38648325,29.0808138 4.31003851,29.0139214 3.89275038,28.9413602 C3.67793673,28.9039458 3.54220591,28.7491864 3.50406668,28.5609807 L3.50406668,28.5609807 Z M21.6628309,56.5537356 L21.6650744,50.5969136 C21.6650744,50.5969136 21.8002443,50.5816078 22.0212275,50.5589324 L22.0638537,52.5248877 C22.7856949,51.9460987 23.5187535,51.399622 24.4150256,51.6292103 C24.9220531,51.7584599 25.3275629,51.9466656 25.640529,52.1365719 L25.640529,56.1818594 L21.6628309,56.5537356 L21.6628309,56.5537356 Z M18.5533612,53.053224 C19.1433977,53.4670497 19.938713,53.8349577 20.8018937,53.4205652 L21.1417816,53.2669395 L20.7536587,56.6382014 L17.3261752,56.9579242 L17.3261752,51.8746712 L17.3559013,50.9410125 C17.3559013,50.9410125 17.5236018,50.9268404 17.7961852,50.9018975 L17.7810417,53.696071 C17.9251856,53.2686401 18.2790953,52.8627508 18.5533612,53.053224 L18.5533612,53.053224 Z M15.2885303,61.0825756 C15.2885303,61.0825756 15.3345217,60.8376815 15.3642479,60.7214702 C15.3872436,60.638705 15.4124828,60.555373 15.4433307,60.4754423 C15.5504571,60.1897326 15.7069402,59.9289657 15.8987581,59.701645 C16.0916978,59.4748912 16.3205332,59.2810168 16.5723644,59.1404294 C16.8275607,58.9975745 17.1040702,58.9046055 17.3940406,58.8745606 L25.0252534,58.0474762 C25.3023237,58.0157306 25.5659332,58.0508775 25.805986,58.1370439 C26.0449171,58.2237772 26.2597308,58.3609633 26.4392095,58.5400988 C26.61981,58.7220687 26.7656365,58.9408861 26.8677151,59.1937165 C26.8895891,59.2509719 26.9103413,59.3099279 26.9277283,59.3694507 C26.9894241,59.5746629 27.0230764,59.7957478 27.0230764,60.0293042 L27.0230764,62.9493261 L26.6747754,62.989008 L16.8780391,64.1346815 L16.4080291,64.1902362 C16.4080291,64.1902362 15.4837135,64.3245878 15.2756303,63.622218 L15.2756303,62.0723559 C14.8689987,61.7634038 9.08193021,57.3779856 9.10604767,57.3768518 L15.2885303,61.0825756 L15.2885303,61.0825756 Z M14.5610804,10.3112692 L15.7478838,10.2137651 L16.2470591,10.1740831 C16.2655678,10.1706818 16.2835157,10.1706818 16.3020245,10.1684143 C16.3194115,10.1672805 16.3367985,10.1638792 16.3547464,10.165013 C16.456264,10.1672805 16.5560991,10.1978923 16.6503254,10.2557145 C17.2044661,10.5924439 17.6200717,11.8259845 17.6189499,13.3707446 C17.6155847,15.1955457 17.0261091,16.6388336 16.3227767,16.6932545 L16.3227767,16.6949551 L16.290807,16.6949551 C16.2756635,16.6949551 16.2616417,16.6994902 16.2448156,16.6983564 L16.2425721,16.6983564 C16.2403286,16.6972227 16.2397678,16.6972227 16.238646,16.6972227 L16.2296721,16.6972227 L14.9918295,16.7352039 L13.4152207,16.7850898 L13.0966459,16.7924593 C13.1185198,16.7901917 13.1392721,16.7850898 13.1600243,16.7782872 C13.5335645,16.6683116 13.8566263,16.0322672 14.0310572,15.1201501 C14.1196748,14.659273 14.1690315,14.1303698 14.1690315,13.5623516 C14.1679098,12.937078 14.1045313,12.3656585 13.9962832,11.8843736 C13.8022218,11.0079702 13.4612121,10.4410857 13.0770154,10.4325825 L14.5610804,10.3112692 L14.5610804,10.3112692 Z M19.9224477,1.58521662 C20.3133749,1.51265541 20.8372285,1.47920923 20.8372285,1.8306776 C20.8372285,2.20255381 20.8405938,2.98145306 20.8428373,3.46954058 L20.8417155,3.46954058 C20.5180929,3.57044602 20.2124181,3.7025301 19.9224477,3.85672267 L19.9224477,1.58521662 L19.9224477,1.58521662 Z M21.6129133,5.26543057 C21.9213925,5.17019398 22.2612804,5.12711076 22.6174336,5.14468418 L30.7607217,5.57891768 L33.4422467,5.72177256 L34.032844,5.75238432 C34.3660014,5.7676902 34.6772849,5.84535337 34.9638901,5.97006796 C35.2488126,6.09308189 35.504009,6.25974592 35.7199444,6.46552498 C35.934758,6.66790273 36.1086281,6.90429355 36.2269719,7.16506041 C36.3475592,7.42582726 36.4143029,7.70700196 36.4143029,7.99838057 L36.4143029,17.7402901 C36.4143029,18.0322356 36.3475592,18.3111427 36.2269719,18.5634063 C36.1119933,18.8088673 35.9431711,19.0299522 35.7350879,19.2170241 L31.9766904,19.1478642 L20.6454106,18.938117 C20.4743449,18.7635165 20.3318836,18.5690752 20.2281225,18.3559266 C20.0946351,18.0877903 20.021161,17.7918766 20.021161,17.485759 L20.021161,7.23875539 C20.021161,6.93037024 20.0946351,6.64295982 20.2281225,6.38105919 C20.3593663,6.12199299 20.5489408,5.88957036 20.7867501,5.70136472 C21.0211943,5.51089154 21.3016299,5.3629347 21.6129133,5.26543057 L21.6129133,5.26543057 Z M33.4697293,1.6957591 C33.8466348,1.63680311 34.2902838,1.63453557 34.2902838,1.95936037 C34.2902838,2.40323091 34.2958925,3.43269309 34.298136,3.84708564 C34.2857969,3.84708564 34.2751403,3.84311745 34.2639229,3.84311745 L33.4697293,3.80060111 L33.4697293,1.6957591 L33.4697293,1.6957591 Z M1.06876416,28.4799163 C0.851707031,30.154493 1.9078274,30.5189997 1.9078274,30.5189997 L1.9078274,35.8471468 C1.90109694,35.9010008 1.89773172,35.9548548 1.89773172,36.008142 L1.91119262,37.0750185 C1.90894914,37.1095985 1.9078274,37.1453122 1.9078274,37.1798921 L1.9078274,37.8442807 C1.87697948,37.8799945 1.84220547,37.9157082 1.81135756,37.9514219 C1.45071741,38.3612794 1.1399948,38.7887103 0.888724526,39.2246444 C0.53313222,39.8323446 0.300931566,40.4491148 0.197731275,41.0539806 C0.0608787159,41.8391156 0.138839805,42.6010083 0.427688445,43.3107476 C0.553884452,43.623101 0.714854471,43.9110783 0.893211495,44.1826159 C1.81135756,45.5771517 2.82877782,46.4563895 3.75589782,47.0981027 C5.46038523,48.2806237 8.60855497,48.0187231 8.60855497,48.0187231 L8.60855497,54.1405084 C8.53956782,54.191528 8.47506763,54.2442483 8.41561529,54.2952679 C8.38813261,54.3162426 8.32587591,54.3672622 8.29839322,54.3905045 C8.12676665,54.540162 7.96860099,54.6994565 7.8362354,54.8576173 C7.80146139,54.8978661 7.76276128,54.9398155 7.73752208,54.9715611 C7.57991729,55.1722382 7.44306473,55.3870874 7.32584266,55.61951 C7.293873,55.6761984 7.26582945,55.7379889 7.23610328,55.8111169 C7.15702044,55.9868511 7.08915504,56.168821 7.03138531,56.380269 C7.00726785,56.4630341 6.98539387,56.5452323 6.97193297,56.6115578 C6.96127641,56.6659787 6.95118073,56.7164314 6.94557202,56.7612153 C6.9130415,56.959058 6.8973371,57.1410279 6.8973371,57.3156283 L6.8973371,59.2322647 C6.89285013,59.2379335 6.88780229,59.2424686 6.88331532,59.2464368 C6.85022393,59.279883 6.79918465,59.3354377 6.77170197,59.3671832 C6.60736672,59.5519875 6.47892723,59.7537984 6.37628781,59.9896223 C6.3628269,60.0230685 6.35441384,60.0480114 6.34207467,60.0825914 C6.25457877,60.3172816 6.20970908,60.5542393 6.20970908,60.7832606 L6.20970908,61.1545699 C6.20970908,61.2883546 6.22373086,61.4255407 6.25457877,61.556491 C6.28206146,61.689142 6.32580941,61.8183916 6.38133565,61.9414055 C6.44078799,62.0700883 6.51426211,62.1931022 6.60736672,62.3138486 C6.69934959,62.4374295 6.80871946,62.5530739 6.92481979,62.6500111 L12.8762235,67.7077543 C12.900341,67.7298628 12.9244584,67.7497038 12.9485759,67.7689778 C13.2032114,67.9679543 13.4976687,68.1198793 13.8263392,68.2173835 C14.1415488,68.3103525 14.475828,68.3500344 14.8185203,68.337563 C14.9172336,68.3335948 15.0159469,68.3233908 15.1135385,68.31262 L27.6243303,66.6794259 C27.9759965,66.6340751 28.3226148,66.5275009 28.6322157,66.3682063 C28.9721036,66.4447357 29.3529351,66.4566403 29.6872143,66.4112895 L41.1446901,64.917549 C41.5563695,64.8648287 41.9585141,64.7270758 42.3135456,64.5144941 C42.5939811,64.348397 42.8357166,64.1414842 43.029778,63.9033927 C43.2042089,63.6930785 43.3376963,63.4606559 43.4352879,63.2061248 C43.5227837,62.9623645 43.5687752,62.7135022 43.5687752,62.464073 L43.5687752,62.0553493 C43.5687752,61.7957162 43.517175,61.541752 43.4184617,61.2906222 C43.3079701,61.0247534 43.1470001,60.7900632 42.9400386,60.589953 C42.9181647,60.5706789 42.8974124,60.550838 42.8755384,60.530997 L42.8755384,58.3654983 C42.886195,57.1189194 42.533407,55.3780172 40.7346933,54.9460513 L40.7346933,48.7619086 C41.2966862,48.7131566 44.2951033,48.3911662 44.2951033,46.2789547 C45.1526753,46.1820174 47.6120953,45.7285099 48.6025937,42.4524845 C48.8325509,41.6888912 48.918925,40.9111257 48.8005812,40.1265576 C48.7052331,39.5092204 48.4949065,38.8867813 48.1752099,38.2813487 C47.9407658,37.8397457 47.6513562,37.4094804 47.3153944,37.0001898 C47.264916,36.9418007 47.2166811,36.8834116 47.1673245,36.8295575 L47.1673245,29.2962299 C47.3238075,29.1947576 47.9755398,28.8948757 47.9087961,27.7701769 C47.8650482,27.0525012 46.0225864,22.8065365 45.4903197,22.235117 C44.849244,21.5440848 43.5586795,20.5843494 42.7661686,20.3224488 C42.5973464,20.2391168 42.4262807,20.1603199 42.2456802,20.0962619 C41.7044395,19.9006868 41.1301074,19.8020489 40.5411927,19.7935456 C40.4239707,19.5135047 40.1345612,19.2992224 39.8333734,19.2935535 L38.7312616,19.2731457 L38.7312616,16.8996004 C39.8586126,16.4466597 40.5507276,15.390554 40.5507276,13.8684692 C40.5507276,13.2052144 40.4368707,11.5725871 39.3538285,10.7279293 C39.1659367,10.5828068 38.9550491,10.4722644 38.7312616,10.3900661 L38.7312616,8.10608862 L38.7368703,7.93432263 C38.7368703,7.42242595 38.6241352,6.9173319 38.4037128,6.43604699 C38.1922644,5.97630369 37.8865896,5.55454164 37.4945407,5.18209855 C37.0946396,4.8045535 36.6246295,4.49616835 36.0990933,4.26941456 C35.7760315,4.13052787 35.4395088,4.02792178 35.0934513,3.9542268 L35.0934513,1.6481408 C35.0934513,1.21277353 34.2095184,0.432740509 31.386093,1.39587721 C31.3788017,1.39871164 31.3743147,1.40097917 31.368706,1.40438048 C31.024892,1.53533079 30.7607217,1.8414484 30.7607217,2.13282702 L30.7607217,3.65377804 L22.846269,3.22634715 C22.4351504,3.20367177 22.0302015,3.22407961 21.6381525,3.28700379 L21.6381525,1.52115868 C21.6381525,1.0863583 20.7536587,0.306325273 17.931916,1.26832821 C17.5353801,1.36980053 17.2123183,1.71049809 17.2123183,2.03418912 L17.2123183,5.58061833 C17.2123183,5.65941527 17.2044661,5.84988845 17.2044661,5.84988845 L13.557682,8.64406198 C13.1577808,8.68544454 12.6933795,8.75573821 12.1414823,8.8583443 C10.2636857,9.21434775 9.60858822,11.6853971 9.61419693,13.6955694 C9.6265361,15.508466 10.1004722,16.9268109 10.8946658,17.7164809 L10.8946658,19.8218898 L7.21535104,20.8354793 C6.35329209,21.1104182 1.28469955,26.8059064 1.06876416,28.4799163 L1.06876416,28.4799163 Z" id="Fill-29"></path>
                    <path d="M16.2941723,63.7208559 C16.7378213,63.7066838 20.408723,63.2877561 20.408723,63.2877561 C20.408723,63.2877561 19.6111642,63.1108882 19.9544174,61.8331306 C20.1961528,60.9295168 22.0290797,60.5179587 23.2405614,60.2566249 C24.4520431,59.9975587 26.2838482,59.7736394 26.2838482,59.7736394 C26.2838482,59.7736394 25.2496018,59.4624198 23.6567278,59.6540267 L23.360027,59.6897405 L23.0403304,59.7271548 L23.0369652,59.7271548 C23.0369652,59.7271548 17.5376236,60.3563966 16.129837,60.8688601 C15.7018923,61.0247534 15.7103054,62.6159981 15.7433968,63.3501134 C15.7607838,63.7372955 16.0597281,63.7287923 16.2941723,63.7208559" id="Fill-30"></path>
                    <path d="M17.2515793,59.4261392 C16.630695,59.4748912 16.2352808,60.2101404 16.2352808,60.2101404 L21.04419,59.5519875 C21.04419,59.5519875 19.7502603,59.2288634 17.2515793,59.4261392" id="Fill-31"></path>
                    <path d="M34.1926923,57.960176 C34.1926923,57.960176 32.861745,57.6081407 31.8443248,57.6920396 C31.0159181,57.7606326 30.6524736,58.6330678 30.6524736,58.6330678 C31.1365054,58.1597193 34.0272353,57.9681123 34.1926923,57.960176" id="Fill-32"></path>
                    <path d="M8.10264919,28.1596265 C8.10264919,28.1596265 6.32693115,27.2860576 6.66962342,26.6681535 C7.10654204,25.8813179 8.47731112,26.1137405 8.96582989,25.5644295 C9.74656252,24.6874592 9.57830118,23.2453051 9.57830118,23.2453051 C9.57830118,23.2453051 7.9198052,22.9482577 7.48681268,23.4754602 C6.71673659,24.418756 4.57533056,27.3104336 4.35154298,27.6318571 C3.55622769,28.7814988 8.10264919,28.1596265 8.10264919,28.1596265" id="Fill-33"></path>
                    <path d="M16.2863201,16.1739883 C16.460751,16.155848 16.8146607,15.6116389 16.9941395,14.6275275 C16.9459045,14.6161898 16.8999131,14.6008839 16.8550434,14.5833105 C16.7148256,14.5345584 16.5790948,14.4676661 16.4500944,14.3724295 C16.3951291,14.3327476 16.339042,14.2885306 16.2863201,14.237511 C16.1309588,14.0935223 16.0630934,13.8735712 15.8953929,13.7352513 C15.6458052,13.5266379 15.337887,13.5255041 15.0709123,13.6570213 C15.0423079,13.6717603 14.7859898,13.7284487 14.6676459,13.4994274 C14.6883982,13.6456836 14.6962504,13.7970418 14.6962504,13.9483999 C14.6928851,14.4302517 14.5952936,14.9121035 14.536963,15.2182211 C14.4859237,15.4903257 14.4219844,15.7363535 14.3473885,15.9585722 C14.3159797,16.0560763 14.2817666,16.1501792 14.2458708,16.2374794 L16.2307938,16.1773896 C16.2493026,16.1751221 16.2666896,16.1739883 16.2863201,16.1739883" id="Fill-34"></path>
                </g>
            </g>
        </g>
    </g>
</svg>
