<?xml version="1.0" encoding="utf-8"?>
<!-- Generator: Adobe Illustrator 21.1.0, SVG Export Plug-In . SVG Version: 6.00 Build 0)  -->
<svg version="1.1" id="Laag_1" xmlns="http://www.w3.org/2000/svg" xmlns:xlink="http://www.w3.org/1999/xlink" x="0px" y="0px"
	 viewBox="0 0 120 120" style="enable-background:new 0 0 120 120;" xml:space="preserve">
<path fill="currentColor" d="M66.1,10c-24.3,0-43.9,19.7-43.9,43.9c0,9.9,3.4,19.6,9.5,27.3l-21.6,21.6l7.1,7.1l21.5-21.5c19,15.1,46.6,11.9,61.7-7.1
	s11.9-46.6-7.1-61.7C85.6,13.4,76,10,66.1,10L66.1,10z M66.1,88c-18.7,0-33.9-15.2-33.9-33.9c0-18.7,15.2-33.9,33.9-33.9
	S100,35.4,100,54.1S84.8,87.9,66.1,88z"/>
</svg>
