<svg xmlns="http://www.w3.org/2000/svg" viewBox="0 0 120 120">
    <g fill="currentColor">
        <path
            d="M78.8 103.7l13.1 4.2L86 86.2 63.6 92l5.9 22 9.3-10.3zM50.4 114l5.9-22-22.5-5.8L28 108l13.1-4.2 9.3 10.2z"/>
        <path
            d="M60 10c2.1 0 4.3 1.2 5.6 3l.4.4c2.4 2.5 5.8 3.9 9.2 3.9.6 0 1.6-.1 2.6-.5a8 8 0 0 1 2-.3h.2c3.9 0 7.1 3.1 7.2 7v.5a13 13 0 0 0 7 9.6l.4.2c2.2.8 3.8 2.5 4.6 4.7.6 2.2.3 4.5-1 6.4l-.2.3a12.6 12.6 0 0 0 0 12.2l.2.3c.4.5.6 1.1.9 1.7 1.4 3.8-.6 8-4.4 9.4l-.4.2a12.7 12.7 0 0 0-7.1 9.8v.3a7.8 7.8 0 0 1-3 5.8 7.6 7.6 0 0 1-6.1 1.1c-1.1-.5-2.2-.5-2.8-.5-3.5 0-6.8 1.4-9.2 3.9l-.3.3a7.4 7.4 0 0 1-5.8 2.8c-2.3 0-4.4-1-5.8-2.8l-.3-.3a12.9 12.9 0 0 0-9.2-3.9l-.8.1-1.4.3h-.2l-2.3.3h-.2a7.2 7.2 0 0 1-7.2-7v-.5c-.6-4.2-3.3-7.8-7-9.6l-.4-.2a7.7 7.7 0 0 1-4.6-4.7 8 8 0 0 1 1-6.4l.2-.3c2.1-3.8 2.1-8.4 0-12.2l-.2-.3c-.4-.5-.6-1.1-.9-1.6A7.3 7.3 0 0 1 25 34l.3-.1c4-1.9 6.7-5.7 7-10.1v-.2a7.8 7.8 0 0 1 3-5.8 7.5 7.5 0 0 1 6.3-1c.9.3 1.8.5 2.8.5 3.5 0 6.8-1.4 9.2-3.9l.2-.2A9 9 0 0 1 60 10m0-4a12 12 0 0 0-9 4.4 9 9 0 0 1-6.4 2.7 4 4 0 0 1-1.5-.3 11.6 11.6 0 0 0-9.9 1.6 11.8 11.8 0 0 0-4.7 8.8c-.3 3-2.1 5.6-4.8 6.8a11.3 11.3 0 0 0-5.4 17.1 8.7 8.7 0 0 1 0 8.3c-2 2.9-2.5 6.5-1.5 9.9 1.2 3.3 3.7 5.9 7 7.2a9.2 9.2 0 0 1 4.9 6.7c.1 6.1 5.1 10.9 11.2 10.9h.2c1.1 0 2.2-.2 3.2-.5l1.4-.3a9 9 0 0 1 6.4 2.7A11.3 11.3 0 0 0 69 92a9 9 0 0 1 6.4-2.7c.5 0 1 0 1.3.3 1.1.3 2.1.4 3.2.4 2.4 0 4.7-.7 6.7-2.1 2.8-2.1 4.5-5.3 4.7-8.8a8.7 8.7 0 0 1 4.9-6.7 11.3 11.3 0 0 0 5.5-17.1 8.7 8.7 0 0 1 0-8.3c2-2.9 2.5-6.5 1.5-9.9-1.1-3.3-3.7-6-7-7.2a9.2 9.2 0 0 1-4.9-6.7 11.1 11.1 0 0 0-11.2-10.9h-.2a16.5 16.5 0 0 0-4.5.7 9 9 0 0 1-6.4-2.7A12.3 12.3 0 0 0 60 6z"/>
    </g>
</svg>
