<?xml version="1.0" encoding="utf-8"?>
<!-- Generator: Adobe Illustrator 21.1.0, SVG Export Plug-In . SVG Version: 6.00 Build 0)  -->
<svg version="1.1" id="Laag_1" xmlns="http://www.w3.org/2000/svg" xmlns:xlink="http://www.w3.org/1999/xlink" x="0px" y="0px"
	 viewBox="0 0 120 120" style="enable-background:new 0 0 120 120;" xml:space="preserve">
<path fill="currentColor" d="M109.9,63c0.1-1,0.1-2,0.1-3s0-2-0.1-3l-6.1-1.5c-0.5-4.7-1.7-9.3-3.6-13.5l4.5-4.4c-0.9-1.8-1.9-3.5-3-5.1l-6,1.7
	c-2.8-3.8-6.1-7.2-9.9-9.9l1.7-6c-1.6-1.1-3.4-2.1-5.1-3L78,19.8c-4.3-1.9-8.9-3.2-13.5-3.6L63,10.1C62,10,61,10,60,10s-2,0-3,0.1
	l-1.5,6.1c-4.7,0.5-9.3,1.7-13.5,3.6l-4.4-4.5c-1.8,0.9-3.5,1.9-5.1,3l1.7,6c-3.8,2.8-7.2,6.1-9.9,9.9l-6-1.7
	c-1.1,1.6-2.1,3.4-3,5.1l4.5,4.4c-1.9,4.3-3.2,8.9-3.6,13.5L10.1,57C10,58,10,59,10,60s0,2,0.1,3l6.1,1.5C16.7,69.2,18,73.7,20,78
	l-4.5,4.4c0.9,1.8,1.9,3.5,3,5.1l6-1.7c2.8,3.8,6.1,7.2,9.9,9.9l-1.7,6c1.6,1.1,3.4,2.1,5.1,3l4.4-4.5c4.3,1.9,8.9,3.2,13.5,3.6
	l1.5,6.1c1,0.1,2,0.1,3,0.1s2,0,3-0.1l1.5-6.1c4.7-0.5,9.3-1.7,13.5-3.6l4.3,4.5c1.8-0.9,3.5-1.9,5.1-3l-1.7-6
	c3.8-2.8,7.2-6.1,9.9-9.9l6,1.7c1.1-1.6,2.1-3.4,3-5.1l-4.5-4.4c1.9-4.3,3.1-8.8,3.6-13.5L109.9,63z M60,94.6
	c-19.1,0-34.6-15.5-34.6-34.6S40.9,25.4,60,25.4S94.6,40.9,94.6,60S79.1,94.6,60,94.6L60,94.6z"/>
<path fill="currentColor" d="M60,78.4c-9.7,0-17.5-7.8-17.5-17.5S50.3,43.4,60,43.4s17.5,7.8,17.5,17.5l0,0C77.5,70.6,69.6,78.4,60,78.4z M60,53.4
	c-4.1,0-7.5,3.4-7.5,7.5s3.4,7.5,7.5,7.5c4.1,0,7.5-3.4,7.5-7.5S64.1,53.4,60,53.4z"/>
</svg>
