<?xml version="1.0" encoding="utf-8"?>
<!-- Generator: Adobe Illustrator 21.1.0, SVG Export Plug-In . SVG Version: 6.00 Build 0)  -->
<svg version="1.1" id="Laag_1" xmlns="http://www.w3.org/2000/svg" xmlns:xlink="http://www.w3.org/1999/xlink" x="0px" y="0px"
	 viewBox="0 0 120 120" style="enable-background:new 0 0 120 120;" xml:space="preserve">
<path fill="currentColor" d="M60,94C37.6,94,16.8,82,5.7,62.5L4.2,60l1.4-2.5c17.2-30,55.4-40.4,85.4-23.3c9.7,5.5,17.7,13.6,23.3,23.3l1.4,2.5l-1.4,2.5
	C103.2,82,82.4,94,60,94z M15.9,60c15.8,24.4,48.3,31.4,72.7,15.6c6.2-4,11.5-9.3,15.6-15.6C88.4,35.6,55.8,28.7,31.4,44.4
	C25.2,48.5,19.9,53.8,15.9,60z"/>
<path fill="currentColor" d="M60,77.5c-9.7,0-17.5-7.8-17.5-17.5S50.3,42.5,60,42.5S77.5,50.3,77.5,60l0,0C77.5,69.7,69.7,77.5,60,77.5z M60,52.5
	c-4.1,0-7.5,3.4-7.5,7.5s3.4,7.5,7.5,7.5s7.5-3.4,7.5-7.5l0,0C67.5,55.9,64.1,52.5,60,52.5z"/>
</svg>
