<svg viewBox="0 0 120 120" xmlns="http://www.w3.org/2000/svg"><path fill="currentColor" d="m48.9 74.4v21.8h-22.5v3h25.5v-24.8zm-22.5 28.8h47.9v3h-47.9zm0 6.9h47.9v3h-47.9zm0 6.9h47.9v3h-47.9zm91.6-103.7h-37v-13.3h-42v13.3h-37c-1.1 0-2 .9-2 2v35c0 .3 0 .5.2.8v.1c.1.2.2.4.4.6l12.7 12.7c.2.2.4.3.6.4h.1c.3.1.5.1.8.1h31.4l4.1 4 4.1-4h50.8c.2 0 .5 0 .7-.1 0 0 .1 0 .1-.1.2-.1.4-.2.6-.4l12.7-12.7c.2-.2.3-.4.4-.6v-.1h-.1c.1-.2.1-.5.1-.7v-35c.3-1.1-.6-2-1.7-2zm-2 4v5.8h-35v-5.8zm-73-13.3h34v9.3h-34zm-4 13.3v5.8h-35v-5.8zm-23.5 43.7-11.5-11.5v-22.4h35v33.9zm52.7 0h-25.2v-43.7h34v43.7zm36.3 0h-23.5v-33.9h35v22.4z"/></svg>