<?xml version="1.0" encoding="utf-8"?>
<!-- Generator: Adobe Illustrator 21.1.0, SVG Export Plug-In . SVG Version: 6.00 Build 0)  -->
<svg version="1.1" id="Laag_1" xmlns="http://www.w3.org/2000/svg" xmlns:xlink="http://www.w3.org/1999/xlink" x="0px" y="0px"
	 viewBox="0 0 120 120" style="enable-background:new 0 0 120 120;" xml:space="preserve">
<path fill="currentColor" d="M110,87.3H17.3V26.9H110V87.3z M27.3,77.3H100V36.9H27.3V77.3z"/>
<rect fill="currentColor" x="10" y="7.3" width="25" height="10"/>
<circle fill="currentColor" cx="91.3" cy="103.8" r="6.2"/>
<path fill="currentColor" d="M91.3,112.7c-4.8,0-8.8-3.9-8.8-8.8s3.9-8.8,8.8-8.8s8.8,3.9,8.8,8.8C100,108.7,96.1,112.7,91.3,112.7z M91.3,100.2
	c-2.1,0-3.8,1.7-3.8,3.8s1.7,3.8,3.8,3.8s3.8-1.7,3.8-3.8C95,101.8,93.4,100.2,91.3,100.2L91.3,100.2L91.3,100.2z"/>
<circle fill="currentColor" cx="26.6" cy="103.8" r="6.2"/>
<path fill="currentColor" d="M26.6,112.7c-4.8,0-8.8-3.9-8.8-8.8s3.9-8.8,8.8-8.8s8.8,3.9,8.8,8.8C35.3,108.7,31.4,112.7,26.6,112.7z M26.6,100.2
	c-2.1,0-3.8,1.7-3.8,3.8s1.7,3.8,3.8,3.8s3.8-1.7,3.8-3.8C30.3,101.8,28.7,100.2,26.6,100.2L26.6,100.2L26.6,100.2z"/>
</svg>
