<svg xmlns="http://www.w3.org/2000/svg" viewBox="0 0 120 120">
    <g fill="currentColor">
        <path d="M14 43.6v26.8a14 14 0 0 1 0-26.8m4-4.6C8.1 39 0 47.1 0 57s8.1 18 18 18V39z"/>
        <path d="M105.4 41.4a48 48 0 0 0-90.8 0l1.4-.2V57a44 44 0 0 1 88 0V41.1l1.4.3z"/>
        <path d="M106 43.6a14 14 0 0 1 0 26.8V43.6m-4-4.6v36c9.9 0 18-8.1 18-18s-8.1-18-18-18z"/>
        <path d="M104 72.9V57c0 22-16.3 40.3-37.5 43.5.3.8.5 1.6.5 2.5l-.2 1.5a47.9 47.9 0 0 0 38.5-31.9l-1.3.3z"/>
        <path d="M60 98c2.8 0 5 2.2 5 5s-2.2 5-5 5-5-2.2-5-5 2.2-5 5-5m0-4c-5 0-9 4-9 9s4 9 9 9 9-4 9-9-4-9-9-9z"/>
        <path d="M60 22a35 35 0 1 1 0 70 35 35 0 0 1 0-70m0-4a39 39 0 1 0 .1 78.1A39 39 0 0 0 60 18z"/>
    </g>
</svg>
