<svg xmlns="http://www.w3.org/2000/svg" viewBox="0 0 120 120">
    <g fill="currentColor">
        <path d="M60 10.6l42.8 24.7v49.4L60 109.4 17.2 84.7V35.3L60 10.6M60 6L13.2 33v54L60 114l46.8-27V33L60 6z"/>
        <path
            d="M62 19.1h-4V7.5h4v11.6zm-4 9.1h4v11.6h-4zm0 20.6h4v11.6h-4zm-34.5 30l2 3.5-10 5.7-2-3.5 10-5.7zm7.9-4.5l10-5.8 2 3.4-10 5.8z"/>
        <path
            d="M49.3 63.9l10-5.8 2 3.5-10 5.8zm45.2 18.2l2-3.5 10.1 5.8-2 3.5-10.1-5.8zM76.6 71.8l2-3.5 10 5.8-2 3.5z"/>
        <path d="M58.6 61.4l2-3.5 10 5.8-2 3.5z"/>
        <path d="M13.8 32.6l-.6 1.1v1.5L59 61.7l2-3.4-45.7-26.5z"/>
        <path d="M59 58.3l2 3.4 45.7-26.5V33l-2.1-1.2z"/>
        <path d="M58 112.8l2 1.2 2-1.2V60h-4z"/>
    </g>
</svg>
