<?xml version="1.0" encoding="utf-8"?>
<!-- Generator: Adobe Illustrator 22.0.1, SVG Export Plug-In . SVG Version: 6.00 Build 0)  -->
<svg version="1.1" id="Laag_1" xmlns="http://www.w3.org/2000/svg" xmlns:xlink="http://www.w3.org/1999/xlink" x="0px" y="0px"
	 viewBox="0 0 120 120" style="enable-background:new 0 0 120 120;" xml:space="preserve">
<path fill="currentColor" d="M107.9,35.8c-1.2-4.3-4.5-7.7-8.8-8.9C91.3,24.8,60,24.8,60,24.8s-31.3,0-39.1,2.1c-4.3,1.2-7.7,4.6-8.8,8.9
	C10,43.6,10,60,10,60s0,16.4,2.1,24.2c1.2,4.3,4.5,7.7,8.8,8.9c7.8,2.1,39.1,2.1,39.1,2.1s31.3,0,39.1-2.1c4.3-1.2,7.7-4.6,8.8-8.9
	C110,76.4,110,60,110,60S110,43.6,107.9,35.8z M49.8,74.9V45.1L75.9,60L49.8,74.9z"/>
</svg>
