<svg xmlns="http://www.w3.org/2000/svg" style="position:absolute; width: 0; height: 0"><symbol viewBox="0 0 300 300" id="icon-3d-kit"><path d="M150 0L20.1 75v150L150 300l129.9-75V75L150 0z" fill="#fff" fill-opacity=".9"></path><path d="M150 5.1l125.5 72.4v144.9L150 294.9 24.5 222.4V77.6L150 5.1m0-5.1L20.1 75v150L150 300l129.9-75V75L150 0z" fill="currentColor"></path><g fill="currentColor"><path d="M47.9 89.4h5l11.3 33.1h-4.8l-2.9-8.6H44.2l-2.9 8.6h-4.8l11.4-33.1zm-2.2 19.9h9.2l-4.6-13.6-4.6 13.6zM87.5 122.5h-4.1l-.5-1.8-.2-.2-.2.2c-1.4 1.4-3.6 2.3-5.9 2.3-5.9 0-10.9-4.5-10.9-11.1s5-11.1 10.9-11.1c2.2 0 4.5.9 5.9 2.3l.2.2.3-.3V88h4.5v34.5zm-10.6-17.7c-4.3 0-6.6 3.2-6.6 7s2.3 7 6.6 7c3.9 0 6.6-3.2 6.6-7s-2.8-7-6.6-7zM105.7 101.2h4.5l-7.7 21.3h-4.1l-7.7-21.3h4.5l5.2 15.2 5.3-15.2zM133.4 122.5h-4.1l-.5-1.8-.2-.2-.2.2c-1.4 1.4-3.6 2.3-5.9 2.3-5.9 0-10.9-4.5-10.9-11.1s5-11.1 10.9-11.1c2.3 0 4.5.9 5.9 2.3l.2.2.2-.2.5-1.8h4.1v21.2zm-10.7-17.7c-4.3 0-6.6 3.2-6.6 7s2.3 7 6.6 7c3.9 0 6.6-3.2 6.6-7s-2.7-7-6.6-7zM138.8 101.2h4.1l.5 1.8.2.2.2-.2c.9-1.4 3.2-2.3 5-2.3 5.4 0 8.6 3.6 8.6 8.6v13.2h-4.5v-13.2c-.1-2.9-1.5-4.5-4.5-4.5-2.7 0-4.9 2.2-5 4.8v12.9h-4.5v-21.3h-.1zM172.1 118.9c2.7 0 4.8-1.8 5.5-3.6l3.5 2.3c-1.8 3.2-5 5.4-9.3 5.4-5.7 0-10.9-4.5-10.9-11.1s5.2-11.1 10.9-11.1c4.3 0 7.5 2.3 9.3 5.4l-3.5 2.3c-.7-1.8-2.8-3.6-5.5-3.6-4.3 0-6.7 3.2-6.7 7s2.4 7 6.7 7zM187.8 113c0 3.2 2.3 5.9 6.1 5.9 2.7 0 4.6-1.4 5.3-3.2l3.8 1.8c-1.8 3.2-5 5.4-9.3 5.4-5.7 0-10.4-4.5-10.4-11.1s4.5-11.1 10.4-11.1c5.4 0 10 4.3 10 10.9l-.5 1.4h-15.4zm.2-4h10.9c-.2-2.4-2.5-4.2-5.2-4.2-3.2 0-5 1.8-5.7 4.2zM227.9 122.5h-4.1l-.5-1.8-.2-.2-.2.2c-1.4 1.4-3.6 2.3-5.9 2.3-5.9 0-10.9-4.5-10.9-11.1s5-11.1 10.9-11.1c2.2 0 4.5.9 5.9 2.3l.2.2.2-.2V88h4.5v34.5h.1zm-10.6-17.7c-4.3 0-6.6 3.2-6.6 7s2.3 7 6.6 7c3.9 0 6.6-3.2 6.6-7s-2.8-7-6.6-7z"></path></g><g fill="currentColor"><path d="M75.1 148.2l-9.7 7.8c5.9.3 10.2 4.7 10.2 10.6 0 5.2-4.3 10.7-10.9 10.7-6.4 0-10.9-4.8-10.9-10.2h4.5c0 3.4 2.7 5.9 6.4 5.9 3.6 0 6.4-2.9 6.4-6.4 0-4.1-2.9-6.6-6.8-6.6h-4.6v-4.1l9.3-7.8H55.1v-4.5h17.2l2.8 4.6zM81 143.7h7.5c9.8 0 17 6.8 17 16.6s-7.3 16.6-17 16.6H81v-33.2zm4.7 4.5v24h2.9c7.5 0 12-4.5 12-12s-4.5-12-12-12h-2.9zM120.9 155.5h4.1l.4 1.8.3.2.2-.2c1.4-1.4 3.6-2.3 5.9-2.3 5.9 0 10.9 4.5 10.9 11.1s-5 11.1-10.9 11.1c-2.2 0-4.5-.9-5.9-2.3l-.2-.2-.3.2v11.4h-4.5v-30.8zm10.7 17.7c4.3 0 6.6-3.2 6.6-7 0-3.9-2.3-7-6.6-7-3.9 0-6.6 3.2-6.6 7s2.7 7 6.6 7zM146.7 155.5h4.1l.5 2.3.2.2.2-.2c1.4-1.8 3.2-2.7 5-2.7.9 0 1.4 0 2.3.5v4.1h-2.7c-2.7 0-4.9 2.2-5 4.8v12.4h-4.5v-21.4h-.1zM162.2 146.4h4.5v5h-4.5v-5zm0 9.1h4.4v21.3h-4.4v-21.3zM172.1 155.5h4.1l.5 1.8.2.2.2-.2c.9-1.4 3.2-2.3 5-2.3 5.4 0 8.6 3.6 8.6 8.6v13.2h-4.5v-13.2c-.1-2.9-1.5-4.5-4.5-4.5-2.7 0-4.9 2.2-5 4.8v12.9h-4.5v-21.3h-.1zM193.2 155.5h4.2V151l3.6-4.5h.9v9.1h4.6v4.1h-4.6v10.9c0 1.4 1 2.3 2.3 2.3l2.7-.5v4.1l-2.5.5c-4.5 0-7-2.3-7-6.4v-10.9h-4.2v-4.2zM210.9 146.4h4.5v5h-4.5v-5zm.1 9.1h4.4v21.3H211v-21.3zM220.9 155.5h4.1l.5 1.8.2.2.2-.2c.9-1.4 3.2-2.3 5-2.3 5.4 0 8.6 3.6 8.6 8.6v13.2H235v-13.2c-.1-2.9-1.5-4.5-4.5-4.5-2.7 0-4.9 2.2-5 4.8v12.9H221v-21.3h-.1zM264.9 177.3c0 6-4.8 9.3-10.4 9.3-5.4 0-9.8-3-10.4-7.6l4.3-1.4c.2 3 2.7 4.9 5.9 4.9 3.4 0 6.2-1.8 6.2-5v-3.2l-.3-.2-.2.2c-1.4 1.4-3.7 2.3-5.9 2.3-5.9 0-10.6-4.2-10.6-10.8s4.7-10.8 10.6-10.8c2.3 0 4.5.9 5.9 2.3l.2.2.3-.2.4-1.8h4.1v21.8h-.1zm-10.4-18.2c-4.1 0-6.6 2.9-6.6 6.7 0 3.9 2.5 6.7 6.6 6.7 3.6 0 6.4-2.7 6.4-6.7-.1-4-2.8-6.7-6.4-6.7z"></path></g><g fill="currentColor"><path d="M152.6 209.8h5.9L148.2 220l10.7 11.1H153l-9-9.1v9.1h-4.5v-34.5h4.5v21.8l8.6-8.6zM161.2 200.7h4.5v5h-4.5v-5zm0 9.1h4.4v21.3h-4.4v-21.3zM168.9 209.8h4.2v-4.5l3.6-4.5h.9v9.1h4.6v4.1h-4.6v10.9c0 1.4 1 2.3 2.3 2.3l2.7-.5v4.1l-2.5.5c-4.5 0-7-2.3-7-6.4V214h-4.2v-4.2z"></path></g></symbol><symbol viewBox="0 0 120 120" id="icon-account"><path fill="currentColor" d="M60 64.7c-16.5 0-29.8-13.4-29.8-29.8C30.2 18.4 43.5 5.1 60 5.1s29.8 13.4 29.8 29.8c0 16.5-13.3 29.8-29.8 29.8zm0-49.6c-11 0-19.8 8.9-19.8 19.8 0 11 8.9 19.8 19.8 19.8s19.8-8.9 19.8-19.8S70.9 15.1 60 15.1zM115 114.9H5v-5c0-16.6 13.4-30 30-30h50c16.6 0 30 13.4 30 30v5zm-99.4-10h88.7c-2.3-8.8-10.2-15-19.4-15H35c-9.1 0-17.1 6.2-19.4 15z"></path></symbol><symbol viewBox="0 0 120 120" id="icon-angle-down"><path fill="currentColor" d="M109.8 38.5l-50 50.1-49.7-50.1 7.1-7.1 42.6 42.9 43-42.8z"></path></symbol><symbol viewBox="0 0 120 120" id="icon-angle-left"><path fill="currentColor" d="M81.5 109.8l-50.1-50 50.1-49.7 7.1 7.1-43 42.6 42.9 43z"></path></symbol><symbol viewBox="0 0 120 120" id="icon-angle-right"><path fill="currentColor" d="M38.5 109.8l-7-7 42.9-43-43-42.6 7.1-7.1 50.1 49.7z"></path></symbol><symbol viewBox="0 0 120 120" id="icon-angle-up"><path fill="currentColor" d="M109.8 81.4l-7 7-43-42.9-42.6 43.1-7.1-7.2 49.7-50z"></path></symbol><symbol viewBox="0 0 120 120" id="icon-arrow-down"><path fill="currentColor" d="M55 9.9v81L38.5 74.4l-7.1 7L60 110.1l28.5-28.7-7.2-7L65 90.9v-81z"></path></symbol><symbol viewBox="0 0 120 120" id="icon-arrow-left"><path fill="currentColor" d="M110.1 55h-81l16.5-16.5-7-7L9.9 60l28.7 28.6 7-7.2-16.5-16.3h81z"></path></symbol><symbol viewBox="0 0 120 120" id="icon-arrow-right"><path fill="currentColor" d="M81.5 31.5l-7 7L90.9 55H10v10.1h80.9L74.5 81.4l7 7.2L110 60z"></path></symbol><symbol viewBox="0 0 120 120" id="icon-arrow-up"><path fill="currentColor" d="M65 110.1v-81l16.5 16.5 7-7L60 9.9 31.5 38.6l7.1 7L55 29.1v81z"></path></symbol><symbol viewBox="0 0 120 120" id="icon-chat"><path fill="currentColor" d="M60.1 20c22.1 0 40 17.9 40 40s-17.9 40-40 40H34.2l4.7-4.7-7.1-6.9c-15.6-15.6-15.7-40.9-.1-56.6C39.2 24.2 49.5 20 60.1 20m0-10c-27.6 0-50 22.3-50.1 49.9 0 13.3 5.3 26.1 14.7 35.5L10 110h50c27.6 0 50-22.4 50-50 .2-27.6-22.3-50-49.9-50z"></path></symbol><symbol viewBox="0 0 120 120" id="icon-checkmark"><path fill="currentColor" d="M113 29.1l-8.8-8.9-61.9 61.9-26.5-26.5L7 64.4 33.5 91l8.8 8.8 8.8-8.8z"></path></symbol><symbol viewBox="0 0 120 120" id="icon-close"><path fill="currentColor" d="M110.7 16.4l-7.1-7.1L60 52.9 16.4 9.3l-7.1 7.1L52.9 60 9.3 103.6l7.1 7.1L60 67l43.6 43.7 7.1-7.1L67.1 60z"></path></symbol><symbol viewBox="0 0 120 120" id="icon-cloud"><path fill="currentColor" d="M114.8 94.8H5.1V70.1c0-3.7.8-7.2 2.5-10.3 4.7-9.1 14.8-13.6 24.4-11.7C35.7 37 44.9 28.6 56.6 26c8.8-2 17.8-.4 25.4 4.4 6.5 4.1 11.3 10.2 13.8 17.4 10.8 1.6 19.1 11 19.1 22.3v24.7h-.1zm-99.7-10h89.7V70.1c0-6.9-5.6-12.5-12.5-12.5h-4.5l-.9-3.9c-1.4-6.2-5-11.4-10.4-14.8-5.3-3.4-11.7-4.5-17.8-3.1-9.6 2.2-16.8 9.8-18.3 19.6l-1.1 6.8-6.2-3.2c-6-3.1-13.5-.7-16.7 5.4-.9 1.7-1.3 3.6-1.3 5.7v14.7z"></path></symbol><symbol viewBox="0 0 120 120" id="icon-connect"><path fill="currentColor" d="M104.8 43.9c-5 0-9 4-9 9v-.7l-24 3.6c-.9-3.4-3-6.3-5.7-8.4l8.2-14.1a9 9 0 0 0 11.3-5.9 9 9 0 0 0-8.5-11.7A9 9 0 0 0 71 31.3l-8.2 14.1c-1.9-.8-4-1.3-6.3-1.3-3.6 0-7 1.2-9.6 3.3L22.7 22.5a9 9 0 0 0-7.6-13.9c-5 0-9 4-9 9s4 9 9 9c1.7 0 3.3-.5 4.7-1.3L44 50.1a16.2 16.2 0 0 0 2.1 22.2L32 93.9a9 9 0 0 0-11.5 5.4c-1.7 4.7.7 9.8 5.4 11.5s9.8-.7 11.5-5.4c1.2-3.2.4-6.9-2-9.3l14.2-21.6c5.4 2.7 11.9 2 16.7-1.7l10.4 10.6a9 9 0 0 0 7.6 13.9c5 0 9-4 9-9s-4-9-9-9c-1.7 0-3.3.5-4.7 1.3L69.1 70c2.2-2.7 3.5-6.2 3.5-9.9v-.4l23.8-3.6a9 9 0 0 0 8.4 5.8c5 0 9-4 9-9s-4-9-9-9zM77.2 19.7c2.8 0 5 2.2 5 5s-2.2 5-5 5-5-2.2-5-5 2.2-5 5-5zm-62.1 2.9a5 5 0 0 1-5-5 5 5 0 0 1 5-5 5 5 0 0 1 5 5 5 5 0 0 1-5 5zm13.8 84.7c-2.8 0-5-2.2-5-5s2.2-5 5-5 5 2.2 5 5-2.2 5-5 5zm55.3-24c2.8 0 5 2.2 5 5s-2.2 5-5 5-5-2.2-5-5 2.2-5 5-5zM56.5 72.1a12 12 0 0 1-12-12c0-6.6 5.4-12 12-12s12 5.4 12 12a12 12 0 0 1-12 12zm48.3-14.2a5 5 0 0 1-5-5 5 5 0 0 1 5-5 5 5 0 0 1 5 5 5 5 0 0 1-5 5z"></path></symbol><symbol viewBox="0 0 120 120" id="icon-cura"><g fill="currentColor"><path d="M114.3 87.1a12 12 0 0 1-8.6 4H14.3a12 12 0 0 1-8.6-4h108.6m5.7-4H0v.8c0 4.6 6.3 11.2 14.3 11.2h91.4c8 0 14.3-6.7 14.3-11.2v-.8z"></path><path d="M106 28.9v54.2H14V28.9h92m4-4H10v62.2h100V24.9z"></path><path d="M60.5 60.5h11.8v6.6H60.5c-7.7 0-12.5-5.3-12.5-12.8s4.7-12.7 12.5-12.7h11.8v6.6H60.5c-3.9 0-5.9 2.8-5.9 6.1 0 3.4 2 6.2 5.9 6.2m-8.2-27.6L36.9 48.5v30.6h30.7l15.6-15.6V32.9H52.3z"></path></g></symbol><symbol viewBox="0 0 120 120" id="icon-download"><path fill="currentColor" d="M10 100h100v10H10zM81.5 56.4L65 72.9V10H55v62.9L38.5 56.4l-7 7.1L60 92l28.5-28.5z"></path></symbol><symbol viewBox="0 0 120 120" id="icon-dual-extrusion"><g fill="currentColor"><path d="M84 17.3c.5 0 .9.4.9.8v42.1c0 .5-.3.8-.8.8H36c-.5 0-.8-.3-.8-.8V18.1c0-.5.3-.8.8-.8h48m0-4H36c-2.6-.1-4.7 2-4.8 4.6v42.3c0 2.7 2.1 4.8 4.8 4.8h48.1c2.7 0 4.8-2.1 4.8-4.8V18.1a5.1 5.1 0 0 0-4.9-4.8z"></path><path d="M80.4 4v6.2c0 5.4 4.2 9.6 9.6 9.6h18.6l.1.1v.3l-.1.2L92.5 62l-.1.2c-.1.3-.6.6-1 .6h-3.5L86 61.6a4 4 0 0 0-2.1-.6h-48c-.8 0-1.5.2-2.2.6l-1.8 1.1h-3.6c-.4 0-.9-.3-1-.8l-16-41.8v-.3l.2-.1H30c5.4 0 9.6-4.2 9.6-9.6V4h40.8m4-4H35.5v10.2c0 3.1-2.4 5.6-5.6 5.6H11c-2.4.3-4 2.5-3.7 4.8 0 .4.1.7.3 1.1l16 41.8c.8 2 2.7 3.3 4.8 3.3h4.8L36 65h47.9l2.9 1.8h4.7a5 5 0 0 0 4.8-3.3l16.2-41.7c1-2.2 0-4.7-2.2-5.7-.4-.2-.7-.3-1.1-.3H90c-3 .1-5.5-2.4-5.6-5.4V0zM49.2 99.2H23.7v-3h22.5V74.4h3v24.8zm-25.5 4h47.9v3H23.7v-3zm0 6.9h47.9v3H23.7v-3zm0 6.9h47.9v3H23.7v-3z"></path><path d="M68.1 64.9l3.9 3.8 3.8-3.8h-7.7zm-14.7-.2H42l-.4.3 6 5.9 6.1-5.9z"></path></g></symbol><symbol viewBox="0 0 120 120" id="icon-edit"><path fill="currentColor" d="M92.8 2.5L14.9 80.4 2.5 117.5l37.1-12.4 77.8-77.8L92.8 2.5zm10.6 24.8l-62 62-10.7-10.6 62-62 10.7 10.6zm-85 74.4l5.3-15.9 10.6 10.6-15.9 5.3z"></path></symbol><symbol viewBox="0 0 120 120" id="icon-facebook"><path fill="currentColor" d="M104.5 10h-89c-3 0-5.5 2.5-5.5 5.5v89c0 3 2.5 5.5 5.5 5.5h47.9V71.3h-13V56.2h13V45.1c0-12.9 7.9-19.9 19.4-19.9 5.5 0 10.3.4 11.6.6v13.5h-8c-6.3 0-7.5 3-7.5 7.3v9.6h14.9L92 71.3H79V110h25.5c3 0 5.5-2.5 5.5-5.5v-89c0-3-2.5-5.5-5.5-5.5z"></path></symbol><symbol viewBox="0 0 120 120" id="icon-file"><path fill="currentColor" d="M35 55.3h50v10H35zM35 80.3h37.5v10H35z"></path><path fill="currentColor" d="M102.5 29.7l-25-25h-60v110.5h85V29.7zm-14.1 0H77.5V18.9l10.9 10.8zm4.1 75.6h-65V14.7h40v25h25v65.6z"></path></symbol><symbol viewBox="0 0 120 120" id="icon-fullscreen"><path fill="currentColor" d="M100 50.3h10V10H69.7v10h23.2L20 92.9V69.6H10V110h40.4v-10H27.1L100 27z"></path></symbol><symbol viewBox="0 0 120 120" id="icon-geo"><path fill="currentColor" d="M60 5C29.6 5 5 29.6 5 60s24.6 55 55 55 55-24.6 55-55S90.4 5 60 5zm44.7 50H89.9c-.6-11.7-3.2-23.2-7.6-34.1C94.8 28 103.1 40.7 104.7 55zM69.1 15.9C75.6 29.1 79.2 42 80 55H40.1c.7-13 4.3-26 10.8-39.1 6-1.2 12.2-1.2 18.2 0zm-31.3 5c-4.4 10.9-7 22.4-7.6 34.1H15.3c1.6-14.3 10-27 22.5-34.1zM15.3 65h14.9c.6 11.7 3.2 23.2 7.6 34.1C25.3 92 16.9 79.3 15.3 65zm35.6 39.1C44.4 91 40.8 78 40.1 65H80c-.7 13-4.4 26-10.9 39.1-6 1.2-12.2 1.2-18.2 0zm31.4-5c4.4-10.9 7-22.4 7.6-34.1h14.8c-1.6 14.3-9.9 27-22.4 34.1z"></path></symbol><symbol viewBox="0 0 120 120" id="icon-hexagon-fill"><path fill="currentColor" d="M59.962 0l51.961 30v60l-51.961 30L8 90V30z"></path></symbol><symbol viewBox="0 0 120 120" id="icon-hexagon"><path stroke="currentColor" stroke-width="10" d="M59.962 5.774L13 32.887v54.226l46.962 27.113 46.961-27.113V32.887L59.962 5.774z" fill="none" fill-rule="evenodd"></path></symbol><symbol viewBox="0 0 120 120" id="icon-info"><circle fill="currentColor" cx="60" cy="35.8" r="6.2"></circle><path fill="currentColor" d="M55 48.2h10v40H55z"></path><path fill="currentColor" d="M60 15.2c24.7 0 44.8 20.1 44.8 44.8S84.7 104.8 60 104.8 15.2 84.7 15.2 60 35.3 15.2 60 15.2m0-10C29.7 5.2 5.2 29.7 5.2 60s24.6 54.8 54.8 54.8 54.8-24.6 54.8-54.8S90.3 5.2 60 5.2z"></path></symbol><symbol viewBox="0 0 120 120" id="icon-instagram"><g fill="currentColor"><path d="M60 19c13.4 0 14.9.1 20.2.3 4.9.2 7.5 1 9.3 1.7 2.3.9 4 2 5.7 3.7 1.7 1.7 2.8 3.4 3.7 5.7.7 1.8 1.5 4.4 1.7 9.3.2 5.3.3 6.9.3 20.2s-.1 14.9-.3 20.2c-.2 4.9-1 7.5-1.7 9.3-.9 2.3-2 4-3.7 5.7-1.7 1.7-3.4 2.8-5.7 3.7-1.8.7-4.4 1.5-9.3 1.7-5.3.2-6.9.3-20.2.3s-14.9-.1-20.2-.3c-4.9-.2-7.5-1-9.3-1.7-2.3-.9-4-2-5.7-3.7-1.7-1.7-2.8-3.4-3.7-5.7-.7-1.8-1.5-4.4-1.7-9.3-.3-5.2-.4-6.7-.4-20.1s.1-14.9.3-20.2c.2-4.9 1-7.5 1.7-9.3.9-2.3 2-4 3.7-5.7 1.7-1.7 3.4-2.8 5.7-3.7 1.8-.7 4.4-1.5 9.3-1.7 5.4-.3 6.9-.4 20.3-.4m0-9c-13.6 0-15.3.1-20.6.3-5.3.2-9 1.1-12.1 2.3-3.3 1.3-6.1 3-8.9 5.8-2.8 2.8-4.5 5.6-5.8 8.9-1.2 3.2-2.1 6.8-2.3 12.1-.2 5.3-.3 7-.3 20.6 0 13.6.1 15.3.3 20.6.2 5.3 1.1 9 2.3 12.1 1.3 3.3 3 6.1 5.8 8.9 2.8 2.8 5.6 4.5 8.9 5.8 3.2 1.2 6.8 2.1 12.1 2.3 5.3.2 7 .3 20.6.3s15.3-.1 20.6-.3c5.3-.2 9-1.1 12.1-2.3 3.3-1.3 6.1-3 8.9-5.8 2.8-2.8 4.5-5.6 5.8-8.9 1.2-3.2 2.1-6.8 2.3-12.1.2-5.3.3-7 .3-20.6s-.1-15.3-.3-20.6c-.2-5.3-1.1-9-2.3-12.1-1.3-3.3-3-6.1-5.8-8.9-2.8-2.8-5.6-4.5-8.9-5.8-3.2-1.2-6.8-2.1-12.1-2.3-5.3-.2-7-.3-20.6-.3z"></path><path d="M60 34.3a25.7 25.7 0 1 0 0 51.4 25.7 25.7 0 1 0 0-51.4zm0 42.4c-9.2 0-16.7-7.5-16.7-16.7S50.8 43.3 60 43.3 76.7 50.8 76.7 60 69.2 76.7 60 76.7z"></path><circle cx="86.7" cy="33.3" r="6"></circle></g></symbol><symbol viewBox="0 0 120 120" id="icon-like"><path fill="currentColor" d="M60.4 110.3L14.1 64C2.3 52.5 2 33.7 13.5 21.9s30.4-12 42.1-.5l.5.5 4.1 4.1 4.1-4.1c11.6-11.6 30.5-11.6 42.1 0 11.6 11.6 11.6 30.5 0 42.1l-46 46.3zM35.2 23.2C24.3 23.2 15.4 32 15.4 43c0 5.3 2.1 10.3 5.8 14l39.2 39.2L99.6 57c7.8-7.7 7.9-20.2.3-28-7.7-7.8-20.2-7.9-28-.3l-.3.3-11.2 11.2L49.2 29c-3.7-3.8-8.8-5.8-14-5.8z"></path></symbol><symbol viewBox="0 0 120 120" id="icon-linkedin"><path fill="currentColor" d="M102.6 10H17.4a7.3 7.3 0 0 0-7.4 7.2v85.6c0 4 3.3 7.2 7.4 7.2h85.2c4.1 0 7.4-3.2 7.4-7.2V17.2c0-4-3.3-7.2-7.4-7.2zM39.7 95.2H24.8V47.5h14.8v47.7zM32.2 41a8.6 8.6 0 1 1 0-17.2 8.6 8.6 0 0 1 0 17.2zm63 54.2H80.4V72c0-5.5-.1-12.7-7.7-12.7-7.7 0-8.9 6-8.9 12.3v23.6H49V47.5h14.2V54h.2c2-3.8 6.8-7.7 14-7.7 15 0 17.8 9.9 17.8 22.7v26.2z"></path></symbol><symbol viewBox="0 0 120 120" id="icon-location"><path fill="currentColor" d="M59.9 116l-31-31.1c-19-17.1-20.6-46.5-3.4-65.5C42.7.3 72-1.2 91.1 15.9s20.6 46.5 3.4 65.6c-1.1 1.2-2.2 2.4-3.4 3.4L59.9 116zm0-102c-20.1 0-36.4 16.3-36.4 36.4 0 10.4 4.4 20.2 12.1 27.1l.2.2 24.1 24.1 24.3-24.3c15-13.4 16.3-36.4 2.9-51.4C80.2 18.4 70.3 14 59.9 14z"></path><path fill="currentColor" d="M59.9 71.5c-9.7 0-17.5-7.8-17.5-17.5s7.8-17.5 17.5-17.5S77.4 44.3 77.4 54c0 9.6-7.8 17.5-17.5 17.5zm0-25c-4.1 0-7.5 3.4-7.5 7.5s3.4 7.5 7.5 7.5 7.5-3.4 7.5-7.5c0-4.2-3.3-7.5-7.5-7.5z"></path></symbol><symbol viewBox="0 0 808.9 147" id="icon-logo-ultimaker"><g fill="currentColor"><ellipse transform="rotate(-45.001 252.415 13.92)" cx="252.4" cy="13.9" rx="13.9" ry="13.9"></ellipse><path d="M81.4 118.4c0 3.2-2.6 5.8-5.8 5.8H29.1c-3.2 0-5.8-2.6-5.8-5.8V18H0v86.5c0 24.1 19.6 42.4 42.4 42.4h21.1c21.5 0 41.2-18.5 41.2-42.4V18H81.4v100.4zM126.5 7.2h23.3v138.7h-23.3zm114.3 34.1h23.3v104.6h-23.3zM200.5 18h-23.2v23.2h-10.5v22.7h10.5v82h23.2v-82h23.3V41.3h-23.3zm297.9 23.3h-39.6v22.6h43.7c3.2 0 5.8 2.6 5.8 5.8v10.9h-36.6c-18.3 0-33.2 14.9-33.2 33.2s14.9 33.2 33.2 33.2h16.6c9.5 0 17.5-6.4 20-15v13.9h23.3V74.5c0-18.3-14.9-33.2-33.2-33.2zm9.9 77.2c0 3.2-2.6 5.8-5.8 5.8h-34.9c-3.2 0-5.8-2.6-5.8-5.8V105c0-3.2 2.6-5.8 5.8-5.8h40.7v19.3zm130.5-77.2h-26.9l-34.1 39.3H575V7.3h-23.3v138.6H575V99.2h2.8l39.9 46.6h28.8l-48.8-57zm-242.2 0H386c-11.1 0-20.4 7.9-22.4 18.5-3.6-10.8-13.2-18.5-25.2-18.5h-9c-10.4 0-19.1 6.9-21.9 16.4V43.6h-23.3v102.3h23.3V69.7c0-3.2 2.6-5.8 5.8-5.8h23.3c3.2 0 5.8 2.6 5.8 5.8v76.2h23.3V69.7c0-3.2 2.6-5.8 5.8-5.8h23.3c3.2 0 5.8 2.6 5.8 5.8v76.2h23.3V68.5c-.1-15-12.3-27.2-27.3-27.2zm399.3 0c-10.3 0-19.1 6.7-22.1 16.1V43.6h-23.3v102.3h23.3V69.7c0-3.2 2.6-5.8 5.8-5.8h29.1V41.3h-12.8z"></path><path d="M689.9 40.2h-4.6c-24.7 0-44.6 20-44.6 44.6v9.1c0 28.7 23.3 51.9 51.9 51.9h21.6v-21.6h-22.7c-14.6 0-26.6-10.8-28.3-24.9h71.3V84.8c.1-24.7-19.9-44.6-44.6-44.6zm-27.7 40.7c2.6-11.6 13-20.2 25.4-20.2 12.4 0 22.7 8.6 25.4 20.2h-50.8z"></path></g></symbol><symbol viewBox="0 0 120 120" id="icon-mail"><path fill="currentColor" d="M8.8 20.4v79.3h102.4V20.4H8.8zm85.3 10L60 64.5 25.9 30.4h68.2zM18.8 89.6V37.4L60 78.6l41.2-41.2v52.2H18.8z"></path></symbol><symbol viewBox="0 0 120 120" id="icon-material"><g fill="currentColor"><path d="M73.1 16c13 0 24 20.1 24 44s-11 44-24 44-24-20.1-24-44 11-44 24-44m0-4c-15.5 0-28 21.5-28 48s12.5 48 28 48 28-21.5 28-48-12.5-48-28-48z"></path><path d="M73.1 44.2c.7 0 3.1.3 5.6 4a23 23 0 0 1 2.7 11.6v.2c.1 4-.8 8-2.8 11.5-1.7 2.9-3.6 4.3-5.6 4.3-2.5 0-4.4-2.3-5.5-4.2A24.3 24.3 0 0 1 64.7 60v-.2c-.1-4 .8-8 2.8-11.6.7-1.2 1.7-2.4 2.7-3.1 1-.6 1.9-.9 2.9-.9m0-4c-1.8 0-3.5.6-5.1 1.6-1.6 1.1-3 2.8-4 4.5A27.2 27.2 0 0 0 60.7 60c-.1 4.8 1 9.5 3.3 13.7 2.3 3.9 5.4 6.2 9 6.2s6.7-2.2 9.1-6.3c2.3-4.2 3.4-8.9 3.3-13.7.1-4.8-1-9.5-3.3-13.7-3.3-5.1-7.1-6-9-6zM26.9 60h4v48h-4z"></path><path d="M47.1 60c0-17.1 5.3-32.1 13.2-40H46.9c-9.5 0-20 16.4-20 40s10.5 40 20 40h13.5c-7.9-7.9-13.3-22.9-13.3-40z"></path><path d="M22.9 60c0-23.9 11-44 24-44 4.8 0 9.3 2.7 13.1 7.4.9-1.1 1.8-2.1 2.8-2.9-4.5-5.3-10-8.4-15.9-8.4-15.5 0-28 21.5-28 48 0 9.1 1.5 17.5 4 24.8V60zM60 96.6c-3.8 4.6-8.3 7.4-13.1 7.4-4.3 0-8.4-2.2-12-6.1v5.5c3.6 3 7.7 4.6 12 4.6 5.9 0 11.4-3.1 15.9-8.4-1-.9-1.9-1.9-2.8-3z"></path></g></symbol><symbol viewBox="0 0 120 120" id="icon-menu"><path fill="currentColor" d="M10 55h100v10H10zM10 22.5h100v10H10zM10 87.5h100v10H10z"></path></symbol><symbol viewBox="0 0 120 120" id="icon-mobile"><path fill="currentColor" d="M94.5 114.9h-69V5.1h69v109.8zm-59.3-9.7h49.7V14.8H35.2v90.4z"></path><circle fill="currentColor" cx="60" cy="92.8" r="6.2"></circle></symbol><symbol viewBox="0 0 120 120" id="icon-more"><circle fill="currentColor" cx="105" cy="60" r="6.2"></circle><circle fill="currentColor" cx="60" cy="60" r="6.2"></circle><circle fill="currentColor" cx="15" cy="60" r="6.2"></circle></symbol><symbol viewBox="0 0 120 120" id="icon-notify"><path fill="currentColor" d="M47.5 99.6c0 6.9 5.6 12.5 12.5 12.5s12.5-5.6 12.5-12.5h-25zM102.5 93.2h-85v-5c0-10.5 0-21.4 12.5-23.5V44.2C30 34 35.2 24.5 43.8 19c3.6-9 13.7-13.4 22.7-9.8 4.5 1.8 8 5.3 9.8 9.8C84.8 24.5 90 34 90 44.2v20.4c12.5 2.2 12.5 13 12.5 23.5v5.1zm-74.9-10h64.9c-.1-3-.4-5.7-1.2-7.1-.3-.6-1-1.9-6.2-1.9h-5v-30c0-7.3-3.9-14-10.3-17.5l-1.9-1-.5-2.1c-1-4-5.1-6.4-9.1-5.4-2.6.7-4.7 2.7-5.4 5.4l-.5 2.1-1.9 1C44 30.2 40 36.9 40 44.2v30h-5c-5.9 0-7.2.3-7.4 9z"></path></symbol><symbol viewBox="0 0 120 120" id="icon-play-video"><g fill="currentColor"><path d="M104.2 37l-2.2-3.9v53.7l2.2-3.9-46.5 26.8h4.5L15.8 83l2.2 3.9V33.2L15.8 37l46.5-26.8h-4.5L104.2 37zM60 0L8 30v60l52 30 52-30V30L60 0z"></path><path d="M77.6 60L48.4 43v34l22.4-13.1z"></path></g></symbol><symbol viewBox="0 0 120 120" id="icon-plus"><path fill="currentColor" d="M110 55H65V10.1H55V55H10v10h45v44.8h10V65h45z"></path></symbol><symbol viewBox="0 0 120 120" id="icon-rate-solid"><path fill="currentColor" d="M91.2 110.5L60 93.2l-31.2 17.3 5.9-36.6L9.9 48.3 44.4 43 60 9.5 75.7 43l34.5 5.3-25 25.6 6 36.6z"></path></symbol><symbol viewBox="0 0 120 120" id="icon-rate"><path fill="currentColor" d="M91.2 110.5L60 93.2l-31.2 17.3 5.9-36.6L9.9 48.3 44.4 43 60 9.5 75.7 43l34.5 5.3-25 25.6 6 36.6zm-62.8-56l16 16.4-3.7 22.9L60 83l19.4 10.8L75.7 71l16-16.4-22.1-3.4L60 30.6l-9.6 20.5-22 3.4z"></path></symbol><symbol viewBox="0 0 120 120" id="icon-refresh"><path d="M48 98c-21 0-38-17-38-38s17-38 38-38c11.8 0 22.7 5.3 30 14.6l7.9-6.1C76.7 18.7 62.9 12 48 12 21.5 12 0 33.5 0 60s21.5 48 48 48V98z"></path><path d="M89 77L60 48l7.1-7.1L89 62.8l21.9-21.9L118 48z"></path><path d="M21.1 86.9C6.3 72 6.3 48 21.1 33.1s38.9-14.8 53.7 0c8.3 8.3 12.3 19.8 10.9 31.5l9.9 1.3c1.8-14.8-3.2-29.3-13.7-39.9C63.2 7.3 32.8 7.3 14 26s-18.7 49.1 0 67.9l7.1-7z"></path></symbol><symbol viewBox="0 0 97.2 108" id="icon-resolution"><g fill="currentColor"><path d="M48.6 4.6l40.6 23.6-40.6 23.7L8 28.3 48.6 4.6m0-4.6L0 28.3l48.6 28.2 48.6-28.3L48.6 0zM84 72.1l-4 2.3 9.2 5.3-40.6 23.7L8 79.7l9.2-5.3-4-2.3L0 79.7 48.6 108l48.6-28.3L84 72.1z"></path><path d="M84.4 61.6l-3.9 2.3 8.7 5.1-40.6 23.7L8 69l8.7-5.1-3.9-2.3L0 69l48.6 28.3L97.2 69l-12.8-7.4z"></path><path d="M84.4 51.4l-3.9 2.4 8.7 5-40.6 23.7L8 58.8l8.7-5-3.9-2.4L0 58.8l48.6 28.3 48.6-28.3-12.8-7.4z"></path><path d="M84.4 41.2l-3.9 2.4 8.7 5.1-40.6 23.6L8 48.7l8.7-5.1-3.9-2.4L0 48.7l48.6 28.2 48.6-28.2-12.8-7.5z"></path><path d="M84.4 31.1l-3.9 2.3 8.7 5.1-40.6 23.6L8 38.5l8.7-5.1-3.9-2.3L0 38.5l48.6 28.2 48.6-28.2-12.8-7.4z"></path></g></symbol><symbol viewBox="0 0 49 69" id="icon-robot-ultimaker"><g fill="currentColor" fill-rule="evenodd"><path d="M32.884 7.683a2.414 2.414 0 0 0-.882.116c-.26.085-.493.216-.692.375-.01.01-.024.015-.034.023l-.025.026c-.087.076-.17.16-.245.25-.01.012-.02.028-.028.042a1.774 1.774 0 0 0-.175.274c-.005.01-.013.017-.02.029 0 .005-.002.012-.005.02a1.904 1.904 0 0 0-.123.341l-.006.039a1.8 1.8 0 0 0 .135 1.17c.117.246.286.47.492.66.208.19.452.347.726.46.27.109.57.176.882.186.089.003.177 0 .265-.007.026-.001.054-.006.083-.007.062-.008.12-.016.179-.026l.084-.016a2.726 2.726 0 0 0 .263-.072.185.185 0 0 0 .034-.016c.254-.091.485-.221.68-.388.093-.08.176-.169.252-.262a1.766 1.766 0 0 0 .403-1.122c0-.275-.064-.538-.176-.781a2.068 2.068 0 0 0-.294-.457l-.004-.005a2.175 2.175 0 0 0-.515-.453 2.466 2.466 0 0 0-.38-.202 2.576 2.576 0 0 0-.874-.197M34.318 14.749a.689.689 0 0 0-.45-.178l-11.074-.28a.678.678 0 0 0-.471.153c-.007.003-.011.003-.013.007-.004 0-.004.003-.006.005a.625.625 0 0 0-.14.174l-.001.005c-.004.004-.003.01-.005.015a.487.487 0 0 0-.05.213v.61c0 .08.018.157.055.23.034.07.084.135.147.189a.69.69 0 0 0 .216.13c.084.03.172.049.268.05l11.073.223a.696.696 0 0 0 .248-.04.62.62 0 0 0 .203-.117.524.524 0 0 0 .188-.395v-.588a.573.573 0 0 0-.188-.406M22.14 10.988c.239.214.522.387.835.514.314.126.659.2 1.016.212a3.346 3.346 0 0 0 .773-.075c.006-.003.008-.003.013-.003.077-.02.15-.04.225-.066.015-.005.03-.016.046-.021.131-.046.259-.1.377-.163l.018-.01c.135-.073.263-.16.38-.258.232-.194.421-.427.55-.692.13-.26.203-.55.203-.857 0-.308-.073-.605-.202-.878a2.414 2.414 0 0 0-.551-.735 2.798 2.798 0 0 0-.82-.517 3.03 3.03 0 0 0-1.012-.225 2.928 2.928 0 0 0-1.016.132 2.518 2.518 0 0 0-.762.396c-.024.018-.05.03-.073.047-.046.041-.082.086-.127.127-.05.05-.105.099-.152.151-.059.07-.107.144-.156.22-.04.059-.085.114-.118.18a.112.112 0 0 1-.013.018c-.005.01-.007.022-.013.032a1.819 1.819 0 0 0-.137.374l-.009.041c-.03.136-.051.281-.051.427 0 .311.076.612.21.887.134.278.327.53.566.742M33.026 36.769h.841c.578 0 2.037.232 2.037.232s-1.444.234-2.037.234h-.84l-.082-.002-.127.75-.127-.765c-.668-.053-1.676-.217-1.676-.217s.934-.152 1.604-.21l-.251-1.497-3.117-.106-.17 1.714 1.822.098-1.842.101-.163 1.64h.358c.855 0 3.017.234 3.017.234s-2.139.232-3.017.232h-.404l-.068.67-.066-.67h-.706c-.855 0-2.977-.232-2.977-.232s2.1-.233 2.977-.233h.658l-.16-1.609-4.42.241-.39 1.736-.392-1.736L19.83 37l3.48-.372.366-1.63-4.914-.168 9.487-.325-.142-1.423-2.923-.202-.32 1.413-.329-1.459-5.745-.399 5.729-.397.346-1.539.335 1.491 2.907-.202.23-1.901a72.893 72.893 0 0 1-1.566-.196s.761-.11 1.616-.203l.177-1.465h-.607c-1.041 0-3.629-.358-3.629-.358s2.56-.36 3.63-.36h.694l.133-1.08.13 1.08h.562c1.042 0 3.677.36 3.677.36s-2.607.358-3.677.358h-.474l.17 1.384c.421-.04.816-.066 1.101-.066h1.465c1.008 0 3.55.35 3.55.35-.001 0-2.517.348-3.55.348h-1.465c-.265 0-.634-.024-1.032-.06l.222 1.81 2.457.646-2.457.647-.14 1.388 3.036-.104.459-3.105.466 3.137 4.097.432-4.105.432-.253 1.507h.003zm-10.834-7.311h.946c.65 0 2.293.233 2.293.233s-1.625.232-2.293.232h-.946c-.65 0-2.262-.232-2.262-.232s1.595-.233 2.262-.233zm13.13 2.745h.112c.369 0 1.3.233 1.3.233s-.92.233-1.3.233h-.536c-.368 0-1.281-.233-1.281-.233s.904-.233 1.281-.233h.424zm5.409-8.134a.455.455 0 0 0-.065-.2.647.647 0 0 0-.35-.267.738.738 0 0 0-.247-.04l-24.192.069c-.099 0-.195.017-.284.043a.84.84 0 0 0-.24.121.631.631 0 0 0-.17.174.487.487 0 0 0-.076.214 114.08 114.08 0 0 0-.37 14.724c.063 1.633.163 3.26.297 4.878a.447.447 0 0 0 .076.21.587.587 0 0 0 .168.165c.07.046.149.082.234.105.162.046 6.72.399 6.734.4a13.487 13.487 0 0 1 3.745-1.53c.011-.004.02-.005.029-.007.149-.037.299-.064.45-.096.108-.02.217-.05.328-.068.004 0 .008 0 .01-.003h.005c.022-.003.043-.005.064-.01.054-.007.107-.016.16-.022.01-.004.018-.004.028-.006.023-.002.046-.006.07-.01.097-.017.198-.032.296-.045.061-.008.123-.018.185-.028a13.33 13.33 0 0 1 1.54-.097c.068-.003.137 0 .205 0 .185 0 .372.005.557.016h-.005.124l.06.008h-.004c.142.008.28.023.421.036.1.01.203.017.304.027 1.89.194 3.635 1.033 3.635 1.033.48-.094 5.846-1.162 5.923-1.194a.734.734 0 0 0 .351-.292.55.55 0 0 0 .063-.206c.114-1.508.198-3.019.251-4.53a112.653 112.653 0 0 0-.029-9.058 112.697 112.697 0 0 0-.281-4.514z"></path><path d="M23.723 35l.368 1.629 4.393.24-.171-1.713-4.59-.156M30.55 59.311c-.213.288-.194 2.025-.136 2.39.067.434 2.055.091 2.055.091s-1.04-1.957.693-2.48c.342-.104 1.556-.32 2.819-.553 1.866-.342 3.965-.617 3.965-.617s-1.033-.312-2.627-.121l-.296.037-.274.033h-.003l-3.602.43c-1.693.234-2.288.378-2.595.79"></path><path d="M44.356 44.348v-1.341a3.134 3.134 0 0 0 .562-.449c.087-.093.137-.178.137-.247 0-.098-.026-.224-.073-.353a1.79 1.79 0 0 0-.2-.386 1.257 1.257 0 0 0-.296-.306.57.57 0 0 0-.129-.07v-2.883c.045-.014.09-.023.136-.036.29-.09.563-.212.793-.329l.13.154c.208.25.451.584.662.979.211.394.388.851.466 1.351 0 0 .566 3.199-2.188 3.916zm.001-8.544c.334-.059.728-.14 1.11-.26.106-.032.21-.068.31-.107v.278a8.684 8.684 0 0 1-.236.13c-.41.21-.837.379-1.184.5v-.54zm.001-1.47c.31-.02.675-.05 1.035-.092.131-.016.258-.036.384-.056v.232a11.1 11.1 0 0 1-.343.117c-.372.12-.758.223-1.076.3v-.5zm0-1.61c.427.013.967.035 1.42.055v.226c-.455.092-.997.2-1.42.28v-.561zm0-1.564c.31.055.671.128 1.026.225.135.036.264.076.393.116v.258a8.287 8.287 0 0 0-.42-.031 14.174 14.174 0 0 0-.999-.01v-.558zm.002-1.552c.34.083.743.196 1.127.348.099.04.195.08.29.124v.243a4.97 4.97 0 0 0-.348-.087 8.865 8.865 0 0 0-1.07-.155v-.473zm0-5.73l.042.018c.47.214.962 1.402 1.22 1.975.254.57.406 1.222.406 1.941a.415.415 0 0 1-.035.153.44.44 0 0 1-.358.262c-.048.003-.1.003-.15.005l-.152.006c-.041 0-.084.003-.126.004a26.58 26.58 0 0 1-.847-.037v-4.326zm-1.763.042v20.713c0 .277-.062.549-.176.797-.11.25-.273.48-.47.676a2.553 2.553 0 0 1-1.57.712l-1.451.111-.002-.018-.076-.316a.808.808 0 0 0-.797-.593l-1.534.091-18.453 1.108c-.354.021-.764.306-.91.633l-.357.8a.066.066 0 0 1-.004.009l-1.28.1a2.997 2.997 0 0 1-1.017-.093 2.424 2.424 0 0 1-.834-.41 1.968 1.968 0 0 1-.564-.657 1.8 1.8 0 0 1-.208-.843V23.963c0-.304.075-.595.208-.858.134-.264.326-.502.564-.701.239-.198.52-.36.834-.47.278-.098.582-.154.898-.166.04-.001.079-.005.119-.005l1.201.004a.647.647 0 0 1-.005-.144l.027-.35a.7.7 0 0 1 .693-.642l11.006.153 1.093.016 2.59.035 1.644.024 5.05.07c.304.004.598.221.714.505.02.046.035.095.044.145l.027.146c.006.035.007.07.007.103h.773c.305.003.6.059.864.164.265.103.504.25.706.434.197.183.36.4.47.64.114.242.176.505.176.782v.072zM35.15 55.296v-5.819c.017-.044.024-.078.024-.078s0-.031.005-.08l.383-.036.04 1.937c.691-.553 1.39-1.072 2.243-.853.382.098.7.23.966.37v4.218l-3.661.341zm-3.396 2.024l5.376-.582 1.622-.175a1.55 1.55 0 0 1 1.302.478c.165.175.297.386.39.629.014.037.026.075.039.113.066.212.106.445.106.69v2.731l-1.778.234c-2.354.307-5.865.762-7.129.908-1.97.23-1.862-.483-1.868-.469v-2.165c0-.24.035-.472.1-.693.017-.058.034-.118.055-.173.098-.272.24-.522.418-.74.177-.217.385-.398.618-.535.23-.135.485-.22.75-.25zm.504-5.597c.563.395 1.32.746 2.144.351l.234-.106-.385 3.412-3.087.288v-5.834a1.11 1.11 0 0 1 .022-.15c.117-.01.232-.02.35-.032l-.015 2.731c.151-.355.475-.84.737-.66zm8.664 10.047a.259.259 0 0 1 .139.019.306.306 0 0 1 .117.078.4.4 0 0 1 .074.132c.02.05.03.105.03.169v.406a.5.5 0 0 1-.03.171.578.578 0 0 1-.074.152.5.5 0 0 1-.117.108.35.35 0 0 1-.14.053l-11.462 1.485a.306.306 0 0 1-.275-.098.394.394 0 0 1-.084-.132.524.524 0 0 1-.03-.174v-.424a.57.57 0 0 1 .03-.179.51.51 0 0 1 .085-.158.45.45 0 0 1 .123-.115.372.372 0 0 1 .151-.052l9.127-1.148.127-.016.19-.021.807-.103.746-.094.466-.059zm-13.142 2.534a.545.545 0 0 1-.032.182.51.51 0 0 1-.208.27.367.367 0 0 1-.152.058l-12.203 1.582c-.355-.016-.487-.493-.267-.905L7.647 59.8l7.9 5.161s.132-.02.283-.038l11.557-1.451a.346.346 0 0 1 .152.015.361.361 0 0 1 .208.218.5.5 0 0 1 .032.175v.425zM8.46 46.124c-.07.016-.152.034-.24.05-.094.017-.199.036-.313.05a3.561 3.561 0 0 1-.182.019c-.063.005-.12.013-.186.018h-.027.022-.035c-.085.005-.178.008-.27.012-.056 0-.108.004-.167.004h-.005c-.08 0-.168-.008-.25-.012-.097-.004-.19-.004-.287-.013-.005-.002-.011 0-.016-.002l-.031-.004a5.051 5.051 0 0 1-.558-.089 5.848 5.848 0 0 1-.134-.035c-.002-.002-.008-.003-.012-.004a1.83 1.83 0 0 1-.146-.037c-.047-.014-.094-.031-.14-.046l-.128-.045c-.007-.002-.016-.004-.025-.008l-.157-.065-.036-.018a.03.03 0 0 1-.013-.005l-.074-.031a.021.021 0 0 0-.01-.005h.005c-.054-.025-.105-.054-.158-.083a15.787 15.787 0 0 0-.121-.066h-.001c-.03-.018-.06-.04-.088-.06l-.06-.038c-.04-.03 3.021-.127 3.021-.127s-1.263-.726-1.587-1.043c-.462-.45.712-2.686.821-2.958l-2.327-.96-.505-.209.597.067 2.57.284c-.181-.295-1.543-.56-2.202-.788-.254-.089-.403-.171-.337-.248a.094.094 0 0 0 .008-.008c.138.019.305.035.51.047.378.024.873.038 1.515.038 1.325.001 2.206-.068 2.78-.175a13.875 13.875 0 0 1 .668 1.553c.194.54.36 1.124.436 1.685.077.561.069 1.103-.09 1.566h-.008a1.524 1.524 0 0 1-.242-.023 4.63 4.63 0 0 1-.343-.077 4.467 4.467 0 0 1-.289-.085c-.01-.004-.022-.004-.034-.01l-.02-.004a5.12 5.12 0 0 1-.283-.097 2.549 2.549 0 0 0-.029-.16c-.014-.067-.03-.142-.05-.222a2.811 2.811 0 0 0-.065-.241 1.539 1.539 0 0 0-.22-.47.854.854 0 0 0-.162-.177.617.617 0 0 0-.188-.101.526.526 0 0 0-.209-.024.805.805 0 0 0-.425.168c-.13.097-.252.228-.353.37-.101.145-.183.3-.24.448a1.114 1.114 0 0 0-.092.39c0 .076.064.158.167.244.105.088.252.176.415.267.103.054.217.11.33.161a12.524 12.524 0 0 0 .727.31c.015.076.028.173.035.28a1.69 1.69 0 0 1-.005.333.77.77 0 0 1-.08.294.329.329 0 0 1-.2.17c-.044.012-.102.03-.172.046zm1.156-9.405L9.601 37a2.646 2.646 0 0 1-.2.117c-.676.36-1.411.554-1.566.58-.077.014-.63.1-1.18.13a15.363 15.363 0 0 1-1.18.024c-.14-.011-.76-.07-1.39-.253l.016-.365c.624.038 1.25-.039 1.389-.028.043.002.235.005.493.002.197-.002.43-.009.665-.025.543-.03 1.081-.114 1.157-.129.15-.026.875-.055 1.55-.248.088-.025.176-.054.26-.086zm-.236-.967c-.64.22-1.325.356-1.468.368a20.28 20.28 0 0 1-1.093.06 23.978 23.978 0 0 1-1.094.006c-.143-.003-.82-.098-1.461-.231l-.098-.023.016-.312c.031-.001.062-.002.096-.005.642-.038 1.322-.11 1.464-.11.03 0 .155.003.323.004.207 0 .482 0 .76-.01.504-.012 1.008-.05 1.08-.058.141-.012.816.022 1.456-.026.108-.007.217-.02.32-.033l-.012.263c-.094.037-.19.074-.29.107zm-5.382-1.598c.704-.114 1.666-.262 1.837-.266l.138-.003 1.949-.037c.17-.005 1.131.106 1.84.19v.22c-.7.112-1.648.258-1.816.262l-1.973.039-.115.002c-.172.003-1.15-.108-1.86-.193v-.214zm5.764-1.519v.256a6.116 6.116 0 0 0-.366-.032c-.684-.038-1.407.017-1.561.01a19.789 19.789 0 0 0-1.157-.023c-.251.002-.5.01-.705.017-.238.008-.413.018-.455.021-.147.012-.85-.051-1.52.002v-.358a8.335 8.335 0 0 1 1.508-.33c.04-.002.222-.013.467-.02a21.501 21.501 0 0 1 1.876.004c.153.01.885.126 1.57.336.117.036.232.077.343.117zm-.303-1.286c-.725-.167-1.508-.179-1.671-.197-.079-.012-.661-.07-1.246-.081a19.166 19.166 0 0 0-1.248.018l-.625.005c-.201.008-.437.02-.671.058v-.347c.228-.074.449-.122.64-.16.315-.06.555-.088.64-.093a17.495 17.495 0 0 1 1.272-.018c.596.011 1.19.07 1.274.083.167.02.963.167 1.686.472.086.037.17.075.252.117v.226c-.1-.03-.2-.059-.303-.083zm-5.954-2.788c-.012-.06-.007-.337-.007-.337.174-1.448 3.96-5.51 3.96-5.51s1.637-.496 2.323-.496c.493 0 .96.328.849 1.463-.02.208-.415 4.562-.415 4.562a.31.31 0 0 1-.05.131.45.45 0 0 1-.11.12c-.668.587-5.744.52-6.161.447a.47.47 0 0 1-.389-.38zm18.159 27.993l.002-5.957.356-.038.043 1.966c.722-.579 1.455-1.125 2.351-.896.507.13.913.318 1.226.508v4.045l-3.978.372zm-3.11-3.5c.59.413 1.386.781 2.249.367l.34-.154-.388 3.371-3.428.32v-5.083l.03-.934s.168-.014.44-.04l-.015 2.795c.144-.427.498-.833.772-.643zm-3.264 8.029s.046-.245.075-.362a2.638 2.638 0 0 1 .535-1.02c.193-.226.422-.42.673-.56.256-.143.532-.236.822-.266l7.631-.828a1.718 1.718 0 0 1 1.414.493 1.967 1.967 0 0 1 .489.83c.061.205.095.426.095.66v2.92l-.348.039-9.797 1.146-.47.055s-.924.135-1.132-.568v-1.55c-.407-.309-6.194-4.694-6.17-4.695l6.183 3.706zM14.56 10.31l1.187-.097.5-.04.054-.006c.017 0 .035-.004.053-.003a.587.587 0 0 1 .295.09c.554.337.97 1.571.969 3.116-.003 1.825-.593 3.268-1.296 3.322v.002h-.032c-.015 0-.03.004-.046.003h-.016l-1.237.037-1.577.05-.318.007a.302.302 0 0 0 .063-.014c.374-.11.697-.746.871-1.658.089-.46.138-.99.138-1.558a7.815 7.815 0 0 0-.173-1.678c-.194-.876-.535-1.443-.919-1.451l1.484-.122zm5.361-8.726c.391-.072.915-.106.915.246 0 .372.004 1.15.006 1.639h-.001c-.324.1-.63.233-.92.387V1.585zm1.69 3.68a2.92 2.92 0 0 1 1.005-.12l8.144.434 2.681.143.59.03c.334.016.645.093.932.218.285.123.54.29.756.496.215.202.389.438.507.7.12.26.187.541.187.832v9.742c0 .292-.066.571-.187.823a2.057 2.057 0 0 1-.492.654l-3.758-.07-11.332-.209a2.23 2.23 0 0 1-.417-.582 1.95 1.95 0 0 1-.207-.87V7.239c0-.309.074-.596.207-.858.131-.259.32-.491.559-.68.234-.19.515-.338.826-.436zm11.858-3.57c.377-.058.82-.06.82.264 0 .444.006 1.474.008 1.888-.012 0-.023-.004-.034-.004l-.794-.042V1.696zM1.069 28.48c-.217 1.674.839 2.039.839 2.039v5.328a1.3 1.3 0 0 0-.01.161l.013 1.067-.003.105v.664c-.031.036-.066.072-.097.107a7.95 7.95 0 0 0-.922 1.274 5.459 5.459 0 0 0-.691 1.829 4.059 4.059 0 0 0 .23 2.257c.126.312.287.6.465.872a10.427 10.427 0 0 0 2.863 2.915c1.704 1.183 4.853.92 4.853.92v6.123a3.417 3.417 0 0 0-.193.154 4.25 4.25 0 0 0-.58.562c-.035.04-.073.083-.098.115a3.853 3.853 0 0 0-.502.84c-.079.175-.147.357-.205.568a3.043 3.043 0 0 0-.06.232c-.01.054-.02.104-.025.15-.033.197-.049.379-.049.554v1.916a2.297 2.297 0 0 0-.521.757l-.034.094a2.01 2.01 0 0 0-.132.7v.372c0 .133.014.27.045.401a1.852 1.852 0 0 0 .352.758c.092.123.202.24.318.336l5.951 5.058a2.633 2.633 0 0 0 .95.51 3.103 3.103 0 0 0 1.288.095l12.51-1.634a3.08 3.08 0 0 0 1.008-.31c.34.076.72.088 1.055.042l11.458-1.493c.411-.053.814-.19 1.169-.404.28-.166.522-.373.716-.61.174-.21.308-.443.405-.698.088-.244.134-.492.134-.742v-.409c0-.26-.052-.513-.15-.764-.111-.266-.272-.5-.479-.701l-.064-.059v-2.166c.01-1.246-.343-2.987-2.141-3.419v-6.184c.562-.049 3.56-.37 3.56-2.483.858-.097 3.317-.55 4.308-3.827.23-.763.316-1.54.198-2.325a5.887 5.887 0 0 0-.626-1.846 7.775 7.775 0 0 0-.86-1.28c-.05-.06-.098-.118-.148-.171v-7.534c.157-.101.809-.401.742-1.526-.044-.717-1.886-4.963-2.419-5.535-.64-.69-1.931-1.65-2.724-1.913a4.803 4.803 0 0 0-.52-.226 5.225 5.225 0 0 0-1.705-.302c-.117-.28-.406-.495-.708-.5l-1.102-.02V16.9c1.128-.453 1.82-1.51 1.82-3.032 0-.663-.114-2.295-1.197-3.14a2.323 2.323 0 0 0-.623-.338V8.106l.006-.172c0-.512-.113-1.017-.333-1.498a4.086 4.086 0 0 0-.91-1.254A4.79 4.79 0 0 0 36.1 4.27a5.372 5.372 0 0 0-1.006-.315V1.648c0-.435-.883-1.215-3.707-.252a.1.1 0 0 0-.017.008c-.344.131-.608.437-.608.729v1.52l-7.915-.427a5.658 5.658 0 0 0-1.208.061V1.521c0-.435-.884-1.215-3.706-.253-.397.102-.72.442-.72.766v3.547c0 .078-.008.269-.008.269l-3.646 2.794c-.4.041-.865.112-1.417.214-1.877.356-2.532 2.827-2.527 4.838.013 1.812.486 3.23 1.28 4.02v2.106l-3.679 1.013c-.862.275-5.93 5.97-6.146 7.645z"></path><path d="M16.294 63.72c.444-.013 4.115-.432 4.115-.432s-.798-.177-.455-1.455c.242-.903 2.075-1.315 3.287-1.576 1.211-.26 3.043-.483 3.043-.483s-1.034-.312-2.627-.12l-.297.036-.32.037h-.003s-5.5.63-6.907 1.142c-.428.156-.42 1.747-.387 2.481.018.387.317.379.551.37M17.252 59.426c-.621.049-1.017.784-1.017.784l4.81-.658s-1.295-.323-3.793-.126M34.193 57.96s-1.331-.352-2.349-.268c-.828.069-1.192.941-1.192.941.485-.473 3.375-.665 3.54-.673M8.103 28.16s-1.776-.874-1.433-1.492c.437-.787 1.807-.554 2.296-1.104.78-.877.612-2.319.612-2.319s-1.658-.297-2.091.23c-.77.944-2.912 3.835-3.135 4.157-.796 1.15 3.75.528 3.75.528M16.286 16.174c.175-.018.529-.562.708-1.546a1.021 1.021 0 0 1-.139-.045 1.505 1.505 0 0 1-.405-.21 1.476 1.476 0 0 1-.164-.135c-.155-.144-.223-.364-.39-.503-.25-.208-.558-.21-.825-.078-.029.015-.285.071-.403-.158.02.147.028.298.028.45-.003.481-.1.963-.159 1.27a5.529 5.529 0 0 1-.291 1.018l1.985-.06a.443.443 0 0 1 .055-.003"></path></g></symbol><symbol viewBox="0 0 120 120" id="icon-search"><path fill="currentColor" d="M66.1 10c-24.3 0-43.9 19.7-43.9 43.9 0 9.9 3.4 19.6 9.5 27.3l-21.6 21.6 7.1 7.1 21.5-21.5c19 15.1 46.6 11.9 61.7-7.1s11.9-46.6-7.1-61.7C85.6 13.4 76 10 66.1 10zm0 78c-18.7 0-33.9-15.2-33.9-33.9s15.2-33.9 33.9-33.9S100 35.4 100 54.1 84.8 87.9 66.1 88z"></path></symbol><symbol viewBox="0 0 120 120" id="icon-service"><g fill="currentColor"><path d="M78.8 103.7l13.1 4.2L86 86.2 63.6 92l5.9 22 9.3-10.3zM50.4 114l5.9-22-22.5-5.8L28 108l13.1-4.2 9.3 10.2z"></path><path d="M60 10c2.1 0 4.3 1.2 5.6 3l.4.4c2.4 2.5 5.8 3.9 9.2 3.9.6 0 1.6-.1 2.6-.5a8 8 0 0 1 2-.3h.2c3.9 0 7.1 3.1 7.2 7v.5a13 13 0 0 0 7 9.6l.4.2c2.2.8 3.8 2.5 4.6 4.7.6 2.2.3 4.5-1 6.4l-.2.3a12.6 12.6 0 0 0 0 12.2l.2.3c.4.5.6 1.1.9 1.7 1.4 3.8-.6 8-4.4 9.4l-.4.2a12.7 12.7 0 0 0-7.1 9.8v.3a7.8 7.8 0 0 1-3 5.8 7.6 7.6 0 0 1-6.1 1.1c-1.1-.5-2.2-.5-2.8-.5-3.5 0-6.8 1.4-9.2 3.9l-.3.3a7.4 7.4 0 0 1-5.8 2.8c-2.3 0-4.4-1-5.8-2.8l-.3-.3a12.9 12.9 0 0 0-9.2-3.9l-.8.1-1.4.3h-.2l-2.3.3h-.2a7.2 7.2 0 0 1-7.2-7v-.5c-.6-4.2-3.3-7.8-7-9.6l-.4-.2a7.7 7.7 0 0 1-4.6-4.7 8 8 0 0 1 1-6.4l.2-.3c2.1-3.8 2.1-8.4 0-12.2l-.2-.3c-.4-.5-.6-1.1-.9-1.6A7.3 7.3 0 0 1 25 34l.3-.1c4-1.9 6.7-5.7 7-10.1v-.2a7.8 7.8 0 0 1 3-5.8 7.5 7.5 0 0 1 6.3-1c.9.3 1.8.5 2.8.5 3.5 0 6.8-1.4 9.2-3.9l.2-.2A9 9 0 0 1 60 10m0-4a12 12 0 0 0-9 4.4 9 9 0 0 1-6.4 2.7 4 4 0 0 1-1.5-.3 11.6 11.6 0 0 0-9.9 1.6 11.8 11.8 0 0 0-4.7 8.8c-.3 3-2.1 5.6-4.8 6.8a11.3 11.3 0 0 0-5.4 17.1 8.7 8.7 0 0 1 0 8.3c-2 2.9-2.5 6.5-1.5 9.9 1.2 3.3 3.7 5.9 7 7.2a9.2 9.2 0 0 1 4.9 6.7c.1 6.1 5.1 10.9 11.2 10.9h.2c1.1 0 2.2-.2 3.2-.5l1.4-.3a9 9 0 0 1 6.4 2.7A11.3 11.3 0 0 0 69 92a9 9 0 0 1 6.4-2.7c.5 0 1 0 1.3.3 1.1.3 2.1.4 3.2.4 2.4 0 4.7-.7 6.7-2.1 2.8-2.1 4.5-5.3 4.7-8.8a8.7 8.7 0 0 1 4.9-6.7 11.3 11.3 0 0 0 5.5-17.1 8.7 8.7 0 0 1 0-8.3c2-2.9 2.5-6.5 1.5-9.9-1.1-3.3-3.7-6-7-7.2a9.2 9.2 0 0 1-4.9-6.7 11.1 11.1 0 0 0-11.2-10.9h-.2a16.5 16.5 0 0 0-4.5.7 9 9 0 0 1-6.4-2.7A12.3 12.3 0 0 0 60 6z"></path></g></symbol><symbol viewBox="0 0 120 120" id="icon-settings"><path fill="currentColor" d="M109.9 63c.1-1 .1-2 .1-3s0-2-.1-3l-6.1-1.5c-.5-4.7-1.7-9.3-3.6-13.5l4.5-4.4c-.9-1.8-1.9-3.5-3-5.1l-6 1.7c-2.8-3.8-6.1-7.2-9.9-9.9l1.7-6c-1.6-1.1-3.4-2.1-5.1-3L78 19.8c-4.3-1.9-8.9-3.2-13.5-3.6L63 10.1c-1-.1-2-.1-3-.1s-2 0-3 .1l-1.5 6.1c-4.7.5-9.3 1.7-13.5 3.6l-4.4-4.5c-1.8.9-3.5 1.9-5.1 3l1.7 6c-3.8 2.8-7.2 6.1-9.9 9.9l-6-1.7c-1.1 1.6-2.1 3.4-3 5.1l4.5 4.4c-1.9 4.3-3.2 8.9-3.6 13.5L10.1 57c-.1 1-.1 2-.1 3s0 2 .1 3l6.1 1.5c.5 4.7 1.8 9.2 3.8 13.5l-4.5 4.4c.9 1.8 1.9 3.5 3 5.1l6-1.7c2.8 3.8 6.1 7.2 9.9 9.9l-1.7 6c1.6 1.1 3.4 2.1 5.1 3l4.4-4.5c4.3 1.9 8.9 3.2 13.5 3.6l1.5 6.1c1 .1 2 .1 3 .1s2 0 3-.1l1.5-6.1c4.7-.5 9.3-1.7 13.5-3.6l4.3 4.5c1.8-.9 3.5-1.9 5.1-3l-1.7-6c3.8-2.8 7.2-6.1 9.9-9.9l6 1.7c1.1-1.6 2.1-3.4 3-5.1l-4.5-4.4c1.9-4.3 3.1-8.8 3.6-13.5l6-1.5zM60 94.6c-19.1 0-34.6-15.5-34.6-34.6S40.9 25.4 60 25.4 94.6 40.9 94.6 60 79.1 94.6 60 94.6z"></path><path fill="currentColor" d="M60 78.4c-9.7 0-17.5-7.8-17.5-17.5S50.3 43.4 60 43.4s17.5 7.8 17.5 17.5S69.6 78.4 60 78.4zm0-25c-4.1 0-7.5 3.4-7.5 7.5s3.4 7.5 7.5 7.5 7.5-3.4 7.5-7.5-3.4-7.5-7.5-7.5z"></path></symbol><symbol viewBox="0 0 120 120" id="icon-show"><path fill="currentColor" d="M60 94C37.6 94 16.8 82 5.7 62.5L4.2 60l1.4-2.5C22.8 27.5 61 17.1 91 34.2c9.7 5.5 17.7 13.6 23.3 23.3l1.4 2.5-1.4 2.5C103.2 82 82.4 94 60 94zM15.9 60c15.8 24.4 48.3 31.4 72.7 15.6 6.2-4 11.5-9.3 15.6-15.6-15.8-24.4-48.4-31.3-72.8-15.6-6.2 4.1-11.5 9.4-15.5 15.6z"></path><path fill="currentColor" d="M60 77.5c-9.7 0-17.5-7.8-17.5-17.5S50.3 42.5 60 42.5 77.5 50.3 77.5 60 69.7 77.5 60 77.5zm0-25c-4.1 0-7.5 3.4-7.5 7.5s3.4 7.5 7.5 7.5 7.5-3.4 7.5-7.5-3.4-7.5-7.5-7.5z"></path></symbol><symbol viewBox="0 0 120 120" id="icon-single-extrusion"><path fill="currentColor" d="M48.9 74.4v21.8H26.4v3h25.5V74.4zm-22.5 28.8h47.9v3H26.4zm0 6.9h47.9v3H26.4zm0 6.9h47.9v3H26.4zM118 13.3H81V0H39v13.3H2c-1.1 0-2 .9-2 2v35c0 .3 0 .5.2.8v.1c.1.2.2.4.4.6l12.7 12.7c.2.2.4.3.6.4h.1c.3.1.5.1.8.1h31.4l4.1 4 4.1-4h50.8c.2 0 .5 0 .7-.1 0 0 .1 0 .1-.1.2-.1.4-.2.6-.4l12.7-12.7c.2-.2.3-.4.4-.6V51h-.1c.1-.2.1-.5.1-.7v-35c.3-1.1-.6-2-1.7-2zm-2 4v5.8H81v-5.8zM43 4h34v9.3H43zm-4 13.3v5.8H4v-5.8zM15.5 61L4 49.5V27.1h35V61zm52.7 0H43V17.3h34V61zm36.3 0H81V27.1h35v22.4z"></path></symbol><symbol viewBox="0 0 120 120" id="icon-store"><path fill="currentColor" d="M110 87.3H17.3V26.9H110v60.4zm-82.7-10H100V36.9H27.3v40.4zM10 7.3h25v10H10z"></path><circle fill="currentColor" cx="91.3" cy="103.8" r="6.2"></circle><path fill="currentColor" d="M91.3 112.7c-4.8 0-8.8-3.9-8.8-8.8s3.9-8.8 8.8-8.8 8.8 3.9 8.8 8.8c-.1 4.8-4 8.8-8.8 8.8zm0-12.5c-2.1 0-3.8 1.7-3.8 3.8s1.7 3.8 3.8 3.8 3.8-1.7 3.8-3.8c-.1-2.2-1.7-3.8-3.8-3.8z"></path><circle fill="currentColor" cx="26.6" cy="103.8" r="6.2"></circle><path fill="currentColor" d="M26.6 112.7c-4.8 0-8.8-3.9-8.8-8.8s3.9-8.8 8.8-8.8 8.8 3.9 8.8 8.8c-.1 4.8-4 8.8-8.8 8.8zm0-12.5c-2.1 0-3.8 1.7-3.8 3.8s1.7 3.8 3.8 3.8 3.8-1.7 3.8-3.8c-.1-2.2-1.7-3.8-3.8-3.8z"></path></symbol><symbol viewBox="0 0 120 120" id="icon-support"><g fill="currentColor"><path d="M14 43.6v26.8a14 14 0 0 1 0-26.8m4-4.6C8.1 39 0 47.1 0 57s8.1 18 18 18V39z"></path><path d="M105.4 41.4a48 48 0 0 0-90.8 0l1.4-.2V57a44 44 0 0 1 88 0V41.1l1.4.3z"></path><path d="M106 43.6a14 14 0 0 1 0 26.8V43.6m-4-4.6v36c9.9 0 18-8.1 18-18s-8.1-18-18-18z"></path><path d="M104 72.9V57c0 22-16.3 40.3-37.5 43.5.3.8.5 1.6.5 2.5l-.2 1.5a47.9 47.9 0 0 0 38.5-31.9l-1.3.3z"></path><path d="M60 98c2.8 0 5 2.2 5 5s-2.2 5-5 5-5-2.2-5-5 2.2-5 5-5m0-4c-5 0-9 4-9 9s4 9 9 9 9-4 9-9-4-9-9-9z"></path><path d="M60 22a35 35 0 1 1 0 70 35 35 0 0 1 0-70m0-4a39 39 0 1 0 .1 78.1A39 39 0 0 0 60 18z"></path></g></symbol><symbol viewBox="0 0 120 120" id="icon-twitter"><path fill="currentColor" d="M31.5 36.2c15.8 8.3 29.2 7.9 29.2 7.9s-5.1-18.5 10.5-26.6 26.4 5.6 26.4 5.6 2.7-.8 4.8-1.6c2-.8 5-2.2 5-2.2l-4.8 9 7.4-.8s-.9 1.4-3.9 4.2-4.2 4.3-4.2 4.3 1.1 22.2-10.1 39.3-25.7 27.3-46.7 29.5c-21 2.2-34.7-6.7-34.7-6.7s9.2-.5 15-2.9c5.9-2.3 14.3-8.5 14.3-8.5s-12-3.8-16.3-8.2c-4.3-4.3-5.4-6.9-5.4-6.9l11.8-.2s-12.4-6.9-16-12.3S10 48.4 10 48.4l9.1 3.8s-7.6-10.7-8.6-19.1 1.3-12.7 1.3-12.7 3.9 7.5 19.7 15.8z"></path></symbol><symbol viewBox="0 0 120 120" id="icon-typing"><path fill="currentColor" d="M60.1 20c22.1 0 40 17.9 40 40s-17.9 40-40 40H34.2l4.7-4.7-7.1-6.9c-15.7-15.6-15.7-40.9-.1-56.6C39.2 24.2 49.4 20 60.1 20m0-10c-27.6 0-50 22.3-50.1 49.9 0 13.3 5.3 26.1 14.7 35.5L10 110h50c27.6 0 50-22.4 50-50 .1-27.6-22.3-50-49.9-50z"></path><circle fill="currentColor" cx="35.1" cy="60.8" r="6.2"></circle><circle fill="currentColor" cx="60.1" cy="60.8" r="6.2"></circle><circle fill="currentColor" cx="85.1" cy="60.8" r="6.2"></circle></symbol><symbol viewBox="0 0 295.3 293.9" id="icon-ultimaker-u"><path fill="currentColor" d="M290.1 5.5v177.2c0 12.4-2.1 24.3-6 35.4-10.7 30.2-34.6 54.1-64.8 64.8-11.1 3.9-23 6-35.4 6H113c-12.4 0-24.3-2.1-35.4-6-30.2-10.7-54.1-34.6-64.8-64.8-3.9-11.1-6-23-6-35.4V5.5h70.9v212.6h141.7V5.5h70.7z"></path></symbol><symbol viewBox="0 0 120 120" id="icon-um2"><path fill="currentColor" d="M95.5 27.6c-1.2 0-2.4-.2-3-1.2l-.6-.6a5 5 0 0 0-3-1.2H30.7c-1.2 0-2.4.2-3 1.2l-.5.6a5 5 0 0 1-3 1.2h-6V120h6c1.2 0 2.4-.2 3-1.2l.6-.6a5 5 0 0 1 3-1.2h58.6c1.2 0 2.4.2 3 1.2l.6.6a5 5 0 0 0 3 1.2h6V27.6h-6.5zm-3 70.7c-.2.6-.8 1.2-1.4 1.2l-13.9 2c-11.9.8-23.2.8-35 0l-13.9-2c-.6 0-1.2-.6-1.2-1.2V35c0-.8.8-1.8 1.8-1.8h62.4c.8 0 1.8.8 1.8 1.8v63.2h-.6z"></path></symbol><symbol viewBox="0 0 120 120" id="icon-um2ext"><path fill="currentColor" d="M95.5 3c-1.2 0-2.4-.2-3-1.2l-.6-.6a5 5 0 0 0-3-1.2H30.7c-1.2 0-2.4.2-3 1.2l-.6.6a5 5 0 0 1-3 1.2h-6v117h6c1.2 0 2.4-.2 3-1.2l.6-.6a5 5 0 0 1 3-1.2h58.6c1.2 0 2.4.2 3 1.2l.6.6a5 5 0 0 0 3 1.2h6V3h-6.4zm-3 95.3c-.2.6-.8.8-1.4 1.2l-13.9 2c-11.9.8-23.2.8-35 0l-13.9-2c-.6 0-1.2-.6-1.2-1.2V10.4c0-.8.8-1.8 1.8-1.8h62.4c.6 0 1.4.8 1.4 1.8v87.8h-.2z"></path></symbol><symbol viewBox="0 0 120 120" id="icon-um3"><path fill="currentColor" d="M101.3 24.5H18.7c-.3 0-.6.3-.6.6v94.3c0 .3.3.6.6.6h5.4c1.2 0 2.4-.2 3-1.2l.6-.6c.8-.7 1.9-1.1 3-1.2h58.6c1.2 0 2.4.2 3 1.2l.6.6c.8.7 1.9 1.1 3 1.2h5.4c.3 0 .6-.3.6-.6V25.1c0-.3-.3-.6-.6-.6zm-8.6 72.4c0 2.8-2.3 5.1-5.1 5.1H32.2c-2.8 0-5.1-2.3-5.1-5.1V35c0-1 .8-1.9 1.9-1.9h61.9c1 0 1.9.8 1.9 1.9v61.9z"></path></symbol><symbol viewBox="0 0 120 120" id="icon-um3ext"><path fill="currentColor" d="M101.3 0H18.7c-.3 0-.6.3-.6.6v118.9c0 .3.3.6.6.6H24c1.2 0 2.4-.2 3-1.2l.6-.6c.8-.7 1.9-1.1 3-1.2h58.6c1.2 0 2.4.2 3 1.2l.6.6c.8.7 1.9 1.1 3 1.2h5.5c.3 0 .6-.3.6-.6V.6c0-.3-.3-.6-.6-.6zm-8.6 97c0 2.8-2.3 5.1-5.1 5.1H32.2c-2.8 0-5.1-2.3-5.1-5.1V10.5c0-1 .8-1.9 1.9-1.9h61.9c1 0 1.9.8 1.9 1.9V97z"></path></symbol><symbol viewBox="0 0 120 120" id="icon-ums5"><g fill="currentColor"><path d="M115.6 0H4.3L4 .2v119.5l.2.2h7.2c2.2-3.4 7.6-2.9 7.6-2.9h82s5.4-.4 7.6 2.9h7.2l.2-.2V.2l-.4-.2zm-7.1 93.5c0 3.8-3.1 6.8-6.8 6.8H18.3c-3.8 0-6.8-3-6.8-6.8V12.2c0-.6.5-1.2 1.2-1.2h94.7c.6 0 1.2.5 1.2 1.2l-.1 81.3z"></path><path d="M58.5 5.3h3v100.9h-3z"></path></g></symbol><symbol viewBox="0 0 120 120" id="icon-upload"><path fill="currentColor" d="M10 103.6h100v10H10zM88.5 35L60 6.5 31.5 35l7 7L55 25.6v63h10v-63L81.5 42z"></path></symbol><symbol viewBox="0 0 120 120" id="icon-volume"><g fill="currentColor"><path d="M60 10.6l42.8 24.7v49.4L60 109.4 17.2 84.7V35.3L60 10.6M60 6L13.2 33v54L60 114l46.8-27V33L60 6z"></path><path d="M62 19.1h-4V7.5h4v11.6zm-4 9.1h4v11.6h-4zm0 20.6h4v11.6h-4zm-34.5 30l2 3.5-10 5.7-2-3.5 10-5.7zm7.9-4.5l10-5.8 2 3.4-10 5.8z"></path><path d="M49.3 63.9l10-5.8 2 3.5-10 5.8zm45.2 18.2l2-3.5 10.1 5.8-2 3.5-10.1-5.8zM76.6 71.8l2-3.5 10 5.8-2 3.5z"></path><path d="M58.6 61.4l2-3.5 10 5.8-2 3.5z"></path><path d="M13.8 32.6l-.6 1.1v1.5L59 61.7l2-3.4-45.7-26.5z"></path><path d="M59 58.3l2 3.4 45.7-26.5V33l-2.1-1.2z"></path><path d="M58 112.8l2 1.2 2-1.2V60h-4z"></path></g></symbol><symbol viewBox="0 0 120 120" id="icon-youtube"><path fill="currentColor" d="M107.9 35.8c-1.2-4.3-4.5-7.7-8.8-8.9-7.8-2.1-39.1-2.1-39.1-2.1s-31.3 0-39.1 2.1c-4.3 1.2-7.7 4.6-8.8 8.9C10 43.6 10 60 10 60s0 16.4 2.1 24.2c1.2 4.3 4.5 7.7 8.8 8.9 7.8 2.1 39.1 2.1 39.1 2.1s31.3 0 39.1-2.1c4.3-1.2 7.7-4.6 8.8-8.9C110 76.4 110 60 110 60s0-16.4-2.1-24.2zM49.8 74.9V45.1L75.9 60 49.8 74.9z"></path></symbol></svg>